<svg xmlns="http://www.w3.org/2000/svg" width="24" height="24" viewBox="0 0 24 24" fill="none"><g opacity="0.7"><path d="M7.5 3.75H4.5C4.08579 3.75 3.75 4.08579 3.75 4.5V19.5C3.75 19.9142 4.08579 20.25 4.5 20.25H7.5C7.91421 20.25 8.25 19.9142 8.25 19.5V4.5C8.25 4.08579 7.91421 3.75 7.5 3.75Z" stroke="#543CDF" stroke-width="1.5" stroke-linecap="round" stroke-linejoin="round"></path><path d="M3.75 7.5H8.25" stroke="#543CDF" stroke-width="1.5" stroke-linecap="round" stroke-linejoin="round"></path><path d="M12 3.75H9C8.58579 3.75 8.25 4.08579 8.25 4.5V19.5C8.25 19.9142 8.58579 20.25 9 20.25H12C12.4142 20.25 12.75 19.9142 12.75 19.5V4.5C12.75 4.08579 12.4142 3.75 12 3.75Z" stroke="#543CDF" stroke-width="1.5" stroke-linecap="round" stroke-linejoin="round"></path><path d="M8.25 16.5H12.75" stroke="#543CDF" stroke-width="1.5" stroke-linecap="round" stroke-linejoin="round"></path><path d="M16.3762 3.51014L13.4784 4.2866C13.0783 4.3938 12.8409 4.80506 12.9481 5.20516L16.8304 19.6941C16.9376 20.0942 17.3488 20.3316 17.7489 20.2244L20.6467 19.448C21.0468 19.3408 21.2843 18.9295 21.1771 18.5294L17.2948 4.04047C17.1876 3.64037 16.7763 3.40293 16.3762 3.51014Z" stroke="#543CDF" stroke-width="1.5" stroke-linecap="round" stroke-linejoin="round"></path><path d="M16.0538 16.796L20.4005 15.6313" stroke="#543CDF" stroke-width="1.5" stroke-linecap="round" stroke-linejoin="round"></path><path d="M13.7245 8.10292L18.0712 6.93823" stroke="#543CDF" stroke-width="1.5" stroke-linecap="round" stroke-linejoin="round"></path></g></svg>