<svg xmlns="http://www.w3.org/2000/svg" width="50" height="47" viewBox="0 0 50 47" fill="none"><g style="mix-blend-mode:difference"><path fill-rule="evenodd" clip-rule="evenodd" d="M34.6699 35.8034C43.3449 34.5135 50 27.0339 50 18C50 8.05887 41.9411 0 32 0C24.4663 0 18.0136 4.62831 15.3301 11.1966C6.65512 12.4865 0 19.9661 0 29C0 38.9411 8.05887 47 18 47C25.5337 47 31.9864 42.3717 34.6699 35.8034ZM31.2774 35.9858C32.3774 33.8995 33 31.5224 33 29C33 20.7157 26.2843 14 18 14C16.7413 14 15.5188 14.155 14.3506 14.4471C14.5758 13.3222 14.9058 12.2352 15.3301 11.1966C16.2013 11.0671 17.0928 11 18 11C27.9411 11 36 19.0589 36 29C36 31.4074 35.5274 33.7044 34.6699 35.8034C33.7987 35.9329 32.9072 36 32 36C31.758 36 31.5171 35.9952 31.2774 35.9858ZM31.2774 35.9858C28.7649 40.7513 23.7618 44 18 44C9.71573 44 3 37.2843 3 29C3 21.9744 7.83 16.077 14.3506 14.4471C14.1206 15.5957 14 16.7837 14 18C14 27.6991 21.6713 35.6065 31.2774 35.9858Z" fill="white"></path></g></svg>