<svg xmlns="http://www.w3.org/2000/svg" width="36" height="36" viewBox="0 0 36 36" fill="none"><g clip-path="url(#clip0_1253_498)"><path d="M26.2864 21.6771C26.1848 21.3382 25.7668 21.1797 25.3375 21.1797C24.9195 21.1797 24.5014 21.3382 24.3998 21.6771L22.2193 28.7831C22.208 28.8284 22.1968 28.8734 22.1968 28.8959C22.1968 29.2577 22.7277 29.506 23.1232 29.506C23.3718 29.506 23.5638 29.4271 23.6203 29.2123L24.0493 27.7097H26.6366L27.0662 29.2123C27.1225 29.4271 27.3145 29.506 27.563 29.506C27.9586 29.506 28.4895 29.2464 28.4895 28.8959C28.4895 28.8622 28.4782 28.8281 28.4669 28.7831L26.2864 21.6771ZM24.3545 26.5572L25.3372 23.0891L26.3205 26.5572H24.3545Z" fill="white"></path><path d="M32.1213 14.686H21.3138V10.0701L24.8261 7.56134C25.1032 7.36331 25.2677 7.04388 25.2677 6.70331C25.2677 6.36246 25.1032 6.04303 24.8261 5.845L21.2715 3.30606C20.9938 1.43784 19.3791 0 17.435 0H3.879C1.73996 0 0 1.73996 0 3.879V17.4353C0 19.5741 1.73996 21.314 3.879 21.314H14.6862V25.9299L11.1739 28.4387C10.8968 28.6367 10.7323 28.9564 10.7323 29.297C10.7323 29.6375 10.8968 29.9572 11.1739 30.155L14.7285 32.6939C15.0062 34.5622 16.6209 36 18.565 36H32.1213C34.26 36 36 34.2598 36 32.121V18.565C36 16.4259 34.26 14.686 32.1213 14.686ZM3.879 19.2047C2.90314 19.2047 2.10938 18.4109 2.10938 17.435V3.87872C2.10938 2.90314 2.90314 2.10938 3.879 2.10938H17.435C18.4106 2.10938 19.2044 2.90314 19.2044 3.87872C19.2044 4.21957 19.3689 4.53928 19.646 4.73703L22.3984 6.70303L19.646 8.66904C19.3689 8.86707 19.2044 9.18677 19.2044 9.52734V14.686H18.565C16.4262 14.686 14.6862 16.4259 14.6862 18.5647V19.2047H3.879ZM33.8906 32.121C33.8906 33.0969 33.0969 33.8906 32.1213 33.8906H18.565C17.5894 33.8906 16.7956 33.0969 16.7956 32.121C16.7956 31.7804 16.6311 31.4607 16.354 31.263L13.6016 29.297L16.354 27.331C16.6311 27.1329 16.7956 26.8132 16.7956 26.4727V18.565C16.7956 17.5891 17.5894 16.7953 18.565 16.7953H20.2563H20.2591H20.2618H32.1213C33.0969 16.7953 33.8906 17.5891 33.8906 18.565V32.121Z" fill="white"></path><path d="M13.8974 9.72205C14.2256 9.72205 14.492 9.45563 14.492 9.12714C14.492 8.79865 14.2256 8.53223 13.8974 8.53223H11.2516V7.08807C11.2516 6.75958 10.9852 6.49316 10.6567 6.49316C10.3285 6.49316 10.0621 6.75958 10.0621 7.08807V8.53223H7.41629C7.08807 8.53223 6.82166 8.79865 6.82166 9.12714C6.82166 9.45563 7.08807 9.72205 7.41629 9.72205H8.23615C8.36716 10.9781 8.90878 12.1132 9.72342 12.9924C9.04803 13.3967 8.25922 13.6302 7.41629 13.6302C7.08807 13.6302 6.82166 13.8963 6.82166 14.2248C6.82166 14.5533 7.08807 14.8197 7.41629 14.8197C8.61984 14.8197 9.73633 14.4434 10.6567 13.8035C11.5774 14.4434 12.6938 14.8197 13.8974 14.8197C14.2256 14.8197 14.492 14.5533 14.492 14.2248C14.492 13.8963 14.2256 13.6302 13.8974 13.6302C13.0545 13.6302 12.2657 13.3972 11.5903 12.9924C12.4049 12.1132 12.9465 10.9781 13.0775 9.72205H13.8974ZM10.6567 12.2492C10.006 11.5738 9.56412 10.6968 9.43475 9.72205H11.8789C11.7496 10.6968 11.3076 11.5738 10.6567 12.2492Z" fill="white"></path></g><defs><clipPath id="clip0_1253_498"><rect width="36" height="36" fill="white"></rect></clipPath></defs></svg>