<svg xmlns="http://www.w3.org/2000/svg" width="62" height="62" viewBox="0 0 62 62" fill="none"><circle cx="31" cy="31" r="31" fill="#543CDF"></circle><path fill-rule="evenodd" clip-rule="evenodd" d="M32.212 10L14 22.0316L20.6018 25.2774C23.5044 22.4234 27.4883 20.6326 31.9274 20.6326C36.3666 20.6326 40.4074 22.4234 43.3099 25.3333L49.8549 22.0316L32.212 10Z" fill="white"></path><path d="M45.7959 36.3337C45.7959 43.8777 39.5828 50.0003 31.9275 50.0003C26.8794 50.0003 22.497 47.3763 20.0561 43.4403C20.1671 43.4403 20.3335 43.4403 20.4444 43.4403C20.9992 43.4403 21.5539 43.2763 22.0532 42.9483C23.1072 42.347 24.1057 41.3083 25.1042 39.8323C26.4911 37.755 27.6005 35.459 28.3772 32.999C28.5991 33.4363 28.71 33.819 28.71 34.2017C28.71 34.5843 28.7655 34.8577 28.7655 35.0763C28.7655 36.7163 28.3217 38.411 27.5451 40.215C27.3786 40.379 27.1567 40.5977 26.9903 40.8163C26.3246 41.5817 25.9918 42.1283 25.9918 42.511C25.9918 42.7843 26.2692 43.0577 26.8239 43.331C27.3786 43.6043 27.9334 43.7683 28.4326 43.7683C28.4881 43.7683 28.5991 43.7137 28.7655 43.5497C28.9319 43.4403 29.0983 43.1123 29.3202 42.7297C29.7085 42.019 29.9304 41.363 29.9859 40.7617C30.9289 39.559 32.3713 37.919 34.4238 35.951L36.0325 34.3657C35.6442 35.5137 35.2004 36.6617 34.7566 37.8097C33.6471 40.5977 32.7596 42.2377 32.1494 42.7297C32.2603 42.8937 32.4267 43.0577 32.5932 43.167C33.0924 43.495 33.7026 43.659 34.3683 43.659C34.8121 43.659 35.2559 43.5497 35.6442 43.3857C36.5318 43.003 36.9756 42.2923 36.9756 41.2537C36.9756 38.3563 37.2529 35.459 37.8077 32.5617C38.0296 32.343 38.196 32.0697 38.3624 31.851C38.4733 31.7417 38.5288 31.6323 38.5843 31.523C38.6398 31.4137 38.6952 31.3043 38.6952 31.195C38.6952 31.0857 38.6398 30.9763 38.5843 30.867C38.5288 30.7577 38.3624 30.703 38.1405 30.703C37.9186 30.703 37.6412 30.867 37.3639 31.2497C37.1975 31.4683 36.9201 31.9603 36.6427 32.671C36.3099 32.9443 35.977 33.2177 35.6442 33.491C32.9815 35.623 31.2063 37.2083 30.3187 38.247C30.4297 37.3723 30.4852 36.607 30.4852 35.8963C30.4852 33.5457 29.8749 32.0697 28.5991 31.359C28.0443 31.0857 27.3786 30.9217 26.5465 30.9217C25.7144 30.9217 24.8823 31.1403 24.0502 31.523C23.6619 31.687 23.2736 31.9603 22.8853 32.179C22.497 32.4523 22.2196 32.7257 21.9422 33.0537C21.6649 33.3817 21.443 33.7097 21.2765 34.0923C21.1101 34.475 21.0547 34.8577 21.0547 35.295C21.0547 35.7323 21.2211 36.115 21.4984 36.443C21.6094 36.607 21.7758 36.7163 21.9422 36.771C22.1087 36.8257 22.2196 36.8803 22.386 36.8803C22.497 36.8803 22.6634 36.8803 22.7743 36.8257C23.2181 36.607 23.551 36.3883 23.7729 36.115C23.2181 35.5683 22.9408 35.0217 22.9408 34.475C22.9408 33.7097 23.3291 33.1083 24.0502 32.5617C24.7714 32.0697 25.548 31.7963 26.4911 31.7963C27.1567 31.7963 27.656 32.015 28.0443 32.3977C27.8224 32.8897 27.6005 33.3817 27.3786 33.9283C26.4356 35.8963 25.4925 37.427 24.5495 38.4657C23.44 39.6683 22.386 40.215 21.2765 40.215C20.5554 40.215 19.7788 39.9417 19.0576 39.4497C18.8912 39.559 18.7248 39.723 18.6138 39.887C18.2255 38.7937 18.0591 37.591 18.0591 36.3337C18.0591 32.3977 19.7788 28.8443 22.497 26.3297C24.9933 24.0337 28.3217 22.667 31.9275 22.667C35.6442 22.667 38.9726 24.0883 41.4689 26.439C44.1316 28.899 45.7959 32.4523 45.7959 36.3337Z" fill="white"></path></svg>