<svg xmlns="http://www.w3.org/2000/svg" width="36" height="36" viewBox="0 0 36 36" fill="none"><path d="M17 1.73205C17.6188 1.37479 18.3812 1.37479 19 1.73205L31.5885 9C32.2073 9.35727 32.5885 10.0175 32.5885 10.7321V25.268C32.5885 25.9825 32.2073 26.6427 31.5885 27L19 34.268C18.3812 34.6252 17.6188 34.6252 17 34.2679L4.41154 27C3.79274 26.6427 3.41154 25.9825 3.41154 25.268V10.732C3.41154 10.0175 3.79274 9.35727 4.41154 9L17 1.73205Z" stroke="white" stroke-width="2"></path><rect x="11" y="13" width="14" height="2" fill="white"></rect><rect x="10" y="17" width="16" height="2" fill="white"></rect><rect x="9" y="21" width="18" height="2" fill="white"></rect></svg>