<svg xmlns="http://www.w3.org/2000/svg" width="88" height="16" viewBox="0 0 88 16" fill="none"><path d="M14.9479 6.0882C14.8855 5.89221 14.7654 5.71958 14.6034 5.59285C14.4414 5.46611 14.245 5.39115 14.0397 5.37775L10.3278 5.11798L8.95086 1.6507C8.87634 1.45901 8.74566 1.2943 8.57593 1.17816C8.4062 1.06201 8.20535 0.999852 7.99969 0.999817H7.99871C7.79337 1.00018 7.59291 1.0625 7.42356 1.17863C7.2542 1.29476 7.12383 1.45928 7.04949 1.6507L5.65203 5.138L1.96062 5.37775C1.75537 5.39115 1.55892 5.46611 1.39691 5.59285C1.2349 5.71958 1.11485 5.89221 1.05242 6.0882C0.986563 6.28697 0.982083 6.50096 1.03956 6.70232C1.09704 6.90367 1.21382 7.08305 1.37469 7.2171L4.21453 9.61749L3.3698 12.9402C3.31158 13.1641 3.32229 13.4002 3.40052 13.6179C3.47876 13.8355 3.62088 14.0245 3.80828 14.16C3.98921 14.2916 4.20557 14.3657 4.42921 14.3727C4.65285 14.3797 4.87341 14.3192 5.06218 14.199L7.99187 12.3431C7.99578 12.3401 7.99968 12.3382 8.00847 12.3431L11.1608 14.3402C11.332 14.4495 11.5321 14.5046 11.7351 14.4984C11.9381 14.4921 12.1345 14.4247 12.2985 14.305C12.4683 14.1822 12.5971 14.0111 12.668 13.8139C12.7389 13.6168 12.7487 13.4028 12.696 13.2L11.7985 9.57013L14.6257 7.2171C14.7865 7.08305 14.9033 6.90367 14.9608 6.70232C15.0183 6.50096 15.0138 6.28697 14.9479 6.0882Z" fill="#FFC119"></path><path d="M32.9479 6.0882C32.8855 5.89221 32.7654 5.71958 32.6034 5.59285C32.4414 5.46611 32.245 5.39115 32.0397 5.37775L28.3278 5.11798L26.9509 1.6507C26.8763 1.45901 26.7457 1.2943 26.5759 1.17816C26.4062 1.06201 26.2053 0.999852 25.9997 0.999817H25.9987C25.7934 1.00018 25.5929 1.0625 25.4236 1.17863C25.2542 1.29476 25.1238 1.45928 25.0495 1.6507L23.652 5.138L19.9606 5.37775C19.7554 5.39115 19.5589 5.46611 19.3969 5.59285C19.2349 5.71958 19.1148 5.89221 19.0524 6.0882C18.9866 6.28697 18.9821 6.50096 19.0396 6.70232C19.097 6.90367 19.2138 7.08305 19.3747 7.2171L22.2145 9.61749L21.3698 12.9402C21.3116 13.1641 21.3223 13.4002 21.4005 13.6179C21.4788 13.8355 21.6209 14.0245 21.8083 14.16C21.9892 14.2916 22.2056 14.3657 22.4292 14.3727C22.6529 14.3797 22.8734 14.3192 23.0622 14.199L25.9919 12.3431C25.9958 12.3401 25.9997 12.3382 26.0085 12.3431L29.1608 14.3402C29.332 14.4495 29.5321 14.5046 29.7351 14.4984C29.9381 14.4921 30.1345 14.4247 30.2985 14.305C30.4683 14.1822 30.5971 14.0111 30.668 13.8139C30.7389 13.6168 30.7487 13.4028 30.696 13.2L29.7985 9.57013L32.6257 7.2171C32.7865 7.08305 32.9033 6.90367 32.9608 6.70232C33.0183 6.50096 33.0138 6.28697 32.9479 6.0882Z" fill="#FFC119"></path><path d="M50.9479 6.0882C50.8855 5.89221 50.7654 5.71958 50.6034 5.59285C50.4414 5.46611 50.245 5.39115 50.0397 5.37775L46.3278 5.11798L44.9509 1.6507C44.8763 1.45901 44.7457 1.2943 44.5759 1.17816C44.4062 1.06201 44.2053 0.999852 43.9997 0.999817H43.9987C43.7934 1.00018 43.5929 1.0625 43.4236 1.17863C43.2542 1.29476 43.1238 1.45928 43.0495 1.6507L41.652 5.138L37.9606 5.37775C37.7554 5.39115 37.5589 5.46611 37.3969 5.59285C37.2349 5.71958 37.1148 5.89221 37.0524 6.0882C36.9866 6.28697 36.9821 6.50096 37.0396 6.70232C37.097 6.90367 37.2138 7.08305 37.3747 7.2171L40.2145 9.61749L39.3698 12.9402C39.3116 13.1641 39.3223 13.4002 39.4005 13.6179C39.4788 13.8355 39.6209 14.0245 39.8083 14.16C39.9892 14.2916 40.2056 14.3657 40.4292 14.3727C40.6529 14.3797 40.8734 14.3192 41.0622 14.199L43.9919 12.3431C43.9958 12.3401 43.9997 12.3382 44.0085 12.3431L47.1608 14.3402C47.332 14.4495 47.5321 14.5046 47.7351 14.4984C47.9381 14.4921 48.1345 14.4247 48.2985 14.305C48.4683 14.1822 48.5971 14.0111 48.668 13.8139C48.7389 13.6168 48.7487 13.4028 48.696 13.2L47.7985 9.57013L50.6257 7.2171C50.7865 7.08305 50.9033 6.90367 50.9608 6.70232C51.0183 6.50096 51.0138 6.28697 50.9479 6.0882Z" fill="#FFC119"></path><path d="M68.9479 6.0882C68.8855 5.89221 68.7654 5.71958 68.6034 5.59285C68.4414 5.46611 68.245 5.39115 68.0397 5.37775L64.3278 5.11798L62.9509 1.6507C62.8763 1.45901 62.7457 1.2943 62.5759 1.17816C62.4062 1.06201 62.2053 0.999852 61.9997 0.999817H61.9987C61.7934 1.00018 61.5929 1.0625 61.4236 1.17863C61.2542 1.29476 61.1238 1.45928 61.0495 1.6507L59.652 5.138L55.9606 5.37775C55.7554 5.39115 55.5589 5.46611 55.3969 5.59285C55.2349 5.71958 55.1148 5.89221 55.0524 6.0882C54.9866 6.28697 54.9821 6.50096 55.0396 6.70232C55.097 6.90367 55.2138 7.08305 55.3747 7.2171L58.2145 9.61749L57.3698 12.9402C57.3116 13.1641 57.3223 13.4002 57.4005 13.6179C57.4788 13.8355 57.6209 14.0245 57.8083 14.16C57.9892 14.2916 58.2056 14.3657 58.4292 14.3727C58.6529 14.3797 58.8734 14.3192 59.0622 14.199L61.9919 12.3431C61.9958 12.3401 61.9997 12.3382 62.0085 12.3431L65.1608 14.3402C65.332 14.4495 65.5321 14.5046 65.7351 14.4984C65.9381 14.4921 66.1345 14.4247 66.2985 14.305C66.4683 14.1822 66.5971 14.0111 66.668 13.8139C66.7389 13.6168 66.7487 13.4028 66.696 13.2L65.7985 9.57013L68.6257 7.2171C68.7865 7.08305 68.9033 6.90367 68.9608 6.70232C69.0183 6.50096 69.0138 6.28697 68.9479 6.0882Z" fill="#FFC119"></path><path d="M86.9479 6.0882C86.8855 5.89221 86.7654 5.71958 86.6034 5.59285C86.4414 5.46611 86.245 5.39115 86.0397 5.37775L82.3278 5.11798L80.9509 1.6507C80.8763 1.45901 80.7457 1.2943 80.5759 1.17816C80.4062 1.06201 80.2053 0.999852 79.9997 0.999817H79.9987C79.7934 1.00018 79.5929 1.0625 79.4236 1.17863C79.2542 1.29476 79.1238 1.45928 79.0495 1.6507L77.652 5.138L73.9606 5.37775C73.7554 5.39115 73.5589 5.46611 73.3969 5.59285C73.2349 5.71958 73.1148 5.89221 73.0524 6.0882C72.9866 6.28697 72.9821 6.50096 73.0396 6.70232C73.097 6.90367 73.2138 7.08305 73.3747 7.2171L76.2145 9.61749L75.3698 12.9402C75.3116 13.1641 75.3223 13.4002 75.4005 13.6179C75.4788 13.8355 75.6209 14.0245 75.8083 14.16C75.9892 14.2916 76.2056 14.3657 76.4292 14.3727C76.6529 14.3797 76.8734 14.3192 77.0622 14.199L79.9919 12.3431C79.9958 12.3401 79.9997 12.3382 80.0085 12.3431L83.1608 14.3402C83.332 14.4495 83.5321 14.5046 83.7351 14.4984C83.9381 14.4921 84.1345 14.4247 84.2985 14.305C84.4683 14.1822 84.5971 14.0111 84.668 13.8139C84.7389 13.6168 84.7487 13.4028 84.696 13.2L83.7985 9.57013L86.6257 7.2171C86.7865 7.08305 86.9033 6.90367 86.9608 6.70232C87.0183 6.50096 87.0138 6.28697 86.9479 6.0882Z" fill="#FFC119"></path></svg>