<svg xmlns="http://www.w3.org/2000/svg" width="37" height="37" viewBox="0 0 37 37" fill="none"><g clip-path="url(#clip0_1253_515)"><path d="M16.6341 3.18952C16.6682 3.22529 16.6934 3.26852 16.7077 3.31576C16.7221 3.36301 16.7252 3.41295 16.7168 3.46161L16.5514 4.4921C16.5414 4.55083 16.5482 4.61118 16.5709 4.66624C16.5937 4.7213 16.6315 4.76883 16.68 4.80337C16.7285 4.83792 16.7858 4.85807 16.8453 4.86153C16.9048 4.86499 16.964 4.8516 17.0162 4.82291L17.8573 4.35812C17.9042 4.33227 17.9568 4.31872 18.0103 4.31872C18.0638 4.31872 18.1165 4.33227 18.1633 4.35812L19.0044 4.82291C19.0566 4.8516 19.1159 4.86499 19.1753 4.86153C19.2348 4.85807 19.2921 4.83792 19.3406 4.80337C19.3892 4.76883 19.427 4.7213 19.4497 4.66624C19.4725 4.61118 19.4792 4.55083 19.4692 4.4921L19.3038 3.46161C19.2954 3.41295 19.2984 3.36299 19.3128 3.31574C19.3272 3.26848 19.3524 3.22525 19.3865 3.18952L20.1102 2.44519C20.1506 2.4035 20.1788 2.3515 20.1916 2.29488C20.2045 2.23826 20.2015 2.1792 20.1831 2.12414C20.1646 2.06908 20.1314 2.02015 20.0871 1.98269C20.0427 1.94524 19.9889 1.9207 19.9315 1.91175L18.9581 1.76289C18.9068 1.75491 18.8582 1.73445 18.8167 1.70329C18.7752 1.67214 18.7419 1.63126 18.7199 1.58425L18.2981 0.682778C18.2725 0.628413 18.232 0.582452 18.1813 0.550261C18.1305 0.51807 18.0717 0.500977 18.0116 0.500977C17.9515 0.500977 17.8926 0.51807 17.8419 0.550261C17.7911 0.582452 17.7506 0.628413 17.725 0.682778L17.3007 1.58673C17.2787 1.63374 17.2455 1.67463 17.2039 1.70578C17.1624 1.73693 17.1138 1.75739 17.0625 1.76537L16.0891 1.91423C16.0318 1.92318 15.978 1.94772 15.9336 1.98518C15.8892 2.02263 15.856 2.07156 15.8376 2.12662C15.8191 2.18168 15.8162 2.24074 15.829 2.29736C15.8419 2.35398 15.8701 2.40598 15.9105 2.44767L16.6341 3.18952Z" fill="white"></path><path d="M19.9332 33.5539L18.9597 33.405C18.9084 33.3971 18.8599 33.3766 18.8183 33.3454C18.7768 33.3143 18.7436 33.2734 18.7216 33.2264L18.2973 32.3224C18.2717 32.2681 18.2311 32.2221 18.1804 32.1899C18.1297 32.1577 18.0708 32.1406 18.0107 32.1406C17.9506 32.1406 17.8918 32.1577 17.841 32.1899C17.7903 32.2221 17.7497 32.2681 17.7241 32.3224L17.2999 33.2264C17.2778 33.2734 17.2446 33.3143 17.2031 33.3454C17.1615 33.3766 17.113 33.3971 17.0617 33.405L16.0883 33.5539C16.0309 33.5628 15.9771 33.5874 15.9327 33.6248C15.8884 33.6623 15.8551 33.7112 15.8367 33.7663C15.8183 33.8213 15.8153 33.8804 15.8282 33.937C15.841 33.9936 15.8692 34.0456 15.9096 34.0873L16.6333 34.8316C16.6673 34.8674 16.6925 34.9106 16.7069 34.9579C16.7213 35.0051 16.7244 35.0551 16.716 35.1037L16.5506 36.1342C16.5406 36.193 16.5473 36.2533 16.5701 36.3084C16.5928 36.3634 16.6306 36.411 16.6792 36.4455C16.7277 36.4801 16.785 36.5002 16.8445 36.5037C16.9039 36.5071 16.9632 36.4937 17.0154 36.465L17.8565 36.0003C17.9033 35.9744 17.956 35.9608 18.0095 35.9608C18.063 35.9608 18.1156 35.9744 18.1625 36.0003L19.0036 36.465C19.0558 36.4937 19.115 36.5071 19.1745 36.5037C19.234 36.5002 19.2912 36.4801 19.3398 36.4455C19.3883 36.411 19.4261 36.3634 19.4489 36.3084C19.4716 36.2533 19.4784 36.193 19.4684 36.1342L19.3029 35.1037C19.2945 35.0551 19.2976 35.0051 19.312 34.9579C19.3263 34.9106 19.3516 34.8674 19.3857 34.8316L20.1093 34.0873C20.1497 34.0456 20.1779 33.9936 20.1908 33.937C20.2036 33.8804 20.2007 33.8213 20.1822 33.7663C20.1638 33.7112 20.1306 33.6623 20.0862 33.6248C20.0419 33.5874 19.988 33.5628 19.9307 33.5539H19.9332Z" fill="white"></path><path d="M8.92787 5.32624C8.96191 5.36201 8.98711 5.40524 9.00147 5.45248C9.01583 5.49973 9.01895 5.54967 9.01057 5.59834L8.84516 6.62882C8.83503 6.68766 8.84175 6.74816 8.86452 6.80335C8.8873 6.85854 8.9252 6.90617 8.97387 6.94075C9.02254 6.97533 9.07999 6.99545 9.1396 6.99879C9.19921 7.00213 9.25855 6.98856 9.31078 6.95963L10.1519 6.49484C10.1987 6.46899 10.2514 6.45544 10.3049 6.45544C10.3584 6.45544 10.411 6.46899 10.4579 6.49484L11.299 6.95963C11.3512 6.98832 11.4104 7.0017 11.4699 6.99825C11.5294 6.99479 11.5867 6.97463 11.6352 6.94009C11.6837 6.90555 11.7215 6.85802 11.7443 6.80296C11.767 6.7479 11.7738 6.68754 11.7638 6.62882L11.5984 5.59834C11.59 5.54967 11.5931 5.49973 11.6075 5.45248C11.6218 5.40524 11.647 5.36201 11.6811 5.32624L12.4047 4.58191C12.4451 4.54022 12.4733 4.48822 12.4862 4.4316C12.499 4.37498 12.4961 4.31592 12.4776 4.26086C12.4592 4.2058 12.426 4.15687 12.3816 4.11941C12.3373 4.08196 12.2834 4.05741 12.2261 4.04847L11.2527 3.8996C11.2012 3.89176 11.1525 3.87135 11.1108 3.84019C11.0691 3.80903 11.0357 3.76808 11.0136 3.72096L10.5894 2.81702C10.5634 2.76355 10.5229 2.71847 10.4725 2.68694C10.4221 2.6554 10.3639 2.63867 10.3045 2.63867C10.245 2.63867 10.1868 2.6554 10.1364 2.68694C10.086 2.71847 10.0455 2.76355 10.0196 2.81702L9.59197 3.72096C9.56995 3.76798 9.53671 3.80886 9.49518 3.84001C9.45364 3.87116 9.40509 3.89163 9.35379 3.8996L8.38037 4.04847C8.32293 4.05729 8.26903 4.08174 8.22455 4.11915C8.18008 4.15655 8.14676 4.20547 8.12823 4.26055C8.1097 4.31563 8.10668 4.37474 8.1195 4.43142C8.13231 4.4881 8.16047 4.54016 8.2009 4.58191L8.92787 5.32624Z" fill="white"></path><path d="M28.049 31.4544L27.0755 31.3056C27.0241 31.2978 26.9753 31.2774 26.9336 31.2462C26.8919 31.2151 26.8586 31.1741 26.8365 31.1269L26.4122 30.2238C26.3866 30.1694 26.3461 30.1235 26.2954 30.0913C26.2446 30.0591 26.1858 30.042 26.1257 30.042C26.0656 30.042 26.0067 30.0591 25.956 30.0913C25.9053 30.1235 25.8647 30.1694 25.8391 30.2238L25.4148 31.1269C25.3928 31.1739 25.3596 31.2148 25.3181 31.246C25.2765 31.2771 25.228 31.2976 25.1767 31.3056L24.2032 31.4544C24.1458 31.4632 24.0919 31.4877 24.0474 31.5251C24.003 31.5625 23.9696 31.6114 23.9511 31.6665C23.9326 31.7216 23.9296 31.7807 23.9424 31.8374C23.9552 31.8941 23.9833 31.9461 24.0238 31.9879L24.7474 32.7322C24.7815 32.768 24.8067 32.8112 24.821 32.8584C24.8354 32.9057 24.8385 32.9556 24.8301 33.0043L24.6647 34.0356C24.6546 34.0944 24.6613 34.1549 24.6841 34.2101C24.7069 34.2653 24.7448 34.313 24.7934 34.3475C24.8421 34.3821 24.8996 34.4022 24.9592 34.4056C25.0188 34.4089 25.0781 34.3953 25.1304 34.3664L25.9714 33.9016C26.0183 33.8758 26.0709 33.8622 26.1244 33.8622C26.178 33.8622 26.2306 33.8758 26.2774 33.9016L27.1185 34.3664C27.1707 34.3951 27.23 34.4085 27.2895 34.405C27.3489 34.4016 27.4062 34.3814 27.4548 34.3469C27.5033 34.3123 27.5411 34.2648 27.5639 34.2098C27.5866 34.1547 27.5933 34.0943 27.5833 34.0356L27.4179 33.0043C27.4095 32.9556 27.4126 32.9057 27.4269 32.8584C27.4413 32.8111 27.4665 32.7679 27.5006 32.7322L28.2243 31.9879C28.2647 31.9462 28.2929 31.8942 28.3057 31.8376C28.3186 31.7809 28.3156 31.7219 28.2972 31.6668C28.2788 31.6118 28.2456 31.5628 28.2012 31.5254C28.1568 31.4879 28.103 31.4634 28.0456 31.4544H28.049Z" fill="white"></path><path d="M3.18496 10.7936C3.219 10.8293 3.2442 10.8726 3.25856 10.9198C3.27292 10.9671 3.27604 11.017 3.26766 11.0657L3.10226 12.0961C3.09225 12.1549 3.099 12.2152 3.12175 12.2703C3.14449 12.3253 3.1823 12.3729 3.23083 12.4074C3.27937 12.442 3.33666 12.4621 3.39613 12.4656C3.4556 12.469 3.51484 12.4557 3.56705 12.427L4.40814 11.9622C4.455 11.9363 4.50764 11.9228 4.56115 11.9228C4.61466 11.9228 4.66729 11.9363 4.71415 11.9622L5.55524 12.427C5.60745 12.4557 5.66669 12.469 5.72616 12.4656C5.78563 12.4621 5.84292 12.442 5.89146 12.4074C5.93999 12.3729 5.9778 12.3253 6.00054 12.2703C6.02328 12.2152 6.03004 12.1549 6.02004 12.0961L5.85463 11.0657C5.84619 11.017 5.84927 10.967 5.86363 10.9198C5.87799 10.8725 5.90324 10.8293 5.93733 10.7936L6.66182 10.0492C6.70224 10.0075 6.7304 9.95543 6.74322 9.89875C6.75604 9.84207 6.75302 9.78296 6.73449 9.72788C6.71595 9.6728 6.68263 9.62388 6.63816 9.58648C6.59369 9.54907 6.53978 9.52462 6.48235 9.5158L5.50893 9.36693C5.45763 9.35895 5.40907 9.33849 5.36754 9.30734C5.326 9.27619 5.29276 9.23531 5.27074 9.18829L4.84647 8.28434C4.82087 8.22998 4.78033 8.18402 4.72959 8.15182C4.67885 8.11963 4.62 8.10254 4.55991 8.10254C4.49981 8.10254 4.44096 8.11963 4.39022 8.15182C4.33948 8.18402 4.29894 8.22998 4.27334 8.28434L3.84907 9.18829C3.82705 9.23531 3.79381 9.27619 3.75227 9.30734C3.71074 9.33849 3.66218 9.35895 3.61088 9.36693L2.63746 9.5158C2.58009 9.52474 2.52629 9.54929 2.48192 9.58674C2.43756 9.6242 2.40434 9.67313 2.3859 9.72818C2.36746 9.78324 2.36451 9.84231 2.37737 9.89893C2.39023 9.95555 2.41841 10.0075 2.45882 10.0492L3.18496 10.7936Z" fill="white"></path><path d="M33.8861 25.3371L32.9127 25.1882C32.8614 25.1802 32.8129 25.1598 32.7713 25.1286C32.7298 25.0975 32.6966 25.0566 32.6745 25.0096L32.2503 24.1056C32.2247 24.0513 32.1841 24.0053 32.1334 23.9731C32.0826 23.9409 32.0238 23.9238 31.9637 23.9238C31.9036 23.9238 31.8447 23.9409 31.794 23.9731C31.7432 24.0053 31.7027 24.0513 31.6771 24.1056L31.2528 25.0096C31.2307 25.0567 31.1974 25.0976 31.1557 25.1288C31.114 25.16 31.0653 25.1804 31.0138 25.1882L30.0404 25.3371C29.983 25.346 29.9292 25.3706 29.8849 25.408C29.8405 25.4455 29.8073 25.4944 29.7888 25.5495C29.7704 25.6045 29.7675 25.6636 29.7803 25.7202C29.7932 25.7768 29.8214 25.8288 29.8618 25.8705L30.5862 26.6148C30.6203 26.6506 30.6455 26.6938 30.6599 26.7411C30.6742 26.7883 30.6773 26.8383 30.669 26.8869L30.5036 27.9174C30.4936 27.9762 30.5003 28.0365 30.523 28.0916C30.5458 28.1466 30.5836 28.1942 30.6321 28.2287C30.6807 28.2633 30.738 28.2834 30.7974 28.2869C30.8569 28.2903 30.9161 28.2769 30.9683 28.2482L31.8094 27.7834C31.8563 27.7576 31.9089 27.744 31.9624 27.744C32.0159 27.744 32.0686 27.7576 32.1154 27.7834L32.9565 28.2482C33.0088 28.2772 33.0681 28.2907 33.1277 28.2874C33.1873 28.284 33.2448 28.2639 33.2934 28.2294C33.3421 28.1948 33.38 28.1472 33.4028 28.092C33.4256 28.0368 33.4323 27.9763 33.4222 27.9174L33.2567 26.8869C33.2483 26.8383 33.2514 26.7883 33.2658 26.7411C33.2801 26.6938 33.3054 26.6506 33.3395 26.6148L34.0639 25.8705C34.1044 25.8288 34.1325 25.7767 34.1453 25.72C34.1582 25.6634 34.1551 25.6043 34.1366 25.5492C34.1181 25.4941 34.0848 25.4452 34.0403 25.4078C33.9958 25.3704 33.9419 25.3459 33.8845 25.3371H33.8861Z" fill="white"></path><path d="M3.51987 20.6217C3.56837 20.5876 3.60628 20.5404 3.62924 20.4857C3.6522 20.431 3.6593 20.371 3.64972 20.3124L3.48431 19.2819C3.47587 19.2333 3.47895 19.1833 3.49331 19.136C3.50768 19.0888 3.53292 19.0456 3.56701 19.0098L4.29067 18.2655C4.33108 18.2238 4.35926 18.1718 4.37212 18.1152C4.38498 18.0586 4.38203 17.9995 4.36359 17.9444C4.34515 17.8894 4.31193 17.8405 4.26757 17.803C4.2232 17.7655 4.1694 17.741 4.11203 17.7321L3.13861 17.5832C3.08731 17.5752 3.03875 17.5548 2.99722 17.5236C2.95568 17.4925 2.92244 17.4516 2.90042 17.4046L2.48112 16.5031C2.45551 16.4487 2.41498 16.4028 2.36423 16.3706C2.31349 16.3384 2.25464 16.3213 2.19455 16.3213C2.13446 16.3213 2.0756 16.3384 2.02486 16.3706C1.97412 16.4028 1.93358 16.4487 1.90798 16.5031L1.48371 17.407C1.46169 17.4541 1.42845 17.4949 1.38692 17.5261C1.34538 17.5572 1.29683 17.5777 1.24553 17.5857L0.272105 17.7345C0.214736 17.7435 0.160929 17.768 0.116564 17.8055C0.0721991 17.8429 0.038983 17.8919 0.0205452 17.9469C0.00210746 18.002 -0.000842483 18.061 0.0120177 18.1177C0.0248779 18.1743 0.0530534 18.2263 0.0934656 18.268L0.817121 19.0123C0.85116 19.0481 0.876366 19.0913 0.890725 19.1386C0.905085 19.1858 0.908201 19.2357 0.899825 19.2844L0.734418 20.3149C0.724411 20.3736 0.731167 20.434 0.75391 20.489C0.776654 20.5441 0.814462 20.5916 0.862996 20.6262C0.911529 20.6607 0.96882 20.6809 1.02829 20.6843C1.08776 20.6878 1.147 20.6744 1.19921 20.6457L2.04031 20.1809C2.08716 20.1551 2.1398 20.1415 2.19331 20.1415C2.24682 20.1415 2.29945 20.1551 2.34631 20.1809L3.1874 20.6457C3.23957 20.673 3.29832 20.6852 3.35705 20.681C3.41577 20.6767 3.47216 20.6562 3.51987 20.6217Z" fill="white"></path><path d="M35.9322 18.269C35.9726 18.2273 36.0008 18.1753 36.0137 18.1187C36.0265 18.062 36.0236 18.003 36.0051 17.9479C35.9867 17.8928 35.9535 17.8439 35.9091 17.8065C35.8648 17.769 35.8109 17.7445 35.7536 17.7355L34.7802 17.5867C34.7289 17.5787 34.6803 17.5582 34.6388 17.5271C34.5972 17.4959 34.564 17.455 34.542 17.408L34.1177 16.5041C34.0921 16.4497 34.0516 16.4037 34.0008 16.3715C33.9501 16.3394 33.8912 16.3223 33.8311 16.3223C33.771 16.3223 33.7122 16.3394 33.6615 16.3715C33.6107 16.4037 33.5702 16.4497 33.5446 16.5041L33.1203 17.408C33.0983 17.4551 33.0651 17.496 33.0236 17.5272C32.982 17.5583 32.9334 17.5787 32.8821 17.5867L31.9087 17.7355C31.8513 17.7445 31.7975 17.769 31.7532 17.8065C31.7088 17.8439 31.6756 17.8928 31.6571 17.9479C31.6387 18.003 31.6358 18.062 31.6486 18.1187C31.6615 18.1753 31.6896 18.2273 31.7301 18.269L32.4537 19.0133C32.4878 19.0491 32.513 19.0923 32.5273 19.1395C32.5417 19.1868 32.5448 19.2367 32.5364 19.2854L32.371 20.3159C32.361 20.3746 32.3677 20.435 32.3905 20.49C32.4132 20.5451 32.451 20.5926 32.4996 20.6271C32.5481 20.6617 32.6054 20.6818 32.6649 20.6853C32.7244 20.6888 32.7836 20.6754 32.8358 20.6467L33.6769 20.1819C33.7238 20.156 33.7764 20.1425 33.8299 20.1425C33.8834 20.1425 33.936 20.156 33.9829 20.1819L34.824 20.6467C34.8762 20.6754 34.9354 20.6888 34.9949 20.6853C35.0544 20.6818 35.1117 20.6617 35.1602 20.6271C35.2087 20.5926 35.2465 20.5451 35.2693 20.49C35.292 20.435 35.2988 20.3746 35.2888 20.3159L35.1234 19.2854C35.1149 19.2367 35.118 19.1868 35.1324 19.1395C35.1468 19.0923 35.172 19.049 35.2061 19.0133L35.9322 18.269Z" fill="white"></path><path d="M6.76346 25.2075L5.79004 25.0586C5.73859 25.0508 5.68987 25.0304 5.64818 24.9992C5.6065 24.968 5.57313 24.9271 5.55103 24.88L5.12676 23.9768C5.10106 23.9227 5.06054 23.877 5.00988 23.8449C4.95923 23.8129 4.90053 23.7959 4.8406 23.7959C4.78068 23.7959 4.72198 23.8129 4.67133 23.8449C4.62068 23.877 4.58015 23.9227 4.55445 23.9768L4.13018 24.8783C4.10816 24.9253 4.07492 24.9662 4.03339 24.9974C3.99185 25.0285 3.9433 25.049 3.892 25.0569L2.91858 25.2075C2.86114 25.2163 2.80724 25.2407 2.76276 25.2781C2.71829 25.3155 2.68497 25.3645 2.66644 25.4196C2.64791 25.4746 2.64489 25.5337 2.6577 25.5904C2.67052 25.6471 2.69868 25.6992 2.73911 25.7409L3.46359 26.4852C3.49763 26.521 3.52284 26.5642 3.5372 26.6115C3.55156 26.6587 3.55467 26.7087 3.5463 26.7573L3.38089 27.7911C3.37076 27.85 3.37748 27.9105 3.40025 27.9657C3.42302 28.0208 3.46093 28.0685 3.5096 28.1031C3.55827 28.1376 3.61572 28.1578 3.67533 28.1611C3.73494 28.1644 3.79428 28.1509 3.84651 28.1219L4.68761 27.6572C4.73446 27.6313 4.78709 27.6177 4.8406 27.6177C4.89411 27.6177 4.94675 27.6313 4.99361 27.6572L5.8347 28.1219C5.88691 28.1506 5.94615 28.164 6.00562 28.1605C6.06509 28.1571 6.12238 28.1369 6.17092 28.1024C6.21945 28.0679 6.25726 28.0203 6.28 27.9653C6.30275 27.9102 6.3095 27.8498 6.29949 27.7911L6.13409 26.7606C6.12564 26.712 6.12873 26.662 6.14309 26.6148C6.15746 26.5675 6.1827 26.5243 6.21679 26.4885L6.94045 25.7442C6.98086 25.7025 7.00903 25.6505 7.02189 25.5939C7.03475 25.5373 7.0318 25.4782 7.01337 25.4232C6.99493 25.3681 6.96171 25.3192 6.91735 25.2817C6.87298 25.2443 6.81918 25.2197 6.76181 25.2108L6.76346 25.2075Z" fill="white"></path><path d="M30.8657 10.6635C30.8998 10.6992 30.925 10.7425 30.9393 10.7897C30.9537 10.8369 30.9568 10.8869 30.9484 10.9355L30.783 11.9693C30.773 12.0281 30.7798 12.0884 30.8025 12.1435C30.8253 12.1985 30.8631 12.2461 30.9116 12.2806C30.9601 12.3152 31.0174 12.3353 31.0769 12.3388C31.1364 12.3422 31.1956 12.3288 31.2478 12.3002L32.0889 11.8354C32.1358 11.8095 32.1884 11.796 32.2419 11.796C32.2954 11.796 32.3481 11.8095 32.3949 11.8354L33.236 12.3002C33.2883 12.3298 33.348 12.3439 33.408 12.341C33.468 12.338 33.526 12.318 33.575 12.2833C33.6241 12.2486 33.6623 12.2006 33.6852 12.1451C33.708 12.0895 33.7146 12.0285 33.7041 11.9693L33.5387 10.9389C33.5303 10.8902 33.5333 10.8402 33.5477 10.793C33.5621 10.7457 33.5873 10.7025 33.6214 10.6668L34.3459 9.92243C34.3863 9.88068 34.4145 9.82862 34.4273 9.77194C34.4401 9.71526 34.4371 9.65615 34.4186 9.60107C34.4 9.54599 34.3667 9.49707 34.3222 9.45967C34.2778 9.42226 34.2239 9.39781 34.1664 9.38899L33.193 9.24013C33.1417 9.23215 33.0931 9.21169 33.0516 9.18054C33.0101 9.14939 32.9768 9.1085 32.9548 9.06148L32.5305 8.15837C32.5049 8.104 32.4644 8.05804 32.4137 8.02585C32.3629 7.99366 32.3041 7.97656 32.244 7.97656C32.1839 7.97656 32.125 7.99366 32.0743 8.02585C32.0236 8.05804 31.983 8.104 31.9574 8.15837L31.5331 9.06148C31.5111 9.1085 31.4779 9.14939 31.4364 9.18054C31.3948 9.21169 31.3463 9.23215 31.295 9.24013L30.3215 9.38899C30.2642 9.39794 30.2104 9.42248 30.166 9.45993C30.1216 9.49739 30.0884 9.54632 30.07 9.60138C30.0515 9.65644 30.0486 9.7155 30.0615 9.77212C30.0743 9.82874 30.1025 9.88074 30.1429 9.92243L30.8657 10.6635Z" fill="white"></path><path d="M11.9482 30.673L10.9747 30.5241C10.9234 30.5162 10.8749 30.4957 10.8334 30.4646C10.7918 30.4334 10.7586 30.3925 10.7366 30.3455L10.3123 29.4416C10.2867 29.3872 10.2462 29.3412 10.1954 29.309C10.1447 29.2768 10.0858 29.2598 10.0257 29.2598C9.96563 29.2598 9.90679 29.2768 9.85604 29.309C9.8053 29.3412 9.76476 29.3872 9.73916 29.4416L9.31489 30.3455C9.29287 30.3925 9.25963 30.4334 9.21809 30.4646C9.17656 30.4957 9.12801 30.5162 9.0767 30.5241L8.10328 30.673C8.04591 30.6819 7.9921 30.7065 7.94774 30.744C7.90337 30.7814 7.87016 30.8303 7.85172 30.8854C7.83329 30.9404 7.83033 30.9995 7.84319 31.0561C7.85605 31.1128 7.88423 31.1648 7.92465 31.2065L8.6483 31.9508C8.68234 31.9866 8.70755 32.0298 8.72191 32.077C8.73626 32.1243 8.73938 32.1742 8.731 32.2229L8.56559 33.2533C8.55559 33.3121 8.56235 33.3724 8.58509 33.4275C8.60783 33.4826 8.64564 33.5301 8.69417 33.5646C8.74271 33.5992 8.8 33.6193 8.85947 33.6228C8.91894 33.6263 8.97818 33.6129 9.03039 33.5842L9.87148 33.1194C9.91834 33.0935 9.97097 33.08 10.0245 33.08C10.078 33.08 10.1306 33.0935 10.1775 33.1194L11.0186 33.5842C11.0708 33.6129 11.13 33.6263 11.1895 33.6228C11.249 33.6193 11.3063 33.5992 11.3548 33.5646C11.4033 33.5301 11.4411 33.4826 11.4639 33.4275C11.4866 33.3724 11.4934 33.3121 11.4834 33.2533L11.318 32.2221C11.3095 32.1734 11.3126 32.1234 11.327 32.0762C11.3413 32.0289 11.3666 31.9857 11.4007 31.95L12.1235 31.2056C12.1644 31.1641 12.193 31.1121 12.2062 31.0554C12.2194 30.9986 12.2167 30.9393 12.1984 30.884C12.1801 30.8287 12.1469 30.7795 12.1025 30.7419C12.058 30.7042 12.0041 30.6795 11.9465 30.6705L11.9482 30.673Z" fill="white"></path><path d="M24.5555 4.81859L24.3901 5.84907C24.3801 5.9078 24.3868 5.96815 24.4095 6.02321C24.4323 6.07827 24.4701 6.1258 24.5186 6.16035C24.5672 6.19489 24.6245 6.21505 24.6839 6.2185C24.7434 6.22196 24.8027 6.20858 24.8549 6.17989L25.696 5.71509C25.7428 5.68925 25.7954 5.67569 25.849 5.67569C25.9025 5.67569 25.9551 5.68925 26.002 5.71509L26.843 6.17989C26.8953 6.20858 26.9545 6.22196 27.014 6.2185C27.0734 6.21505 27.1307 6.19489 27.1793 6.16035C27.2278 6.1258 27.2656 6.07827 27.2883 6.02321C27.3111 5.96815 27.3179 5.9078 27.3079 5.84907L27.1424 4.81859C27.134 4.76993 27.1371 4.71996 27.1514 4.67271C27.1658 4.62546 27.191 4.58223 27.2251 4.54649L27.948 3.80216C27.9884 3.76047 28.0166 3.70848 28.0294 3.65186C28.0423 3.59524 28.0393 3.53617 28.0209 3.48111C28.0024 3.42605 27.9692 3.37712 27.9249 3.33967C27.8805 3.30221 27.8267 3.27767 27.7693 3.26872L26.7959 3.11986C26.7446 3.11188 26.696 3.09142 26.6545 3.06027C26.613 3.02912 26.5797 2.98823 26.5577 2.94122L26.1335 2.03727C26.1078 1.9829 26.0673 1.93694 26.0166 1.90475C25.9658 1.87256 25.907 1.85547 25.8469 1.85547C25.7868 1.85547 25.7279 1.87256 25.6772 1.90475C25.6265 1.93694 25.5859 1.9829 25.5603 2.03727L25.1361 2.94122C25.1141 2.98828 25.0809 3.0292 25.0393 3.06036C24.9978 3.09152 24.9492 3.11195 24.8979 3.11986L23.9244 3.26872C23.8671 3.27767 23.8133 3.30221 23.7689 3.33967C23.7245 3.37712 23.6913 3.42605 23.6729 3.48111C23.6545 3.53617 23.6515 3.59524 23.6644 3.65186C23.6772 3.70848 23.7054 3.76047 23.7458 3.80216L24.4711 4.54649C24.5054 4.58211 24.531 4.62527 24.5456 4.67252C24.5603 4.71977 24.5636 4.7698 24.5555 4.81859Z" fill="white"></path></g><defs><clipPath id="clip0_1253_515"><rect width="36.0223" height="36" fill="white" transform="translate(0 0.5)"></rect></clipPath></defs></svg>