<svg xmlns="http://www.w3.org/2000/svg" width="62" height="67" viewBox="0 0 62 67" fill="none"><path d="M60.75 1.60487C58.2961 0.305731 52.6723 1.23455 51 3.10449C47.5 5.60449 46.0866 10.0291 45.5 14.6045C45.5 18.1045 47.3194 19.6045 49 19.1045C51.2769 18.4271 50.4112 16.4912 49.6806 15.5215C47.5172 12.6506 44.5 10.6049 39.5 10.6049C35.8333 10.1605 30.5853 10.7164 27 16.6049C26.3742 17.6327 23.5 22.6049 23.5 31.1049C23.5 38.4655 26 42.1049 30.5 48.6049" stroke="#EBEBEB" stroke-width="2" stroke-linecap="round"></path><path d="M1 23.6045C7.16667 25.7712 21.7 33.8045 30.5 48.6045" stroke="#EBEBEB" stroke-width="2" stroke-linecap="round"></path><path d="M9 19.6045C11.3333 19.7712 16.5 21.3045 18.5 26.1045" stroke="#EBEBEB" stroke-width="2" stroke-linecap="round"></path><path d="M10.5 45.6043C12.6667 44.9377 17.7 44.5043 20.5 48.1043" stroke="#EBEBEB" stroke-width="2" stroke-linecap="round"></path><path d="M3.5 65.6045C7.5 62.4378 16.9 56.1045 22.5 56.1045" stroke="#EBEBEB" stroke-width="2" stroke-linecap="round"></path></svg>