<svg xmlns="http://www.w3.org/2000/svg" width="192" height="31" viewBox="0 0 192 31" fill="none"><path d="M121.276 14.0994C121.276 14.0994 119.629 14.4895 118.235 14.8188L116.116 15.2975C116.111 15.2975 116.102 15.2975 116.097 15.2975C116.097 14.7303 116.139 14.1326 116.275 13.5819C116.451 12.8763 116.836 12.0517 117.505 11.6892C118.232 11.2962 119.119 11.2492 119.888 11.5536C120.685 11.8663 121.051 12.63 121.207 13.4214C121.251 13.6428 121.279 13.8641 121.301 14.0883L121.276 14.0994ZM126.802 15.2975C126.802 9.81025 123.32 7.45264 118.871 7.45264C113.842 7.45264 110.691 10.9088 110.691 15.3252C110.691 20.1262 113.373 23.253 119.147 23.253C122.269 23.253 124.036 22.7051 126.138 21.662L125.338 18.0675C123.735 18.7814 122.244 19.2186 120.253 19.2186C118.071 19.2186 116.827 18.3968 116.356 16.861H126.662C126.746 16.4487 126.802 15.981 126.802 15.2975Z" fill="#FF7BE5"></path><path d="M75.0255 14.0994C75.0255 14.0994 73.3778 14.4895 71.9839 14.8188L69.8655 15.2975C69.8597 15.2975 69.8513 15.2975 69.8458 15.2975C69.8458 14.7303 69.8877 14.1326 70.0241 13.5819C70.1998 12.8763 70.5846 12.0517 71.2536 11.6892C71.9813 11.2962 72.8677 11.2492 73.6371 11.5536C74.4344 11.8663 74.7997 12.63 74.9557 13.4214C75.0003 13.6428 75.0281 13.8641 75.0504 14.0883L75.0255 14.0994ZM80.5506 15.2975C80.5506 9.81025 77.0687 7.45264 72.6196 7.45264C67.5907 7.45264 64.4406 10.9088 64.4406 15.3252C64.4406 20.1262 67.1223 23.253 72.8955 23.253C76.0178 23.253 77.7852 22.7051 79.8871 21.662L79.0872 18.0675C77.4841 18.7814 75.9927 19.2186 74.0022 19.2186C71.8195 19.2186 70.5762 18.3968 70.1052 16.861H80.4113C80.495 16.4487 80.5506 15.981 80.5506 15.2975Z" fill="#FF7BE5"></path><path d="M62.2775 3.42041H57.1731V22.702H62.2775V3.42041Z" fill="#FF7BE5"></path><path d="M127.878 7.94454H133.238L134.367 11.3537C135.073 9.67123 136.662 7.50732 139.48 7.50732C143.349 7.50732 145.449 9.45539 145.449 14.475V22.7044H140.088C140.088 20.989 140.091 19.276 140.093 17.5604C140.093 16.7745 140.079 15.9887 140.091 15.2028C140.099 14.4778 140.152 13.7279 139.762 13.0776C139.497 12.6376 139.065 12.3139 138.599 12.0925C137.654 11.6442 136.628 11.6553 135.7 12.1368C135.471 12.2558 134.367 12.8479 134.367 13.1219V22.7044H129.007V11.9265L127.878 7.94454Z" fill="#FF7BE5"></path><path d="M149.502 11.8135H147.043V7.94496H149.502V5.52647L154.863 4.27295V7.94496H160.251V11.8135H154.863V16.1468C154.863 17.8486 155.691 18.6428 156.934 18.6428C158.205 18.6428 158.924 18.4768 160 18.1226L160.636 22.1266C159.173 22.7576 157.349 23.0592 155.496 23.0592C151.598 23.0592 149.499 21.2217 149.499 17.6549V11.8135H149.502Z" fill="#FF7BE5"></path><path d="M170.282 18.8607C172.244 18.8607 173.404 17.4605 173.404 15.2136C173.404 12.9666 172.3 11.6744 170.365 11.6744C168.403 11.6744 167.271 12.9638 167.271 15.2938C167.271 17.4909 168.375 18.8607 170.282 18.8607ZM170.337 7.36865C175.366 7.36865 179.041 10.4956 179.041 15.3492C179.041 20.2304 175.366 23.1663 170.282 23.1663C165.225 23.1663 161.631 20.1502 161.631 15.3492C161.631 10.4956 165.197 7.36865 170.337 7.36865Z" fill="#FF7BE5"></path><path d="M105.889 7.9004C104.941 7.51302 103.867 7.36911 102.842 7.51577C102.32 7.59049 101.81 7.73992 101.336 7.97237C100.037 8.60879 99.0252 10.0616 98.4816 11.3566C98.1247 9.8651 97.0849 8.52579 95.5656 7.90318C94.6179 7.51577 93.5445 7.37189 92.5186 7.51855C91.9975 7.59327 91.4871 7.74268 91.0132 7.97512C89.7169 8.60879 88.7078 10.056 88.1615 11.3483V11.2542L87.0687 7.95023H81.7078L82.8371 11.9322V22.7074H88.1615V13.075C88.1809 13.003 88.418 12.8702 88.4597 12.8398C89.0841 12.3998 89.8174 11.946 90.5978 11.8907C91.3953 11.8325 92.1813 12.2338 92.6552 12.8619C92.7055 12.9311 92.7527 13.0003 92.7973 13.0722C93.1878 13.7225 93.1348 14.4724 93.1264 15.1974C93.118 15.9833 93.1291 16.7692 93.1291 17.555C93.1264 19.2707 93.1236 20.9836 93.1236 22.6991H98.4845V14.4724C98.4845 14.4309 98.4845 14.3894 98.4845 14.3507V13.0805C98.4955 13.0114 98.7409 12.873 98.7855 12.8426C99.41 12.4026 100.143 11.9488 100.924 11.8934C101.721 11.8353 102.507 12.2366 102.981 12.8647C103.031 12.9339 103.079 13.003 103.123 13.075C103.513 13.7253 103.46 14.4752 103.452 15.2002C103.444 15.986 103.455 16.7719 103.455 17.5578C103.452 19.2734 103.449 20.9862 103.449 22.702H108.81V14.4724C108.81 12.0595 108.462 8.95193 105.889 7.9004Z" fill="#FF7BE5"></path><path d="M191.719 7.50732C188.9 7.50732 187.314 9.67401 186.606 11.3537L185.477 7.94454H180.116L181.245 11.9265V22.7018H186.606V12.7456C187.37 12.6127 191.515 13.3709 192.301 13.656V7.5267C192.112 7.51564 191.919 7.50732 191.719 7.50732Z" fill="#FF7BE5"></path><path d="M49.4845 14.0994C49.4845 14.0994 47.837 14.4895 46.4431 14.8188L44.3244 15.2975C44.3189 15.2975 44.3105 15.2975 44.305 15.2975C44.305 14.7303 44.3467 14.1326 44.4834 13.5819C44.6591 12.8763 45.0438 12.0517 45.7128 11.6892C46.4403 11.2962 47.3269 11.2492 48.0963 11.5536C48.8936 11.8663 49.2587 12.63 49.4149 13.4214C49.4595 13.6428 49.4873 13.8641 49.5096 14.0883L49.4845 14.0994ZM55.0098 15.2975C55.0098 9.81025 51.5279 7.45264 47.0788 7.45264C42.0497 7.45264 38.8995 10.9088 38.8995 15.3252C38.8995 20.1262 41.5813 23.253 47.3547 23.253C50.4771 23.253 52.2444 22.7051 54.3463 21.662L53.5462 18.0675C51.9433 18.7814 50.4519 19.2186 48.4614 19.2186C46.2787 19.2186 45.0354 18.3968 44.5641 16.861H54.8703C54.9539 16.4487 55.0098 15.981 55.0098 15.2975Z" fill="#FF7BE5"></path><path d="M15.854 0.340332C7.3961 0.340332 0.541138 7.14478 0.541138 15.5403C0.541138 23.9332 7.3961 30.7405 15.854 30.7405C24.3118 30.7405 31.1668 23.9358 31.1668 15.5403C31.1641 7.14478 24.3092 0.340332 15.854 0.340332ZM12.0265 21.8715H9.47572V9.2063H12.0265V21.8715ZM22.2323 21.8715H14.5772V19.3396H22.2323V21.8715ZM22.2323 16.8049H14.5772V14.273H22.2323V16.8049ZM22.2323 11.7383H14.5772V9.2063H22.2323V11.7383Z" fill="#FF7BE5"></path></svg>