<svg xmlns="http://www.w3.org/2000/svg" width="36" height="36" viewBox="0 0 36 36" fill="none"><path d="M31.7047 18H27.2047C26.608 18 26.0357 18.2371 25.6137 18.659C25.1918 19.081 24.9547 19.6533 24.9547 20.25V25.875C24.9547 26.4717 25.1918 27.044 25.6137 27.466C26.0357 27.888 26.608 28.125 27.2047 28.125H29.4547C30.0515 28.125 30.6238 27.888 31.0457 27.466C31.4677 27.044 31.7047 26.4717 31.7047 25.875V18ZM31.7047 18C31.7047 16.2185 31.3521 14.4547 30.6673 12.8101C29.9824 11.1656 28.9789 9.67284 27.7144 8.41794C26.45 7.16305 24.9496 6.17082 23.2999 5.49845C21.6502 4.82609 19.8838 4.48688 18.1024 4.50039C16.321 4.48688 14.5545 4.82609 12.9048 5.49845C11.2551 6.17082 9.75477 7.16305 8.49032 8.41794C7.22587 9.67284 6.2223 11.1656 5.53744 12.8101C4.85259 14.4547 4.5 16.2185 4.5 18V25.875C4.5 26.4717 4.73705 27.044 5.15901 27.466C5.58097 27.888 6.15326 28.125 6.75 28.125H9C9.59674 28.125 10.169 27.888 10.591 27.466C11.0129 27.044 11.25 26.4717 11.25 25.875V20.25C11.25 19.6533 11.0129 19.081 10.591 18.659C10.169 18.2371 9.59674 18 9 18H4.5" stroke="white" stroke-width="2" stroke-linecap="round" stroke-linejoin="round"></path><path d="M31.7047 25.875V29.25C31.7047 30.4435 31.2306 31.5881 30.3867 32.432C29.5428 33.2759 28.3982 33.75 27.2047 33.75H19.125" stroke="white" stroke-width="2" stroke-linecap="round" stroke-linejoin="round"></path></svg>