<svg xmlns="http://www.w3.org/2000/svg" width="123" height="30" viewBox="0 0 123 30" fill="none"><path d="M35.5836 21.0685H44.3289V18.4344H38.6919V8.51245H35.5836V21.0685Z" fill="#030F40"></path><path d="M49.5098 19.3125C48.2629 19.3125 47.6132 18.2237 47.6132 16.5906C47.6132 14.9574 48.2629 13.8511 49.5098 13.8511C50.7566 13.8511 51.4239 14.9574 51.4239 16.5906C51.4239 18.2237 50.7566 19.3125 49.5098 19.3125ZM49.5273 21.3496C52.4249 21.3496 54.3215 19.295 54.3215 16.5906C54.3215 13.8862 52.4249 11.8315 49.5273 11.8315C46.6473 11.8315 44.7156 13.8862 44.7156 16.5906C44.7156 19.295 46.6473 21.3496 49.5273 21.3496Z" fill="#030F40"></path><path d="M59.3371 24.1766C60.6718 24.1766 61.8483 23.8781 62.6386 23.1757C63.3586 22.5259 63.8327 21.5425 63.8327 20.1903V12.0771H61.0932V13.043H61.0581C60.5313 12.2879 59.7235 11.8137 58.5293 11.8137C56.2991 11.8137 54.7537 13.6752 54.7537 16.3093C54.7537 19.0664 56.6327 20.5766 58.6522 20.5766C59.741 20.5766 60.4259 20.1376 60.9527 19.5406H61.023V20.4362C61.023 21.5249 60.5137 22.1571 59.302 22.1571C58.3537 22.1571 57.8796 21.7532 57.7215 21.2791H54.9469C55.2279 23.1581 56.861 24.1766 59.3371 24.1766ZM59.3196 18.4518C58.2483 18.4518 57.5459 17.5737 57.5459 16.2215C57.5459 14.8518 58.2483 13.9737 59.3196 13.9737C60.5137 13.9737 61.1459 14.9923 61.1459 16.204C61.1459 17.4684 60.5664 18.4518 59.3196 18.4518Z" fill="#030F40"></path><path d="M69.4659 19.3125C68.2191 19.3125 67.5693 18.2237 67.5693 16.5906C67.5693 14.9574 68.2191 13.8511 69.4659 13.8511C70.7128 13.8511 71.3801 14.9574 71.3801 16.5906C71.3801 18.2237 70.7128 19.3125 69.4659 19.3125ZM69.4835 21.3496C72.3811 21.3496 74.2779 19.295 74.2779 16.5906C74.2779 13.8862 72.3811 11.8315 69.4835 11.8315C66.6035 11.8315 64.6718 13.8862 64.6718 16.5906C64.6718 19.295 66.6035 21.3496 69.4835 21.3496Z" fill="#030F40"></path><path d="M75.1129 21.0685H77.9753V12.0773H75.1129V21.0685ZM75.1129 10.8305H77.9753V8.51245H75.1129V10.8305Z" fill="#030F40"></path><path d="M79.2173 24.0362H82.0798V20.1376H82.1149C82.6768 20.8927 83.5022 21.3493 84.6612 21.3493C87.0144 21.3493 88.5773 19.4879 88.5773 16.5727C88.5773 13.8684 87.1198 11.8137 84.7315 11.8137C83.5022 11.8137 82.6241 12.3581 82.0095 13.1659H81.9568V12.0771H79.2173V24.0362ZM83.9237 19.1366C82.6944 19.1366 81.9919 18.1357 81.9919 16.6781C81.9919 15.2206 82.6241 14.1142 83.871 14.1142C85.1002 14.1142 85.6798 15.1327 85.6798 16.6781C85.6798 18.2059 85.0124 19.1366 83.9237 19.1366Z" fill="#030F40"></path><path d="M93.238 21.3493C95.5911 21.3493 97.3297 20.3308 97.3297 18.364C97.3297 16.0635 95.4682 15.6596 93.8877 15.3962C92.7463 15.1854 91.7277 15.0976 91.7277 14.4654C91.7277 13.9035 92.2721 13.6401 92.9746 13.6401C93.7648 13.6401 94.3092 13.8859 94.4145 14.6937H97.0487C96.9082 12.9201 95.5384 11.8137 92.9921 11.8137C90.8672 11.8137 89.1111 12.7971 89.1111 14.6937C89.1111 16.801 90.7794 17.2225 92.3424 17.4859C93.5365 17.6966 94.6253 17.7845 94.6253 18.5923C94.6253 19.1718 94.0809 19.4879 93.2204 19.4879C92.2721 19.4879 91.675 19.0488 91.5697 18.1532H88.8653C88.9531 20.1376 90.6038 21.3493 93.238 21.3493Z" fill="#030F40"></path><path d="M101.218 21.332C102.465 21.332 103.255 20.8403 103.905 19.9623H103.958V21.0686H106.697V12.0774H103.835V17.0998C103.835 18.1711 103.238 18.9086 102.254 18.9086C101.341 18.9086 100.902 18.3642 100.902 17.3808V12.0774H98.0573V17.9779C98.0573 19.9798 99.1461 21.332 101.218 21.332Z" fill="#030F40"></path><path d="M107.943 21.0684H110.805V16.0284C110.805 14.9571 111.332 14.202 112.227 14.202C113.088 14.202 113.492 14.764 113.492 15.7298V21.0684H116.354V16.0284C116.354 14.9571 116.864 14.202 117.777 14.202C118.637 14.202 119.041 14.764 119.041 15.7298V21.0684H121.904V15.2206C121.904 13.201 120.885 11.8137 118.848 11.8137C117.689 11.8137 116.723 12.3054 116.021 13.3942H115.985C115.529 12.4284 114.633 11.8137 113.457 11.8137C112.157 11.8137 111.297 12.4284 110.735 13.3591H110.682V12.0771H107.943V21.0684Z" fill="#030F40"></path><path fill-rule="evenodd" clip-rule="evenodd" d="M6.3324 2.84767C5.28558 3.57964 4.33897 4.44507 3.51723 5.41928C6.87525 5.10752 11.1415 5.61658 16.0946 8.09314C21.3838 10.7377 25.6429 10.8271 28.6071 10.2553C28.3381 9.44102 27.9995 8.65839 27.5984 7.91439C24.2053 8.27227 19.8553 7.79856 14.7857 5.26385C11.5665 3.65424 8.72877 2.99119 6.3324 2.84767ZM25.6163 5.09312C22.9367 2.09923 19.0426 0.215088 14.7084 0.215088C13.4356 0.215088 12.2006 0.377605 11.0233 0.683C12.6179 1.11808 14.3118 1.75459 16.0946 2.64601C19.8062 4.50181 23.0107 5.09935 25.6163 5.09312ZM29.2408 13.1137C25.6598 13.8208 20.7149 13.6756 14.7857 10.711C9.24257 7.93941 4.83072 7.97431 1.85521 8.63556C1.70163 8.66966 1.55166 8.70551 1.40531 8.74283C1.01574 9.59007 0.704774 10.481 0.481653 11.4062C0.719959 11.3425 0.96621 11.282 1.22028 11.2255C4.83009 10.4233 9.93045 10.4582 16.0946 13.5403C21.6378 16.3118 26.0496 16.2769 29.0252 15.6157C29.1271 15.5931 29.2275 15.5697 29.3263 15.5455C29.3372 15.3148 29.3426 15.0826 29.3426 14.8492C29.3426 14.262 29.308 13.6829 29.2408 13.1137ZM28.8485 18.6338C25.3023 19.2538 20.5014 19.0159 14.7857 16.1581C9.24257 13.3865 4.83072 13.4214 1.85521 14.0827C1.19474 14.2294 0.600583 14.4081 0.0764542 14.5969C0.0750252 14.6808 0.0743103 14.7649 0.0743103 14.8492C0.0743103 22.9314 6.62623 29.4834 14.7084 29.4834C21.4819 29.4834 27.1806 24.8816 28.8485 18.6338Z" fill="#030F40"></path></svg>