<svg xmlns="http://www.w3.org/2000/svg" width="174" height="40" viewBox="0 0 174 40" fill="none"><g clip-path="url(#clip0_612_22697)"><path d="M41.4767 32.6879V13.3121H44.8758L52.1708 23.1691H50.5497L57.6878 13.3121H61.0869V32.6879H57.5048V17.3433L58.8906 17.6814L51.491 27.4863H51.0727L43.8561 17.6814L45.0327 17.3433V32.6879H41.4767Z" fill="white"></path><path d="M68.8415 33C67.848 33 66.9851 32.8353 66.253 32.5059C65.5209 32.1764 64.9544 31.7083 64.5534 31.1014C64.1525 30.4772 63.9521 29.7577 63.9521 28.9428C63.9521 28.1625 64.1264 27.469 64.475 26.8622C64.8236 26.238 65.364 25.7178 66.0961 25.3017C66.8282 24.8856 67.7521 24.5908 68.8677 24.4174L73.5219 23.6632V26.264L69.5214 26.9402C68.8415 27.0616 68.336 27.2783 68.0048 27.5904C67.6737 27.9025 67.5081 28.3099 67.5081 28.8127C67.5081 29.2982 67.6911 29.6883 68.0571 29.9831C68.4406 30.2605 68.9113 30.3992 69.4691 30.3992C70.1838 30.3992 70.8113 30.2518 71.3517 29.9571C71.9095 29.645 72.3365 29.2202 72.6329 28.6827C72.9466 28.1452 73.1035 27.5557 73.1035 26.9142V23.2731C73.1035 22.6662 72.8595 22.1634 72.3714 21.7646C71.9007 21.3485 71.2732 21.1404 70.4888 21.1404C69.7567 21.1404 69.103 21.3398 68.5278 21.7386C67.97 22.1201 67.5603 22.6316 67.2989 23.2731L64.5012 21.9207C64.7801 21.1751 65.2158 20.5336 65.8085 19.9961C66.4186 19.4413 67.1333 19.0078 67.9526 18.6957C68.7718 18.3836 69.6608 18.2276 70.6195 18.2276C71.7874 18.2276 72.8159 18.4443 73.7049 18.8778C74.5939 19.2939 75.2824 19.8834 75.7705 20.6463C76.276 21.3919 76.5287 22.2674 76.5287 23.2731V32.6879H73.2865V30.2692L74.0186 30.2172C73.6526 30.824 73.2168 31.3355 72.7113 31.7516C72.2058 32.1504 71.6306 32.4625 70.9856 32.6879C70.3406 32.896 69.626 33 68.8415 33Z" fill="white"></path><path d="M85.107 33C83.5905 33 82.2657 32.6446 81.1326 31.9337C80.017 31.2055 79.2501 30.2258 78.8317 28.9948L81.3941 27.7724C81.7602 28.57 82.2657 29.1942 82.9106 29.645C83.573 30.0958 84.3051 30.3212 85.107 30.3212C85.7345 30.3212 86.2313 30.1825 86.5974 29.9051C86.9634 29.6277 87.1464 29.2635 87.1464 28.8127C87.1464 28.5353 87.068 28.3099 86.9111 28.1365C86.7717 27.9458 86.5712 27.7898 86.3097 27.6684C86.0657 27.5297 85.7955 27.417 85.4992 27.3303L83.1721 26.6801C81.9693 26.3333 81.0542 25.8045 80.4267 25.0936C79.8166 24.3827 79.5115 23.5418 79.5115 22.5709C79.5115 21.7039 79.7294 20.9497 80.1652 20.3082C80.6184 19.6493 81.2372 19.1378 82.0216 18.7737C82.8235 18.4096 83.7386 18.2276 84.7671 18.2276C86.1093 18.2276 87.2946 18.5483 88.3231 19.1899C89.3515 19.8314 90.0836 20.733 90.5194 21.8947L87.9047 23.117C87.6607 22.4755 87.251 21.964 86.6758 21.5826C86.1006 21.2011 85.4556 21.0104 84.7409 21.0104C84.1657 21.0104 83.7125 21.1404 83.3813 21.4005C83.0501 21.6606 82.8845 21.9987 82.8845 22.4148C82.8845 22.6749 82.9542 22.9003 83.0937 23.091C83.2331 23.2818 83.4249 23.4378 83.6689 23.5592C83.9304 23.6805 84.2267 23.7932 84.5579 23.8973L86.8327 24.5735C88.0006 24.9202 88.8983 25.4404 89.5258 26.1339C90.1708 26.8275 90.4932 27.6771 90.4932 28.6827C90.4932 29.5323 90.2666 30.2865 89.8134 30.9454C89.3602 31.5869 88.7327 32.0897 87.9309 32.4538C87.129 32.8179 86.1877 33 85.107 33Z" fill="white"></path><path d="M99.6099 32.844C98.0063 32.844 96.7599 32.4105 95.8709 31.5436C94.9994 30.6593 94.5636 29.4196 94.5636 27.8244V21.5826H92.1058V18.5397H92.3672C93.0645 18.5397 93.6049 18.3576 93.9884 17.9935C94.3718 17.6294 94.5636 17.1006 94.5636 16.407V15.3147H97.9888V18.5397H101.257V21.5826H97.9888V27.6424C97.9888 28.1105 98.0673 28.5093 98.2242 28.8388C98.3985 29.1682 98.6599 29.4196 99.0086 29.593C99.3746 29.7664 99.8365 29.8531 100.394 29.8531C100.516 29.8531 100.656 29.8444 100.813 29.827C100.987 29.8097 101.153 29.7924 101.309 29.775V32.6879C101.065 32.7226 100.787 32.7573 100.473 32.7919C100.159 32.8266 99.8714 32.844 99.6099 32.844Z" fill="white"></path><path d="M110.545 33C109.08 33 107.799 32.6706 106.701 32.0117C105.603 31.3528 104.749 30.4599 104.139 29.3329C103.529 28.2059 103.224 26.9575 103.224 25.5878C103.224 24.166 103.529 22.909 104.139 21.8166C104.766 20.707 105.612 19.8314 106.675 19.1899C107.756 18.5483 108.958 18.2276 110.283 18.2276C111.399 18.2276 112.375 18.4096 113.212 18.7737C114.066 19.1378 114.789 19.6407 115.382 20.2822C115.975 20.9237 116.428 21.6606 116.741 22.4928C117.055 23.3078 117.212 24.192 117.212 25.1456C117.212 25.3884 117.195 25.6398 117.16 25.8999C117.142 26.1599 117.099 26.3853 117.029 26.5761H106.047V23.9753H115.094L113.473 25.1977C113.63 24.4001 113.586 23.6892 113.342 23.065C113.116 22.4408 112.732 21.9467 112.192 21.5826C111.669 21.2185 111.033 21.0364 110.283 21.0364C109.569 21.0364 108.932 21.2185 108.374 21.5826C107.817 21.9293 107.39 22.4495 107.093 23.143C106.814 23.8192 106.71 24.6428 106.78 25.6138C106.71 26.4807 106.823 27.2523 107.119 27.9285C107.433 28.5873 107.886 29.0988 108.479 29.4629C109.089 29.827 109.786 30.0091 110.571 30.0091C111.355 30.0091 112.018 29.8444 112.558 29.515C113.116 29.1855 113.552 28.7434 113.865 28.1886L116.637 29.541C116.358 30.2172 115.922 30.8153 115.33 31.3355C114.737 31.8557 114.031 32.2631 113.212 32.5579C112.41 32.8526 111.521 33 110.545 33Z" fill="white"></path><path d="M119.809 32.6879V18.5397H123.025V21.6866L122.763 21.2185C123.094 20.1608 123.609 19.4239 124.306 19.0078C125.021 18.5917 125.875 18.3836 126.868 18.3836H127.705V21.4005H126.476C125.5 21.4005 124.716 21.7039 124.123 22.3108C123.53 22.9003 123.234 23.7326 123.234 24.8075V32.6879H119.809Z" fill="white"></path><path d="M129.876 32.6879V13.3121H133.432V29.567H141.773V32.6879H129.876Z" fill="white"></path><path d="M143.785 32.6879V18.5397H147.21V32.6879H143.785ZM143.785 16.9532V13.3121H147.21V16.9532H143.785Z" fill="white"></path><path d="M152.02 32.6879V21.5826H149.51V18.5397H152.02V18.0715C152.02 16.9965 152.238 16.0863 152.674 15.3407C153.127 14.5778 153.755 13.997 154.556 13.5982C155.358 13.1994 156.308 13 157.407 13C157.616 13 157.842 13.0173 158.086 13.052C158.348 13.0694 158.566 13.0954 158.74 13.13V16.0689C158.566 16.0342 158.4 16.0169 158.243 16.0169C158.104 15.9996 157.973 15.9909 157.851 15.9909C157.084 15.9909 156.491 16.1643 156.073 16.5111C155.655 16.8405 155.445 17.3606 155.445 18.0715V18.5397H158.609V21.5826H155.445V32.6879H152.02Z" fill="white"></path><path d="M167.333 33C165.868 33 164.587 32.6706 163.489 32.0117C162.391 31.3528 161.537 30.4599 160.927 29.3329C160.316 28.2059 160.011 26.9575 160.011 25.5878C160.011 24.166 160.316 22.909 160.927 21.8166C161.554 20.707 162.399 19.8314 163.463 19.1899C164.544 18.5483 165.746 18.2276 167.071 18.2276C168.187 18.2276 169.163 18.4096 170 18.7737C170.854 19.1378 171.577 19.6407 172.17 20.2822C172.762 20.9237 173.216 21.6606 173.529 22.4928C173.843 23.3078 174 24.192 174 25.1456C174 25.3884 173.983 25.6398 173.948 25.8999C173.93 26.1599 173.887 26.3853 173.817 26.5761H162.835V23.9753H171.882L170.261 25.1977C170.418 24.4001 170.374 23.6892 170.13 23.065C169.904 22.4408 169.52 21.9467 168.98 21.5826C168.457 21.2185 167.821 21.0364 167.071 21.0364C166.356 21.0364 165.72 21.2185 165.162 21.5826C164.605 21.9293 164.177 22.4495 163.881 23.143C163.602 23.8192 163.498 24.6428 163.567 25.6138C163.498 26.4807 163.611 27.2523 163.907 27.9285C164.221 28.5873 164.674 29.0988 165.267 29.4629C165.877 29.827 166.574 30.0091 167.359 30.0091C168.143 30.0091 168.805 29.8444 169.346 29.515C169.904 29.1855 170.339 28.7434 170.653 28.1886L173.425 29.541C173.146 30.2172 172.71 30.8153 172.117 31.3355C171.525 31.8557 170.819 32.2631 170 32.5579C169.198 32.8526 168.309 33 167.333 33Z" fill="white"></path><path fill-rule="evenodd" clip-rule="evenodd" d="M18.212 0L0 12.0316L6.60185 15.2774C9.50438 12.4234 13.4883 10.6326 17.9274 10.6326C22.3666 10.6326 26.4074 12.4234 29.3099 15.3333L35.8549 12.0316L18.212 0Z" fill="#543CDF"></path><path d="M31.7958 26.3332C31.7958 33.8772 25.5828 39.9998 17.9274 39.9998C12.8793 39.9998 8.49694 37.3758 6.0561 33.4398C6.16705 33.4398 6.33347 33.4398 6.44441 33.4398C6.99915 33.4398 7.55388 33.2758 8.05315 32.9478C9.10714 32.3465 10.1057 31.3078 11.1042 29.8318C12.491 27.7545 13.6005 25.4585 14.3771 22.9985C14.599 23.4358 14.71 23.8185 14.71 24.2012C14.71 24.5838 14.7654 24.8572 14.7654 25.0758C14.7654 26.7158 14.3217 28.4105 13.545 30.2145C13.3786 30.3785 13.1567 30.5972 12.9903 30.8158C12.3246 31.5812 11.9918 32.1278 11.9918 32.5105C11.9918 32.7838 12.2691 33.0572 12.8239 33.3305C13.3786 33.6038 13.9333 33.7678 14.4326 33.7678C14.4881 33.7678 14.599 33.7132 14.7654 33.5492C14.9319 33.4398 15.0983 33.1118 15.3202 32.7292C15.7085 32.0185 15.9304 31.3625 15.9859 30.7612C16.9289 29.5585 18.3712 27.9185 20.4237 25.9505L22.0325 24.3652C21.6442 25.5132 21.2004 26.6612 20.7566 27.8092C19.6471 30.5972 18.7595 32.2372 18.1493 32.7292C18.2603 32.8932 18.4267 33.0572 18.5931 33.1665C19.0924 33.4945 19.7026 33.6585 20.3683 33.6585C20.8121 33.6585 21.2558 33.5492 21.6442 33.3852C22.5317 33.0025 22.9755 32.2918 22.9755 31.2532C22.9755 28.3558 23.2529 25.4585 23.8076 22.5612C24.0295 22.3425 24.1959 22.0692 24.3624 21.8505C24.4733 21.7412 24.5288 21.6318 24.5843 21.5225C24.6397 21.4132 24.6952 21.3038 24.6952 21.1945C24.6952 21.0852 24.6397 20.9758 24.5843 20.8665C24.5288 20.7572 24.3624 20.7025 24.1405 20.7025C23.9186 20.7025 23.6412 20.8665 23.3638 21.2492C23.1974 21.4678 22.9201 21.9598 22.6427 22.6705C22.3098 22.9438 21.977 23.2172 21.6442 23.4905C18.9814 25.6225 17.2063 27.2078 16.3187 28.2465C16.4297 27.3718 16.4851 26.6065 16.4851 25.8958C16.4851 23.5452 15.8749 22.0692 14.599 21.3585C14.0443 21.0852 13.3786 20.9212 12.5465 20.9212C11.7144 20.9212 10.8823 21.1398 10.0502 21.5225C9.66188 21.6865 9.27356 21.9598 8.88525 22.1785C8.49693 22.4518 8.21957 22.7252 7.9422 23.0532C7.66483 23.3812 7.44294 23.7092 7.27652 24.0918C7.1101 24.4745 7.05462 24.8572 7.05462 25.2945C7.05462 25.7318 7.22104 26.1145 7.49841 26.4425C7.60936 26.6065 7.77578 26.7158 7.9422 26.7705C8.10862 26.8252 8.21957 26.8798 8.38599 26.8798C8.49693 26.8798 8.66336 26.8798 8.7743 26.8252C9.21809 26.6065 9.55093 26.3878 9.77283 26.1145C9.21809 25.5678 8.94072 25.0212 8.94072 24.4745C8.94072 23.7092 9.32904 23.1078 10.0502 22.5612C10.7713 22.0692 11.548 21.7958 12.491 21.7958C13.1567 21.7958 13.656 22.0145 14.0443 22.3972C13.8224 22.8892 13.6005 23.3812 13.3786 23.9278C12.4356 25.8958 11.4925 27.4265 10.5495 28.4652C9.43999 29.6678 8.38599 30.2145 7.27652 30.2145C6.55536 30.2145 5.77873 29.9412 5.05758 29.4492C4.89115 29.5585 4.72473 29.7225 4.61379 29.8865C4.22547 28.7932 4.05905 27.5905 4.05905 26.3332C4.05905 22.3972 5.77873 18.8438 8.49693 16.3292C10.9932 14.0332 14.3217 12.6665 17.9274 12.6665C21.6442 12.6665 24.9726 14.0878 27.4689 16.4385C30.1316 18.8985 31.7958 22.4518 31.7958 26.3332Z" fill="#FFC119"></path></g><defs><clipPath id="clip0_612_22697"><rect width="174" height="40" fill="white"></rect></clipPath></defs></svg>