<svg xmlns="http://www.w3.org/2000/svg" width="172" height="40" viewBox="0 0 172 40" fill="none"><g clip-path="url(#clip0_612_22767)"><path d="M41 32.6879V13.3121H44.36L51.5712 23.1691H49.9687L57.0248 13.3121H60.3848V32.6879H56.8438V17.3433L58.2137 17.6814L50.8992 27.4863H50.4856L43.352 17.6814L44.5151 17.3433V32.6879H41Z" fill="#030F40"></path><path d="M68.0503 33C67.0681 33 66.2152 32.8353 65.4915 32.5059C64.7678 32.1764 64.2078 31.7083 63.8115 31.1014C63.4151 30.4772 63.217 29.7577 63.217 28.9428C63.217 28.1625 63.3893 27.469 63.7339 26.8622C64.0785 26.238 64.6127 25.7178 65.3364 25.3017C66.0601 24.8856 66.9733 24.5908 68.0761 24.4174L72.6768 23.6632V26.264L68.7223 26.9402C68.0503 27.0616 67.5506 27.2783 67.2232 27.5904C66.8958 27.9025 66.7321 28.3099 66.7321 28.8127C66.7321 29.2982 66.913 29.6883 67.2749 29.9831C67.654 30.2605 68.1192 30.3992 68.6706 30.3992C69.377 30.3992 69.9974 30.2518 70.5315 29.9571C71.0829 29.645 71.5051 29.2202 71.798 28.6827C72.1081 28.1452 72.2632 27.5557 72.2632 26.9142V23.2731C72.2632 22.6662 72.022 22.1634 71.5395 21.7646C71.0743 21.3485 70.454 21.1404 69.6786 21.1404C68.9549 21.1404 68.3087 21.3398 67.7401 21.7386C67.1887 22.1201 66.7838 22.6316 66.5253 23.2731L63.7598 21.9207C64.0355 21.1751 64.4662 20.5336 65.0521 19.9961C65.6552 19.4413 66.3616 19.0078 67.1715 18.6957C67.9813 18.3836 68.8601 18.2276 69.8078 18.2276C70.9623 18.2276 71.9789 18.4443 72.8577 18.8778C73.7365 19.2939 74.4171 19.8834 74.8996 20.6463C75.3993 21.3919 75.6491 22.2674 75.6491 23.2731V32.6879H72.4442V30.2692L73.1679 30.2172C72.806 30.824 72.3752 31.3355 71.8755 31.7516C71.3758 32.1504 70.8072 32.4625 70.1697 32.6879C69.5321 32.896 68.8257 33 68.0503 33Z" fill="#030F40"></path><path d="M84.1287 33C82.6296 33 81.3201 32.6446 80.2001 31.9337C79.0973 31.2055 78.3391 30.2258 77.9256 28.9948L80.4585 27.7724C80.8204 28.57 81.3201 29.1942 81.9576 29.645C82.6124 30.0958 83.3361 30.3212 84.1287 30.3212C84.7491 30.3212 85.2401 30.1825 85.602 29.9051C85.9638 29.6277 86.1448 29.2635 86.1448 28.8127C86.1448 28.5353 86.0672 28.3099 85.9121 28.1365C85.7743 27.9458 85.5761 27.7898 85.3177 27.6684C85.0764 27.5297 84.8094 27.417 84.5164 27.3303L82.2161 26.6801C81.0272 26.3333 80.1225 25.8045 79.5022 25.0936C78.8992 24.3827 78.5976 23.5418 78.5976 22.5709C78.5976 21.7039 78.813 20.9497 79.2438 20.3082C79.6918 19.6493 80.3035 19.1378 81.0789 18.7737C81.8715 18.4096 82.7761 18.2276 83.7927 18.2276C85.1195 18.2276 86.2912 18.5483 87.3078 19.1899C88.3245 19.8314 89.0482 20.733 89.4789 21.8947L86.8943 23.117C86.6531 22.4755 86.2481 21.964 85.6795 21.5826C85.1109 21.2011 84.4734 21.0104 83.7669 21.0104C83.1983 21.0104 82.7503 21.1404 82.4229 21.4005C82.0955 21.6606 81.9318 21.9987 81.9318 22.4148C81.9318 22.6749 82.0007 22.9003 82.1386 23.091C82.2764 23.2818 82.466 23.4378 82.7072 23.5592C82.9656 23.6805 83.2586 23.7932 83.586 23.8973L85.8346 24.5735C86.9891 24.9202 87.8765 25.4404 88.4968 26.1339C89.1343 26.8275 89.4531 27.6771 89.4531 28.6827C89.4531 29.5323 89.2291 30.2865 88.7811 30.9454C88.3331 31.5869 87.7128 32.0897 86.9202 32.4538C86.1275 32.8179 85.1971 33 84.1287 33Z" fill="#030F40"></path><path d="M98.465 32.844C96.8798 32.844 95.6477 32.4105 94.769 31.5436C93.9074 30.6593 93.4767 29.4196 93.4767 27.8244V21.5826H91.0471V18.5397H91.3055C91.9948 18.5397 92.5289 18.3576 92.908 17.9935C93.2871 17.6294 93.4767 17.1006 93.4767 16.407V15.3147H96.8625V18.5397H100.093V21.5826H96.8625V27.6424C96.8625 28.1105 96.9401 28.5093 97.0951 28.8388C97.2675 29.1682 97.5259 29.4196 97.8705 29.593C98.2324 29.7664 98.689 29.8531 99.2404 29.8531C99.361 29.8531 99.4989 29.8444 99.6539 29.827C99.8262 29.8097 99.9899 29.7924 100.145 29.775V32.6879C99.9038 32.7226 99.6281 32.7573 99.3179 32.7919C99.0078 32.8266 98.7235 32.844 98.465 32.844Z" fill="#030F40"></path><path d="M109.274 33C107.827 33 106.56 32.6706 105.475 32.0117C104.389 31.3528 103.545 30.4599 102.942 29.3329C102.339 28.2059 102.037 26.9575 102.037 25.5878C102.037 24.166 102.339 22.909 102.942 21.8166C103.562 20.707 104.398 19.8314 105.449 19.1899C106.517 18.5483 107.706 18.2276 109.016 18.2276C110.118 18.2276 111.083 18.4096 111.91 18.7737C112.755 19.1378 113.47 19.6407 114.056 20.2822C114.641 20.9237 115.089 21.6606 115.4 22.4928C115.71 23.3078 115.865 24.192 115.865 25.1456C115.865 25.3884 115.848 25.6398 115.813 25.8999C115.796 26.1599 115.753 26.3853 115.684 26.5761H104.828V23.9753H113.771L112.169 25.1977C112.324 24.4001 112.281 23.6892 112.04 23.065C111.816 22.4408 111.437 21.9467 110.902 21.5826C110.385 21.2185 109.757 21.0364 109.016 21.0364C108.309 21.0364 107.68 21.2185 107.129 21.5826C106.577 21.9293 106.155 22.4495 105.862 23.143C105.587 23.8192 105.483 24.6428 105.552 25.6138C105.483 26.4807 105.595 27.2523 105.888 27.9285C106.198 28.5873 106.646 29.0988 107.232 29.4629C107.835 29.827 108.524 30.0091 109.3 30.0091C110.075 30.0091 110.73 29.8444 111.264 29.515C111.816 29.1855 112.246 28.7434 112.557 28.1886L115.296 29.541C115.021 30.2172 114.59 30.8153 114.004 31.3355C113.418 31.8557 112.72 32.2631 111.91 32.5579C111.118 32.8526 110.239 33 109.274 33Z" fill="#030F40"></path><path d="M118.432 32.6879V18.5397H121.611V21.6866L121.352 21.2185C121.68 20.1608 122.188 19.4239 122.877 19.0078C123.584 18.5917 124.428 18.3836 125.41 18.3836H126.237V21.4005H125.022C124.057 21.4005 123.282 21.7039 122.696 22.3108C122.11 22.9003 121.817 23.7326 121.817 24.8075V32.6879H118.432Z" fill="#030F40"></path><path d="M128.383 32.6879V13.3121H131.898V29.567H140.143V32.6879H128.383Z" fill="#030F40"></path><path d="M142.132 32.6879V18.5397H145.518V32.6879H142.132ZM142.132 16.9532V13.3121H145.518V16.9532H142.132Z" fill="#030F40"></path><path d="M150.273 32.6879V21.5826H147.792V18.5397H150.273V18.0715C150.273 16.9965 150.488 16.0863 150.919 15.3407C151.367 14.5778 151.987 13.997 152.78 13.5982C153.573 13.1994 154.512 13 155.597 13C155.804 13 156.028 13.0173 156.269 13.052C156.528 13.0694 156.743 13.0954 156.915 13.13V16.0689C156.743 16.0342 156.579 16.0169 156.424 16.0169C156.286 15.9996 156.157 15.9909 156.037 15.9909C155.278 15.9909 154.693 16.1643 154.279 16.5111C153.866 16.8405 153.659 17.3606 153.659 18.0715V18.5397H156.786V21.5826H153.659V32.6879H150.273Z" fill="#030F40"></path><path d="M165.409 33C163.962 33 162.695 32.6706 161.61 32.0117C160.524 31.3528 159.68 30.4599 159.077 29.3329C158.474 28.2059 158.172 26.9575 158.172 25.5878C158.172 24.166 158.474 22.909 159.077 21.8166C159.697 20.707 160.533 19.8314 161.584 19.1899C162.652 18.5483 163.841 18.2276 165.151 18.2276C166.253 18.2276 167.218 18.4096 168.046 18.7737C168.89 19.1378 169.605 19.6407 170.191 20.2822C170.777 20.9237 171.225 21.6606 171.535 22.4928C171.845 23.3078 172 24.192 172 25.1456C172 25.3884 171.983 25.6398 171.948 25.8999C171.931 26.1599 171.888 26.3853 171.819 26.5761H160.964V23.9753H169.906L168.304 25.1977C168.459 24.4001 168.416 23.6892 168.175 23.065C167.951 22.4408 167.572 21.9467 167.037 21.5826C166.521 21.2185 165.892 21.0364 165.151 21.0364C164.444 21.0364 163.815 21.2185 163.264 21.5826C162.713 21.9293 162.29 22.4495 161.997 23.143C161.722 23.8192 161.618 24.6428 161.687 25.6138C161.618 26.4807 161.73 27.2523 162.023 27.9285C162.333 28.5873 162.781 29.0988 163.367 29.4629C163.97 29.827 164.66 30.0091 165.435 30.0091C166.21 30.0091 166.865 29.8444 167.399 29.515C167.951 29.1855 168.382 28.7434 168.692 28.1886L171.431 29.541C171.156 30.2172 170.725 30.8153 170.139 31.3355C169.553 31.8557 168.855 32.2631 168.046 32.5579C167.253 32.8526 166.374 33 165.409 33Z" fill="#030F40"></path><path fill-rule="evenodd" clip-rule="evenodd" d="M18.0027 0L0 12.0316L6.52596 15.2774C9.39514 12.4234 13.3332 10.6326 17.7214 10.6326C22.1095 10.6326 26.1038 12.4234 28.973 15.3333L35.4427 12.0316L18.0027 0Z" fill="#543CDF"></path><path d="M31.4303 26.3334C31.4303 33.8774 25.2887 40 17.7214 40C12.7313 40 8.39926 37.376 5.98648 33.44C6.09616 33.44 6.26066 33.44 6.37033 33.44C6.91869 33.44 7.46705 33.276 7.96058 32.948C9.00246 32.3467 9.98951 31.308 10.9766 29.832C12.3474 27.7547 13.4442 25.4587 14.2119 22.9987C14.4312 23.436 14.5409 23.8187 14.5409 24.2014C14.5409 24.584 14.5957 24.8574 14.5957 25.076C14.5957 26.716 14.157 28.4107 13.3893 30.2147C13.2248 30.3787 13.0055 30.5974 12.841 30.816C12.1829 31.5814 11.8539 32.128 11.8539 32.5107C11.8539 32.784 12.1281 33.0574 12.6765 33.3307C13.2248 33.604 13.7732 33.768 14.2667 33.768C14.3215 33.768 14.4312 33.7134 14.5957 33.5494C14.7602 33.44 14.9247 33.112 15.1441 32.7294C15.5279 32.0187 15.7473 31.3627 15.8021 30.7614C16.7343 29.5587 18.1601 27.9187 20.189 25.9507L21.7792 24.3654C21.3954 25.5134 20.9567 26.6614 20.518 27.8094C19.4213 30.5974 18.5439 32.2374 17.9407 32.7294C18.0504 32.8934 18.2149 33.0574 18.3794 33.1667C18.8729 33.4947 19.4761 33.6587 20.1341 33.6587C20.5728 33.6587 21.0115 33.5494 21.3954 33.3854C22.2728 33.0027 22.7114 32.292 22.7114 31.2534C22.7114 28.356 22.9856 25.4587 23.534 22.5614C23.7533 22.3427 23.9178 22.0694 24.0823 21.8507C24.192 21.7414 24.2468 21.632 24.3017 21.5227C24.3565 21.4134 24.4114 21.304 24.4114 21.1947C24.4114 21.0854 24.3565 20.976 24.3017 20.8667C24.2468 20.7574 24.0823 20.7027 23.863 20.7027C23.6436 20.7027 23.3695 20.8667 23.0953 21.2494C22.9308 21.468 22.6566 21.96 22.3824 22.6707C22.0534 22.944 21.7244 23.2174 21.3954 23.4907C18.7633 25.6227 17.0085 27.208 16.1311 28.2467C16.2408 27.372 16.2956 26.6067 16.2956 25.896C16.2956 23.5454 15.6924 22.0694 14.4312 21.3587C13.8829 21.0854 13.2248 20.9214 12.4023 20.9214C11.5797 20.9214 10.7572 21.14 9.93467 21.5227C9.55082 21.6867 9.16697 21.96 8.78311 22.1787C8.39926 22.452 8.12508 22.7254 7.8509 23.0534C7.57672 23.3814 7.35738 23.7094 7.19287 24.092C7.02837 24.4747 6.97353 24.8574 6.97353 25.2947C6.97353 25.732 7.13804 26.1147 7.41222 26.4427C7.52189 26.6067 7.6864 26.716 7.8509 26.7707C8.01541 26.8254 8.12508 26.88 8.28959 26.88C8.39926 26.88 8.56377 26.88 8.67344 26.8254C9.11213 26.6067 9.44115 26.388 9.66049 26.1147C9.11213 25.568 8.83795 25.0214 8.83795 24.4747C8.83795 23.7094 9.2218 23.108 9.93467 22.5614C10.6475 22.0694 11.4152 21.796 12.3474 21.796C13.0055 21.796 13.499 22.0147 13.8829 22.3974C13.6635 22.8894 13.4442 23.3814 13.2248 23.928C12.2926 25.896 11.3604 27.4267 10.4282 28.4654C9.33147 29.668 8.28959 30.2147 7.19287 30.2147C6.48001 30.2147 5.7123 29.9414 4.99944 29.4494C4.83493 29.5587 4.67042 29.7227 4.56075 29.8867C4.1769 28.7934 4.01239 27.5907 4.01239 26.3334C4.01239 22.3974 5.7123 18.844 8.39926 16.3294C10.8669 14.0334 14.157 12.6667 17.7214 12.6667C21.3954 12.6667 24.6855 14.088 27.1531 16.4387C29.7853 18.8987 31.4303 22.452 31.4303 26.3334Z" fill="#FFC119"></path></g><defs><clipPath id="clip0_612_22767"><rect width="172" height="40" fill="white"></rect></clipPath></defs></svg>