<svg xmlns="http://www.w3.org/2000/svg" xmlns:xlink="http://www.w3.org/1999/xlink" width="691" height="535" viewBox="0 0 691 535" fill="none"><path d="M415.453 30C415.453 13.4315 428.885 0 445.453 0H661C677.569 0 691 13.4315 691 30V397C691 413.569 677.569 427 661 427H512.847C496.278 427 482.847 440.431 482.847 457V505C482.847 521.569 469.415 535 452.847 535H100.664H0.5V535C0.223858 535 0 534.776 0 534.5V427V113C0 96.4315 13.4315 83 30 83H385.453C402.022 83 415.453 69.5685 415.453 53V30Z" fill="#000"></path><path d="M415.453 30C415.453 13.4315 428.885 0 445.453 0H661C677.569 0 691 13.4315 691 30V397C691 413.569 677.569 427 661 427H512.847C496.278 427 482.847 440.431 482.847 457V505C482.847 521.569 469.415 535 452.847 535H100.664H0.5V535C0.223858 535 0 534.776 0 534.5V427V113C0 96.4315 13.4315 83 30 83H385.453C402.022 83 415.453 69.5685 415.453 53V30Z" fill="#000"></path><rect x="502" y="451" width="189" height="84" rx="20" fill="#D9D9D9"></rect><rect x="502" y="451" width="189" height="84" rx="20" fill="#000"></rect></svg>