<svg xmlns="http://www.w3.org/2000/svg" width="1065" height="363" viewBox="0 0 1065 363" fill="none"><path d="M224.239 58.9438C240.498 58.9438 253.678 45.7488 253.678 29.4719C253.678 13.195 240.498 0 224.239 0C207.981 0 194.801 13.195 194.801 29.4719C194.801 45.7488 207.981 58.9438 224.239 58.9438Z" fill="#49BC95"></path><path d="M266.225 104.161L223.699 129.658L202.076 65.5463C197.656 52.4386 179.962 50.4608 172.762 62.2706L25.3869 312.791L18.8715 303.936C17.3981 301.93 14.2553 302.548 13.6429 304.961L0.100386 358.364C-0.674569 361.415 3.2289 363.397 5.22848 360.965L113.497 229.442L132.13 206.805L124.638 228.614L163.606 225.721L137.683 269.79L131.168 260.935C129.695 258.929 126.552 259.547 125.94 261.96L112.397 315.363C111.622 318.414 115.526 320.396 117.525 317.964L188.763 231.032L212.074 202.772C217.834 196.384 212.868 186.221 204.291 186.858L144.921 191.269L187.127 140.002L178.082 114.625L192.313 133.704L211.787 159.814C214.82 163.909 220.766 164.378 224.402 160.81L268.746 107.096C270.153 105.391 268.115 103.021 266.225 104.156V104.161Z" fill="#49BC95"></path><path d="M135.548 49.8514L117.763 65.8421L102.364 71.7614L87.1088 101.554L93.8634 75.0275L80.2443 80.262L68.7348 124.609C67.1657 130.662 67.8067 137.079 70.5526 142.697C73.5663 148.865 78.8857 153.602 85.3532 155.886L101.044 161.417L165.791 53.8167C166.972 51.8532 165.561 49.3438 163.265 49.3438H136.849C136.366 49.3438 135.897 49.5209 135.539 49.8466L135.548 49.8514Z" fill="#F58231"></path><path d="M323.57 225.442V104.758H346.647L397.966 189.927H385.739L436.197 104.758H459.101L459.446 225.442H433.269L433.097 144.928H437.919L397.621 212.684H385.05L343.891 144.928H349.747V225.442H323.57Z" fill="#49BC95"></path><path d="M515.603 225.442V176.134L521.975 193.03L468.934 104.758H498.554L539.196 172.514H522.147L562.961 104.758H590.343L537.302 193.03L543.501 176.134V225.442H515.603Z" fill="#49BC95"></path><path d="M601.375 225.442V104.758H653.555C664.347 104.758 673.647 106.511 681.454 110.016C689.261 113.522 695.288 118.55 699.536 125.102C703.784 131.653 705.908 139.469 705.908 148.549C705.908 157.629 703.784 165.272 699.536 171.824C695.288 178.375 689.261 183.404 681.454 186.909C673.647 190.415 664.347 192.168 653.555 192.168H616.874L629.273 179.582V225.442H601.375ZM629.273 182.685L616.874 169.41H652.005C660.616 169.41 667.045 167.571 671.293 163.893C675.541 160.215 677.665 155.1 677.665 148.549C677.665 141.998 675.541 136.71 671.293 133.032C667.045 129.354 660.616 127.515 652.005 127.515H616.874L629.273 114.24V182.685Z" fill="#F58231"></path><path d="M692.461 225.442L746.191 104.758H773.745L827.647 225.442H798.371L754.285 118.895H765.307L721.048 225.442H692.461ZM719.326 199.581L726.731 178.375H788.727L796.305 199.581H719.326Z" fill="#F58231"></path><path d="M841.852 225.442V104.758H869.75V202.685H930.196V225.442H841.852Z" fill="#F58231"></path><path d="M999.204 227.514C989.675 227.514 980.863 225.962 972.769 222.859C964.675 219.755 957.672 215.388 951.759 209.756C945.847 204.124 941.254 197.515 937.982 189.929C934.71 182.343 933.074 174.068 933.074 165.102C933.074 156.137 934.71 147.862 937.982 140.276C941.254 132.69 945.875 126.081 951.845 120.449C957.815 114.817 964.819 110.45 972.855 107.346C980.892 104.243 989.617 102.691 999.031 102.691C1008.45 102.691 1017.31 104.243 1025.29 107.346C1033.27 110.45 1040.22 114.817 1046.13 120.449C1052.04 126.081 1056.67 132.661 1059.99 140.19C1063.32 147.718 1064.99 156.022 1064.99 165.102C1064.99 174.183 1063.32 182.372 1059.99 190.015C1056.67 197.659 1052.04 204.267 1046.13 209.842C1040.22 215.416 1033.27 219.755 1025.29 222.859C1017.31 225.962 1008.62 227.514 999.204 227.514ZM999.031 203.722C1004.43 203.722 1009.39 202.802 1013.93 200.963C1018.46 199.124 1022.45 196.48 1025.9 193.032C1029.34 189.584 1032.01 185.504 1033.9 180.791C1035.8 176.079 1036.75 170.849 1036.75 165.102C1036.75 159.356 1035.8 154.126 1033.9 149.414C1032.01 144.701 1029.37 140.621 1025.98 137.173C1022.6 133.725 1018.61 131.081 1014.01 129.242C1009.42 127.403 1004.43 126.483 999.031 126.483C993.635 126.483 988.67 127.403 984.135 129.242C979.6 131.081 975.611 133.725 972.166 137.173C968.722 140.621 966.053 144.701 964.159 149.414C962.264 154.126 961.317 159.356 961.317 165.102C961.317 170.849 962.264 175.935 964.159 180.705C966.053 185.475 968.693 189.584 972.08 193.032C975.467 196.48 979.457 199.124 984.049 200.963C988.641 202.802 993.635 203.722 999.031 203.722Z" fill="#F58231"></path></svg>