<svg xmlns="http://www.w3.org/2000/svg" width="533" height="490" viewBox="0 0 533 490" fill="none"><path d="M0 488.229V401.57H16.5892L53.4798 462.727H44.6903L80.9635 401.57H97.4276L97.6751 488.229H78.8586L78.7335 430.414H82.2009L53.2323 479.066H44.1953L14.6067 430.414H18.8165V488.229H0Z" fill="#49BC95"></path><path d="M138.043 488.229V452.823L142.623 464.955L104.492 401.57H125.786L155.002 450.223H142.745L172.086 401.57H191.77L153.64 464.955L158.097 452.823V488.229H138.043Z" fill="#49BC95"></path><path d="M199.711 488.229V401.57H237.222C244.978 401.57 251.662 402.829 257.276 405.345C262.886 407.863 267.221 411.472 270.275 416.177C273.326 420.882 274.855 426.495 274.855 433.014C274.855 439.532 273.326 445.023 270.275 449.725C267.221 454.43 262.889 458.042 257.276 460.557C251.662 463.076 244.978 464.332 237.222 464.332H210.853L219.768 455.295V488.226H199.714L199.711 488.229ZM219.765 457.528L210.85 447.996H236.104C242.294 447.996 246.914 446.677 249.968 444.033C253.019 441.393 254.548 437.718 254.548 433.016C254.548 428.314 253.019 424.518 249.968 421.874C246.914 419.234 242.294 417.912 236.104 417.912H210.85L219.765 408.38V457.528Z" fill="#F58231"></path><path d="M265.181 488.229L303.807 401.57H323.613L362.361 488.229H341.315L309.621 411.722H317.543L285.727 488.229H265.176H265.181ZM284.495 469.66L289.818 454.433H334.385L339.833 469.66H284.495Z" fill="#F58231"></path><path d="M372.578 488.229V401.57H392.635V471.887H436.088V488.229H372.578Z" fill="#F58231"></path><path d="M485.685 489.713C478.834 489.713 472.501 488.598 466.681 486.37C460.864 484.143 455.827 481.007 451.576 476.961C447.326 472.917 444.024 468.171 441.672 462.724C439.319 457.277 438.145 451.335 438.145 444.897C438.145 438.46 439.319 432.518 441.672 427.071C444.024 421.624 447.345 416.878 451.636 412.834C455.928 408.79 460.962 405.654 466.741 403.424C472.517 401.197 478.791 400.082 485.557 400.082C492.323 400.082 498.698 401.197 504.436 403.424C510.172 405.652 515.165 408.79 519.415 412.834C523.666 416.878 526.987 421.605 529.38 427.008C531.773 432.415 532.97 438.379 532.97 444.897C532.97 451.416 531.773 457.299 529.38 462.787C526.984 468.277 523.663 473.02 519.415 477.023C515.165 481.027 510.172 484.143 504.436 486.37C498.698 488.598 492.448 489.713 485.679 489.713H485.685ZM485.562 472.629C489.441 472.629 493.009 471.968 496.272 470.649C499.53 469.33 502.399 467.429 504.877 464.954C507.351 462.479 509.271 459.55 510.634 456.164C511.996 452.781 512.676 449.026 512.676 444.9C512.676 440.775 511.996 437.019 510.634 433.636C509.271 430.253 507.373 427.321 504.939 424.846C502.505 422.371 499.636 420.473 496.335 419.151C493.033 417.832 489.443 417.172 485.565 417.172C481.687 417.172 478.116 417.832 474.856 419.151C471.595 420.473 468.729 422.371 466.251 424.846C463.776 427.321 461.856 430.253 460.494 433.636C459.131 437.022 458.451 440.775 458.451 444.9C458.451 449.026 459.131 452.681 460.494 456.105C461.856 459.531 463.752 462.479 466.188 464.957C468.622 467.432 471.492 469.332 474.793 470.651C478.092 471.973 481.684 472.631 485.562 472.631V472.629Z" fill="#F58231"></path><path d="M355.3 58.171C371.364 58.171 384.386 45.149 384.386 29.0855C384.386 13.022 371.364 0 355.3 0C339.237 0 326.215 13.022 326.215 29.0855C326.215 45.149 339.237 58.171 355.3 58.171Z" fill="#49BC95"></path><path d="M396.777 102.79L354.76 127.952L333.395 64.6814C329.027 51.7473 311.546 49.7946 304.432 61.4479L158.838 308.676L152.404 299.936C150.946 297.956 147.843 298.562 147.24 300.944L133.857 353.646C133.093 356.66 136.946 358.612 138.923 356.214L245.891 226.424L264.302 204.085L256.902 225.608L295.4 222.752L269.788 266.243L263.353 257.502C261.896 255.523 258.793 256.129 258.189 258.511L244.806 311.213C244.042 314.227 247.895 316.179 249.872 313.781L320.251 227.993L343.281 200.104C348.973 193.797 344.064 183.773 335.592 184.401L276.937 188.752L318.633 138.161L309.697 113.119L323.757 131.947L342.998 157.714C345.992 161.756 351.866 162.218 355.459 158.699L399.268 105.689C400.658 104.009 398.645 101.667 396.774 102.788L396.777 102.79Z" fill="#49BC95"></path><path d="M267.68 49.1984L250.109 64.9799L234.896 70.8215L219.824 100.223L226.501 74.0469L213.047 79.214L201.674 122.974C200.121 128.949 200.76 135.28 203.472 140.823C206.45 146.912 211.704 151.587 218.095 153.836L233.596 159.294L297.565 53.1091C298.735 51.1701 297.337 48.6953 295.072 48.6953H268.975C268.496 48.6953 268.034 48.8721 267.678 49.193L267.68 49.1984Z" fill="#F58231"></path></svg>