<svg xmlns="http://www.w3.org/2000/svg" width="36" height="36" viewBox="0 0 36 36" fill="none"><g clip-path="url(#clip0_1253_558)"><path d="M32.4671 7.83749L27.4493 7.67345L32.3014 2.82142L32.4671 7.83749ZM1.38649 17.6313H0.00512695C0.0752124 14.2319 1.10687 10.9218 2.98062 8.08446C4.85437 5.24713 7.49355 2.99865 10.5925 1.59941C13.6915 0.20018 17.1234 -0.292558 20.4908 0.17827C23.8583 0.649097 27.0234 2.06423 29.6198 4.25976L28.6338 5.24571C26.229 3.25549 23.3129 1.98165 20.2187 1.56965C17.1244 1.15765 13.9766 1.62409 11.1348 2.91572C8.29295 4.20734 5.87161 6.27209 4.14726 8.87418C2.4229 11.4763 1.46504 14.5108 1.38304 17.6313H1.38649Z" fill="white"></path><path d="M3.53198 28.0999L8.54977 28.2656L3.69775 33.1177L3.53198 28.0999ZM30.7275 30.759C27.5184 33.9426 23.2325 35.8077 18.7157 35.9864C14.1988 36.1651 9.779 34.6443 6.32837 31.7242L7.30482 30.7469C9.69613 32.7572 12.6056 34.053 15.6996 34.4855C18.7935 34.9181 21.9468 34.47 24.7978 33.1926C27.6487 31.9152 30.082 29.8602 31.8185 27.2632C33.5551 24.6663 34.5247 21.6325 34.6161 18.5098H35.9974C35.8918 23.1202 34.0042 27.5105 30.731 30.759H30.7275Z" fill="white"></path></g><defs><clipPath id="clip0_1253_558"><rect width="35.9991" height="36" fill="white"></rect></clipPath></defs></svg>