<svg xmlns="http://www.w3.org/2000/svg" width="36" height="36" viewBox="0 0 36 36" fill="none"><path d="M31.4992 17.9177C31.5126 19.7068 31.1691 21.4806 30.4889 23.1353C29.8086 24.7901 28.8052 26.2926 27.5374 27.555C22.3419 32.7413 13.8537 32.7996 8.59102 27.6815C6.65952 25.8044 5.33366 23.3924 4.78394 20.7558C4.23421 18.1191 4.48575 15.3783 5.50622 12.8858C6.52668 10.3932 8.2694 8.2629 10.5103 6.76874C12.7512 5.27458 15.3878 4.48489 18.0811 4.50122C18.2498 4.50157 18.4162 4.53977 18.5682 4.61301C18.7201 4.68625 18.8537 4.79266 18.959 4.9244C19.0643 5.05614 19.1388 5.20985 19.1768 5.37418C19.2148 5.53851 19.2154 5.70928 19.1786 5.87389C19.0311 6.52824 19.0316 7.2073 19.1804 7.86139C19.3291 8.51547 19.6222 9.12802 20.0382 9.6542C20.4543 10.1804 20.9827 10.6069 21.5848 10.9025C22.187 11.1981 22.8476 11.3553 23.5183 11.3626C23.8145 11.3651 24.0978 11.4838 24.3072 11.6932C24.5166 11.9027 24.6354 12.186 24.6378 12.4821C24.6451 13.1529 24.8024 13.8135 25.0979 14.4156C25.3935 15.0177 25.82 15.5461 26.3462 15.9622C26.8724 16.3782 27.4849 16.6713 28.139 16.82C28.7931 16.9688 29.4721 16.9694 30.1265 16.8218C30.2909 16.785 30.4616 16.7855 30.6258 16.8234C30.7901 16.8613 30.9437 16.9356 31.0755 17.0408C31.2072 17.1459 31.3137 17.2793 31.387 17.4311C31.4603 17.5828 31.4987 17.7491 31.4992 17.9177V17.9177Z" stroke="white" stroke-width="2" stroke-linecap="round" stroke-linejoin="round"></path><path d="M21.9375 25.875C22.8695 25.875 23.625 25.1195 23.625 24.1875C23.625 23.2555 22.8695 22.5 21.9375 22.5C21.0055 22.5 20.25 23.2555 20.25 24.1875C20.25 25.1195 21.0055 25.875 21.9375 25.875Z" fill="white"></path><path d="M12.9375 24.75C13.8695 24.75 14.625 23.9945 14.625 23.0625C14.625 22.1305 13.8695 21.375 12.9375 21.375C12.0055 21.375 11.25 22.1305 11.25 23.0625C11.25 23.9945 12.0055 24.75 12.9375 24.75Z" fill="white"></path><path d="M11.8125 16.875C12.7445 16.875 13.5 16.1195 13.5 15.1875C13.5 14.2555 12.7445 13.5 11.8125 13.5C10.8805 13.5 10.125 14.2555 10.125 15.1875C10.125 16.1195 10.8805 16.875 11.8125 16.875Z" fill="white"></path><path d="M19.125 19.125C20.057 19.125 20.8125 18.3695 20.8125 17.4375C20.8125 16.5055 20.057 15.75 19.125 15.75C18.193 15.75 17.4375 16.5055 17.4375 17.4375C17.4375 18.3695 18.193 19.125 19.125 19.125Z" fill="white"></path></svg>