<svg xmlns="http://www.w3.org/2000/svg" width="37" height="36" viewBox="0 0 37 36" fill="none"><path d="M18.5001 15.1875L18.5001 30.375" stroke="white" stroke-width="2" stroke-linecap="round" stroke-linejoin="round"></path><path d="M18.5001 5.625L18.5001 9.5625" stroke="white" stroke-width="2" stroke-linecap="round" stroke-linejoin="round"></path><path d="M18.5001 15.1875C20.0534 15.1875 21.3126 13.9283 21.3126 12.375C21.3126 10.8217 20.0534 9.5625 18.5001 9.5625C16.9468 9.5625 15.6876 10.8217 15.6876 12.375C15.6876 13.9283 16.9468 15.1875 18.5001 15.1875Z" stroke="white" stroke-width="2" stroke-linecap="round" stroke-linejoin="round"></path><path d="M28.6251 26.4375L28.6252 30.375" stroke="white" stroke-width="2" stroke-linecap="round" stroke-linejoin="round"></path><path d="M28.6252 5.625L28.6251 20.8125" stroke="white" stroke-width="2" stroke-linecap="round" stroke-linejoin="round"></path><path d="M28.6251 26.4375C30.1784 26.4375 31.4376 25.1783 31.4376 23.625C31.4376 22.0717 30.1784 20.8125 28.6251 20.8125C27.0718 20.8125 25.8126 22.0717 25.8126 23.625C25.8126 25.1783 27.0718 26.4375 28.6251 26.4375Z" stroke="white" stroke-width="2" stroke-linecap="round" stroke-linejoin="round"></path><path d="M8.37507 21.9375L8.375 30.375" stroke="white" stroke-width="2" stroke-linecap="round" stroke-linejoin="round"></path><path d="M8.375 5.625L8.37507 16.3125" stroke="white" stroke-width="2" stroke-linecap="round" stroke-linejoin="round"></path><path d="M8.37512 21.9375C9.92842 21.9375 11.1876 20.6783 11.1876 19.125C11.1876 17.5717 9.92842 16.3125 8.37512 16.3125C6.82182 16.3125 5.56262 17.5717 5.56262 19.125C5.56262 20.6783 6.82182 21.9375 8.37512 21.9375Z" stroke="white" stroke-width="2" stroke-linecap="round" stroke-linejoin="round"></path></svg>