<svg width="24" height="24" viewBox="0 0 24 24" fill="none" xmlns="http://www.w3.org/2000/svg">
<path d="M14.8803 15.3289L12.7048 21.3116C12.6522 21.4563 12.5563 21.5813 12.4302 21.6696C12.3041 21.7579 12.1539 21.8053 12 21.8053C11.846 21.8053 11.6958 21.7579 11.5697 21.6696C11.4436 21.5813 11.3477 21.4563 11.2951 21.3116L9.11956 15.3289C9.08211 15.2259 9.02254 15.1323 8.94505 15.0549C8.86755 14.9774 8.77402 14.9178 8.67102 14.8803L2.68827 12.7048C2.54359 12.6522 2.4186 12.5563 2.33028 12.4302C2.24196 12.3041 2.19458 12.1539 2.19458 12C2.19458 11.846 2.24196 11.6958 2.33028 11.5697C2.4186 11.4436 2.54359 11.3477 2.68827 11.2951L8.67102 9.11956C8.77402 9.08211 8.86755 9.02254 8.94505 8.94505C9.02254 8.86755 9.08211 8.77402 9.11956 8.67102L11.2951 2.68827C11.3477 2.54359 11.4436 2.4186 11.5697 2.33028C11.6958 2.24196 11.846 2.19458 12 2.19458C12.1539 2.19458 12.3041 2.24196 12.4302 2.33028C12.5563 2.4186 12.6522 2.54359 12.7048 2.68827L14.8803 8.67102C14.9178 8.77402 14.9774 8.86755 15.0549 8.94505C15.1323 9.02254 15.2259 9.08211 15.3289 9.11956L21.3116 11.2951C21.4563 11.3477 21.5813 11.4436 21.6696 11.5697C21.7579 11.6958 21.8053 11.846 21.8053 12C21.8053 12.1539 21.7579 12.3041 21.6696 12.4302C21.5813 12.5563 21.4563 12.6522 21.3116 12.7048L15.3289 14.8803C15.2259 14.9178 15.1323 14.9774 15.0549 15.0549C14.9774 15.1323 14.9178 15.2259 14.8803 15.3289Z" stroke="white" stroke-width="2" stroke-linecap="round" stroke-linejoin="round"/>
</svg>
