<svg xmlns="http://www.w3.org/2000/svg" width="116" height="16" viewBox="0 0 116 16" fill="none"><path d="M14.9479 6.08838C14.8855 5.89239 14.7654 5.71977 14.6034 5.59303C14.4414 5.4663 14.2449 5.39134 14.0397 5.37793L10.3278 5.11817L8.95081 1.65088C8.8763 1.45919 8.74561 1.29448 8.57588 1.17834C8.40616 1.0622 8.2053 1.00004 7.99964 1H7.99866C7.79332 1.00037 7.59287 1.06269 7.42351 1.17881C7.25416 1.29494 7.12379 1.45947 7.04944 1.65088L5.65198 5.13818L1.96058 5.37793C1.75532 5.39134 1.55887 5.4663 1.39686 5.59303C1.23485 5.71977 1.1148 5.89239 1.05237 6.08838C0.986517 6.28715 0.982037 6.50115 1.03952 6.7025C1.097 6.90385 1.21377 7.08324 1.37464 7.21729L4.21448 9.61768L3.36976 12.9404C3.31153 13.1643 3.32224 13.4004 3.40048 13.6181C3.47871 13.8357 3.62083 14.0246 3.80823 14.1602C3.98916 14.2918 4.20553 14.3659 4.42917 14.3729C4.65281 14.3798 4.87337 14.3193 5.06214 14.1992L7.99183 12.3433C7.99573 12.3403 7.99964 12.3384 8.00843 12.3433L11.1608 14.3403C11.3319 14.4497 11.5321 14.5048 11.7351 14.4985C11.938 14.4923 12.1344 14.4249 12.2985 14.3052C12.4683 14.1824 12.5971 14.0113 12.668 13.8141C12.7389 13.617 12.7486 13.403 12.6959 13.2002L11.7985 9.57031L14.6256 7.21729C14.7865 7.08324 14.9033 6.90385 14.9607 6.7025C15.0182 6.50115 15.0137 6.28715 14.9479 6.08838Z" fill="#543CDF"></path><path d="M39.9479 6.08838C39.8855 5.89239 39.7654 5.71977 39.6034 5.59303C39.4414 5.4663 39.2449 5.39134 39.0397 5.37793L35.3278 5.11817L33.9508 1.65088C33.8763 1.45919 33.7456 1.29448 33.5759 1.17834C33.4062 1.0622 33.2053 1.00004 32.9996 1H32.9987C32.7933 1.00037 32.5929 1.06269 32.4235 1.17881C32.2542 1.29494 32.1238 1.45947 32.0494 1.65088L30.652 5.13818L26.9606 5.37793C26.7553 5.39134 26.5589 5.4663 26.3969 5.59303C26.2349 5.71977 26.1148 5.89239 26.0524 6.08838C25.9865 6.28715 25.982 6.50115 26.0395 6.7025C26.097 6.90385 26.2138 7.08324 26.3746 7.21729L29.2145 9.61768L28.3698 12.9404C28.3115 13.1643 28.3222 13.4004 28.4005 13.6181C28.4787 13.8357 28.6208 14.0246 28.8082 14.1602C28.9892 14.2918 29.2055 14.3659 29.4292 14.3729C29.6528 14.3798 29.8734 14.3193 30.0621 14.1992L32.9918 12.3433C32.9957 12.3403 32.9996 12.3384 33.0084 12.3433L36.1608 14.3403C36.3319 14.4497 36.5321 14.5048 36.7351 14.4985C36.938 14.4923 37.1344 14.4249 37.2985 14.3052C37.4683 14.1824 37.5971 14.0113 37.668 13.8141C37.7389 13.617 37.7486 13.403 37.6959 13.2002L36.7985 9.57031L39.6256 7.21729C39.7865 7.08324 39.9033 6.90385 39.9607 6.7025C40.0182 6.50115 40.0137 6.28715 39.9479 6.08838Z" fill="#543CDF"></path><path d="M64.9479 6.08838C64.8855 5.89239 64.7654 5.71977 64.6034 5.59303C64.4414 5.4663 64.2449 5.39134 64.0397 5.37793L60.3278 5.11817L58.9508 1.65088C58.8763 1.45919 58.7456 1.29448 58.5759 1.17834C58.4062 1.0622 58.2053 1.00004 57.9996 1H57.9987C57.7933 1.00037 57.5929 1.06269 57.4235 1.17881C57.2542 1.29494 57.1238 1.45947 57.0494 1.65088L55.652 5.13818L51.9606 5.37793C51.7553 5.39134 51.5589 5.4663 51.3969 5.59303C51.2349 5.71977 51.1148 5.89239 51.0524 6.08838C50.9865 6.28715 50.982 6.50115 51.0395 6.7025C51.097 6.90385 51.2138 7.08324 51.3746 7.21729L54.2145 9.61768L53.3698 12.9404C53.3115 13.1643 53.3222 13.4004 53.4005 13.6181C53.4787 13.8357 53.6208 14.0246 53.8082 14.1602C53.9892 14.2918 54.2055 14.3659 54.4292 14.3729C54.6528 14.3798 54.8734 14.3193 55.0621 14.1992L57.9918 12.3433C57.9957 12.3403 57.9996 12.3384 58.0084 12.3433L61.1608 14.3403C61.3319 14.4497 61.5321 14.5048 61.7351 14.4985C61.938 14.4923 62.1344 14.4249 62.2985 14.3052C62.4683 14.1824 62.5971 14.0113 62.668 13.8141C62.7389 13.617 62.7486 13.403 62.6959 13.2002L61.7985 9.57031L64.6256 7.21729C64.7865 7.08324 64.9033 6.90385 64.9607 6.7025C65.0182 6.50115 65.0137 6.28715 64.9479 6.08838Z" fill="#543CDF"></path><path d="M89.9479 6.08838C89.8854 5.89239 89.7654 5.71977 89.6034 5.59303C89.4414 5.4663 89.2449 5.39134 89.0397 5.37793L85.3278 5.11817L83.9508 1.65088C83.8763 1.45919 83.7456 1.29448 83.5759 1.17834C83.4061 1.0622 83.2053 1.00004 82.9996 1H82.9987C82.7933 1.00037 82.5929 1.06269 82.4235 1.17881C82.2541 1.29494 82.1238 1.45947 82.0494 1.65088L80.652 5.13818L76.9606 5.37793C76.7553 5.39134 76.5589 5.4663 76.3969 5.59303C76.2348 5.71977 76.1148 5.89239 76.0524 6.08838C75.9865 6.28715 75.982 6.50115 76.0395 6.7025C76.097 6.90385 76.2138 7.08324 76.3746 7.21729L79.2145 9.61768L78.3697 12.9404C78.3115 13.1643 78.3222 13.4004 78.4005 13.6181C78.4787 13.8357 78.6208 14.0246 78.8082 14.1602C78.9892 14.2918 79.2055 14.3659 79.4292 14.3729C79.6528 14.3798 79.8734 14.3193 80.0621 14.1992L82.9918 12.3433C82.9957 12.3403 82.9996 12.3384 83.0084 12.3433L86.1608 14.3403C86.3319 14.4497 86.5321 14.5048 86.735 14.4985C86.938 14.4923 87.1344 14.4249 87.2985 14.3052C87.4683 14.1824 87.5971 14.0113 87.668 13.8141C87.7389 13.617 87.7486 13.403 87.6959 13.2002L86.7985 9.57031L89.6256 7.21729C89.7865 7.08324 89.9033 6.90385 89.9607 6.7025C90.0182 6.50115 90.0137 6.28715 89.9479 6.08838Z" fill="#543CDF"></path><path d="M114.948 6.08838C114.885 5.89239 114.765 5.71977 114.603 5.59303C114.441 5.4663 114.245 5.39134 114.04 5.37793L110.328 5.11817L108.951 1.65088C108.876 1.45919 108.746 1.29448 108.576 1.17834C108.406 1.0622 108.205 1.00004 108 1H107.999C107.793 1.00037 107.593 1.06269 107.424 1.17881C107.254 1.29494 107.124 1.45947 107.049 1.65088L105.652 5.13818L101.961 5.37793C101.755 5.39134 101.559 5.4663 101.397 5.59303C101.235 5.71977 101.115 5.89239 101.052 6.08838C100.987 6.28715 100.982 6.50115 101.04 6.7025C101.097 6.90385 101.214 7.08324 101.375 7.21729L104.214 9.61768L103.37 12.9404C103.312 13.1643 103.322 13.4004 103.4 13.6181C103.479 13.8357 103.621 14.0246 103.808 14.1602C103.989 14.2918 104.206 14.3659 104.429 14.3729C104.653 14.3798 104.873 14.3193 105.062 14.1992L107.992 12.3433C107.996 12.3403 108 12.3384 108.008 12.3433L111.161 14.3403C111.332 14.4497 111.532 14.5048 111.735 14.4985C111.938 14.4923 112.134 14.4249 112.298 14.3052C112.468 14.1824 112.597 14.0113 112.668 13.8141C112.739 13.617 112.749 13.403 112.696 13.2002L111.798 9.57031L114.626 7.21729C114.786 7.08324 114.903 6.90385 114.961 6.7025C115.018 6.50115 115.014 6.28715 114.948 6.08838Z" fill="#543CDF"></path></svg>