<svg xmlns="http://www.w3.org/2000/svg" width="115" height="115" viewBox="0 0 115 115" fill="none"><path d="M20.4005 88.71L13.3205 93.85L12.3805 92.55L15.3905 84.77L15.3405 84.7L13.0105 86.48L9.71045 88.88L8.96045 87.85L16.0405 82.71L16.9405 83.95L13.9904 91.68L14.0305 91.74L16.2104 90.1L19.6104 87.63L20.3905 88.71H20.4005Z" fill="white"></path><path d="M13.3502 77.54L5.20023 80.72L2.97021 75.01L4.0202 74.6L5.88022 79.36L5.51022 79.2L8.4902 78.03L8.3302 78.4L6.68021 74.19L7.66022 73.81L9.31021 78.02L8.94022 77.86L12.0802 76.63L11.9202 77L10.0502 72.23L11.1102 71.81L13.3502 77.53V77.54Z" fill="white"></path><path d="M9.59024 65.69L1.07025 68.47L0.930237 67.05L5.65024 65.59L8.08023 64.87V64.79L0.610229 63.69L0.450256 62.04L7.57025 59.49V59.41L5.05023 59.2L0.130249 58.69L-0.00976562 57.27L8.89026 58.36L9.06024 60.15L2.22025 62.67V62.74L9.43024 63.91L9.60025 65.7L9.59024 65.69Z" fill="white"></path><path d="M12.5204 38.78L4.67041 34.92L6.4704 31.26C6.6804 30.83 6.92041 30.47 7.17041 30.19C7.42041 29.91 7.70039 29.71 7.99039 29.58C8.28039 29.46 8.5904 29.41 8.9104 29.43C9.2304 29.45 9.5704 29.55 9.9104 29.72C10.3804 29.95 10.7304 30.27 10.9504 30.68C11.1704 31.09 11.2304 31.54 11.1204 32.04L11.2004 32.08C11.4804 31.68 11.8004 31.46 12.1504 31.39C12.5004 31.33 12.9004 31.41 13.3504 31.63L14.6604 32.28C14.7904 32.34 14.9304 32.41 15.0804 32.47C15.2304 32.53 15.3904 32.56 15.5804 32.57L15.0004 33.75C14.8704 33.75 14.7204 33.72 14.5704 33.66C14.4204 33.6 14.2504 33.53 14.0704 33.44L12.9804 32.9C12.7104 32.77 12.4604 32.69 12.2404 32.68C12.0204 32.68 11.8204 32.74 11.6304 32.9C11.4404 33.06 11.2504 33.32 11.0704 33.7L9.92041 36.04L13.1004 37.6L12.5204 38.77V38.78ZM8.9704 35.58L10.1104 33.25C10.3904 32.69 10.4504 32.22 10.3004 31.85C10.1504 31.48 9.8704 31.19 9.4704 30.99C9.1504 30.83 8.87038 30.77 8.61038 30.81C8.35038 30.85 8.12041 30.96 7.92041 31.14C7.72041 31.32 7.5404 31.58 7.3804 31.9L6.24039 34.23L8.9704 35.58Z" fill="white"></path><path d="M18.6602 28.06L11.9902 22.4L15.9602 17.72L16.8203 18.45L13.5103 22.35L13.4803 21.94L15.9203 24.01L15.5103 24.04L18.4402 20.59L19.2502 21.27L16.3203 24.72L16.2903 24.31L18.8602 26.49L18.4503 26.52L21.7603 22.61L22.6302 23.35L18.6602 28.04V28.06Z" fill="white"></path><path d="M26.6404 19.76L21.4004 12.76L22.4504 11.98L27.1704 18.28L26.7904 18.19L30.3304 15.54L31.0404 16.48L26.6504 19.77L26.6404 19.76Z" fill="white"></path><path d="M35.31 14.01L31.77 6.01L37.38 3.53L37.84 4.56L33.17 6.63L33.32 6.25L34.62 9.18L34.24 9.03L38.38 7.2L38.81 8.17L34.67 10L34.82 9.62L36.18 12.7L35.8 12.55L40.49 10.48L40.95 11.52L35.33 14L35.31 14.01Z" fill="white"></path><path d="M45.1003 10.17L46.6503 1.02001L48.4603 0.700012L53.0303 8.78001L51.6803 9.02001L50.6203 7.13001L46.8003 7.80001L46.4403 9.93001L45.0903 10.17H45.1003ZM46.9403 6.74001L50.1303 6.18001L48.7203 3.69001L47.8103 2.03001H47.7403L47.4503 3.91001L46.9503 6.74001H46.9403Z" fill="white"></path><path d="M60.5903 8.95C59.8203 8.9 59.1803 8.74 58.6803 8.47C58.1803 8.2 57.8203 7.84 57.5903 7.4C57.3603 6.96 57.2603 6.46 57.2903 5.9L58.6303 5.98C58.6103 6.35 58.6803 6.67 58.8103 6.96C58.9403 7.25 59.1703 7.47 59.4703 7.63C59.7703 7.79 60.1704 7.89 60.6704 7.92C61.2904 7.96 61.7904 7.88 62.1704 7.68C62.5604 7.48 62.7603 7.15 62.7903 6.68C62.8103 6.42 62.7903 6.19 62.7103 6.01C62.6403 5.83 62.5203 5.68 62.3503 5.55C62.1803 5.42 61.9503 5.31 61.6603 5.21C61.3703 5.11 61.0103 5.01 60.6003 4.92C60.1003 4.8 59.6703 4.67 59.3003 4.52C58.9303 4.37 58.6203 4.2 58.3803 3.99C58.1403 3.79 57.9603 3.55 57.8503 3.27C57.7403 2.99 57.7003 2.67 57.7203 2.3C57.7503 1.79 57.9103 1.35 58.1903 0.989999C58.4703 0.629999 58.8503 0.369999 59.3503 0.199999C59.8403 0.0299986 60.4203 -0.0300014 61.0903 0.00999857C61.7603 0.0499986 62.3203 0.189999 62.7803 0.429999C63.2403 0.669999 63.5803 0.989999 63.8203 1.38C64.0503 1.78 64.1503 2.23 64.1303 2.75L62.8003 2.67C62.8103 2.32 62.7503 2.02 62.6003 1.79C62.4503 1.56 62.2403 1.37 61.9603 1.24C61.6803 1.11 61.3604 1.03 60.9804 1.01C60.6004 0.989999 60.2703 1.01 59.9903 1.11C59.7203 1.2 59.5003 1.34 59.3403 1.53C59.1803 1.72 59.1003 1.94 59.0803 2.21C59.0603 2.53 59.1203 2.78 59.2703 2.97C59.4103 3.16 59.6503 3.31 59.9903 3.43C60.3303 3.55 60.7703 3.68 61.3203 3.82C61.7103 3.9 62.0804 4 62.4204 4.13C62.7604 4.26 63.0803 4.42 63.3503 4.62C63.6203 4.82 63.8303 5.09 63.9703 5.41C64.1103 5.74 64.1704 6.15 64.1404 6.65C64.1104 7.15 63.9504 7.57 63.6704 7.94C63.3904 8.3 62.9803 8.57 62.4603 8.75C61.9403 8.93 61.3103 9 60.5703 8.95H60.5903Z" fill="white"></path><path d="M69.2404 10.09L71.8405 1.73999L77.6905 3.56999L77.3505 4.64999L72.4705 3.12999L72.8304 2.93999L71.8805 5.99999L71.6905 5.63999L76.0105 6.98999L75.7005 7.99999L71.3805 6.64999L71.7404 6.45999L70.7404 9.67999L70.5504 9.31999L75.4405 10.85L75.1005 11.94L69.2305 10.11L69.2404 10.09Z" fill="white"></path><path d="M89.3504 13.77L89.7204 13.27L90.3004 12.73L89.5104 12.75L88.8804 12.69L88.9504 12.11L89.5704 12.18L90.3204 12.39L89.9004 11.72L89.6504 11.16L90.1604 10.93L90.4104 11.49L90.6204 12.26L90.9704 11.55L91.3404 11.06L91.8004 11.4L91.4404 11.89L90.8704 12.44L91.6604 12.42L92.2704 12.5L92.2004 13.06L91.6004 12.99L90.8504 12.79L91.2604 13.44L91.5104 14.01L90.9804 14.24L90.7404 13.66L90.5304 12.89L90.1704 13.6L89.8004 14.1L89.3404 13.76L89.3504 13.77Z" fill="white"></path><path d="M96.02 27.55L103.33 22.75L104.21 24.09L100.84 31.72L100.89 31.79L103.3 30.12L106.71 27.88L107.41 28.94L100.1 33.74L99.26 32.46L102.56 24.88L102.52 24.82L100.27 26.36L96.76 28.67L96.03 27.56L96.02 27.55Z" fill="white"></path><path d="M102.55 39.03L110.84 36.23L112.8 42.04L111.73 42.4L110.1 37.56L110.47 37.74L107.43 38.76L107.61 38.4L109.06 42.69L108.06 43.03L106.61 38.74L106.97 38.92L103.78 40L103.96 39.64L105.6 44.49L104.52 44.85L102.56 39.03H102.55Z" fill="white"></path><path d="M105.75 51.05L114.39 48.66L114.46 50.09L109.68 51.33L107.22 51.94V52.02L114.63 53.47L114.71 55.12L107.48 57.34V57.42L109.99 57.75L114.88 58.49L114.95 59.92L106.12 58.42L106.03 56.62L112.98 54.41V54.34L105.83 52.84L105.74 51.04L105.75 51.05Z" fill="white"></path><path d="M101.54 77.79L109.23 81.97L107.54 85.08C107.32 85.49 107.06 85.83 106.78 86.1C106.49 86.37 106.18 86.57 105.84 86.69C105.5 86.81 105.15 86.85 104.78 86.81C104.41 86.77 104.03 86.64 103.64 86.43C103.15 86.16 102.78 85.82 102.52 85.41C102.27 84.99 102.15 84.53 102.17 84.02C102.19 83.51 102.35 82.97 102.65 82.41L103.78 80.33L104.7 80.83L103.66 82.74C103.48 83.07 103.37 83.39 103.34 83.7C103.31 84.01 103.37 84.3 103.51 84.56C103.65 84.82 103.9 85.05 104.24 85.23C104.58 85.42 104.9 85.5 105.2 85.47C105.5 85.44 105.77 85.33 106.01 85.14C106.25 84.95 106.46 84.68 106.64 84.35L107.71 82.39L107.79 82.67L100.91 78.94L101.53 77.79H101.54Z" fill="white"></path><path d="M92.7202 90.44C93.1602 89.97 93.6402 89.61 94.1502 89.37C94.6602 89.13 95.1902 89 95.7402 88.99C96.2902 88.98 96.8302 89.09 97.3702 89.32C97.9102 89.55 98.4302 89.91 98.9302 90.38C99.4402 90.86 99.8202 91.36 100.08 91.89C100.34 92.42 100.48 92.95 100.5 93.49C100.52 94.03 100.43 94.57 100.21 95.09C100 95.61 99.6702 96.11 99.2202 96.58C98.7702 97.06 98.2902 97.42 97.7802 97.66C97.2702 97.9 96.7403 98.03 96.2003 98.04C95.6603 98.05 95.1203 97.94 94.5703 97.71C94.0303 97.48 93.5002 97.13 93.0002 96.65C92.4902 96.17 92.1103 95.67 91.8503 95.14C91.5903 94.61 91.4502 94.08 91.4302 93.53C91.4102 92.98 91.5102 92.45 91.7202 91.93C91.9302 91.41 92.2602 90.91 92.7102 90.44H92.7202ZM93.5403 91.21C93.1203 91.65 92.8602 92.13 92.7502 92.63C92.6402 93.14 92.6802 93.65 92.8702 94.17C93.0602 94.69 93.4202 95.19 93.9302 95.67C94.3202 96.04 94.7102 96.31 95.1102 96.49C95.5102 96.67 95.9003 96.77 96.2903 96.77C96.6803 96.77 97.0503 96.7 97.4103 96.54C97.7703 96.38 98.1003 96.13 98.4103 95.8C98.8303 95.36 99.0903 94.89 99.2003 94.38C99.3103 93.88 99.2703 93.37 99.0703 92.85C98.8803 92.33 98.5202 91.83 98.0002 91.34C97.6202 90.98 97.2202 90.7 96.8302 90.52C96.4302 90.34 96.0403 90.24 95.6603 90.23C95.2803 90.22 94.9102 90.3 94.5502 90.46C94.1902 90.62 93.8503 90.87 93.5403 91.2V91.21Z" fill="white"></path><path d="M85.7103 96.86L90.2703 104.32L87.2504 106.17C86.5304 106.61 85.8304 106.83 85.1404 106.82C84.4504 106.81 83.8004 106.62 83.1904 106.22C82.5804 105.82 82.0504 105.25 81.5904 104.5C81.2504 103.94 81.0104 103.39 80.8804 102.84C80.7504 102.29 80.7304 101.76 80.8204 101.26C80.9104 100.75 81.1104 100.29 81.4204 99.85C81.7304 99.41 82.1504 99.04 82.6904 98.71L85.7103 96.86ZM85.1804 98.5L83.4404 99.56C83.0804 99.78 82.7804 100.04 82.5604 100.33C82.3404 100.62 82.1903 100.95 82.1103 101.31C82.0403 101.67 82.0504 102.06 82.1604 102.48C82.2704 102.9 82.4603 103.35 82.7403 103.82C83.1303 104.45 83.5503 104.91 83.9903 105.2C84.4403 105.48 84.9004 105.61 85.3804 105.59C85.8604 105.56 86.3404 105.4 86.8204 105.11L88.5604 104.05L85.1704 98.51L85.1804 98.5Z" fill="white"></path><path d="M70.7403 103.8C71.3603 103.62 71.9503 103.56 72.5203 103.61C73.0803 103.67 73.6004 103.83 74.0704 104.09C74.5404 104.36 74.9503 104.73 75.3003 105.2C75.6403 105.68 75.9104 106.24 76.1004 106.9C76.2903 107.57 76.3703 108.2 76.3303 108.78C76.2903 109.37 76.1403 109.9 75.8803 110.38C75.6203 110.86 75.2704 111.27 74.8204 111.61C74.3804 111.95 73.8403 112.21 73.2203 112.39C72.5303 112.59 71.8803 112.65 71.2703 112.56C70.6603 112.47 70.1203 112.27 69.6503 111.93C69.1803 111.59 68.8204 111.14 68.5704 110.57L69.8403 110.21C70.0203 110.54 70.2604 110.81 70.5704 111.02C70.8804 111.23 71.2303 111.36 71.6303 111.42C72.0303 111.48 72.4604 111.44 72.9204 111.3C73.5004 111.13 73.9604 110.86 74.3204 110.49C74.6704 110.11 74.9003 109.65 74.9903 109.11C75.0803 108.57 75.0303 107.96 74.8303 107.27C74.6803 106.76 74.4903 106.33 74.2403 105.97C73.9903 105.61 73.7103 105.32 73.3803 105.12C73.0603 104.92 72.7003 104.79 72.3103 104.75C71.9203 104.71 71.5103 104.75 71.0803 104.87C70.6303 105 70.2403 105.19 69.9303 105.45C69.6203 105.71 69.3904 106.01 69.2304 106.36C69.0804 106.71 69.0203 107.08 69.0603 107.48L67.7904 107.83C67.6904 107.22 67.7503 106.64 67.9603 106.1C68.1703 105.56 68.5203 105.09 69.0003 104.69C69.4803 104.29 70.0704 103.99 70.7604 103.79L70.7403 103.8Z" fill="white"></path><path d="M63.0405 105.6L60.2005 114.44L58.3604 114.5L54.9805 105.85L56.3505 105.81L57.1305 107.83L61.0105 107.71L61.6705 105.65L63.0405 105.61V105.6ZM60.7404 108.73L57.5005 108.83L58.5405 111.5L59.2104 113.27H59.2805L59.8405 111.46L60.7404 108.73Z" fill="white"></path><path d="M47.5404 104.61C48.3004 104.77 48.9103 105.02 49.3603 105.36C49.8103 105.7 50.1204 106.1 50.2804 106.58C50.4404 107.05 50.4703 107.56 50.3603 108.11L49.0404 107.84C49.1104 107.48 49.0904 107.15 49.0004 106.84C48.9004 106.54 48.7204 106.28 48.4404 106.08C48.1604 105.87 47.7803 105.72 47.3003 105.62C46.7003 105.49 46.1904 105.5 45.7804 105.65C45.3704 105.79 45.1203 106.09 45.0203 106.55C44.9703 106.81 44.9604 107.03 45.0004 107.22C45.0404 107.41 45.1404 107.58 45.2904 107.73C45.4404 107.88 45.6603 108.02 45.9303 108.16C46.2003 108.3 46.5404 108.45 46.9404 108.6C47.4104 108.79 47.8304 108.98 48.1704 109.18C48.5204 109.38 48.7904 109.6 49.0004 109.83C49.2104 110.07 49.3504 110.33 49.4204 110.62C49.4904 110.91 49.4904 111.24 49.4204 111.6C49.3204 112.1 49.1003 112.51 48.7703 112.83C48.4403 113.15 48.0204 113.35 47.5104 113.45C47.0004 113.55 46.4204 113.53 45.7604 113.39C45.1004 113.25 44.5603 113.03 44.1503 112.73C43.7303 112.43 43.4404 112.06 43.2604 111.64C43.0804 111.22 43.0503 110.75 43.1503 110.24L44.4504 110.51C44.3904 110.86 44.4103 111.16 44.5203 111.41C44.6303 111.67 44.8204 111.88 45.0704 112.05C45.3204 112.22 45.6404 112.34 46.0004 112.42C46.3804 112.5 46.7103 112.51 46.9903 112.46C47.2703 112.41 47.5104 112.3 47.6904 112.14C47.8704 111.98 47.9904 111.77 48.0404 111.51C48.1104 111.2 48.0803 110.94 47.9603 110.73C47.8403 110.53 47.6304 110.34 47.3104 110.17C46.9904 110 46.5703 109.81 46.0503 109.59C45.6803 109.45 45.3304 109.3 45.0004 109.13C44.6704 108.96 44.3903 108.75 44.1503 108.51C43.9103 108.27 43.7403 107.98 43.6503 107.64C43.5603 107.3 43.5604 106.88 43.6604 106.39C43.7604 105.9 43.9804 105.5 44.3104 105.18C44.6404 104.86 45.0803 104.65 45.6203 104.55C46.1603 104.45 46.7903 104.47 47.5203 104.62L47.5404 104.61Z" fill="white"></path><path d="M37.8503 101.61L34.6703 108.52L37.1703 109.67L36.6902 110.71L30.4902 107.85L30.9702 106.81L33.4902 107.97L36.6703 101.06L37.8602 101.61H37.8503Z" fill="white"></path><path d="M20.62 96.54L20.19 96.99L19.55 97.46L20.34 97.53L20.95 97.67L20.81 98.23L20.2 98.08L19.48 97.78L19.81 98.49L19.99 99.07L19.45 99.24L19.26 98.65L19.15 97.86L18.72 98.53L18.3 98.97L17.88 98.57L18.3 98.13L18.93 97.65L18.14 97.58L17.54 97.43L17.68 96.88L18.27 97.03L18.99 97.32L18.66 96.62L18.48 96.02L19.04 95.85L19.21 96.46L19.32 97.25L19.76 96.59L20.19 96.14L20.61 96.54H20.62Z" fill="white"></path></svg>