<svg xmlns="http://www.w3.org/2000/svg" width="163" height="162" viewBox="0 0 163 162" fill="none"><path d="M79.753 144.449C80.5101 144.466 81.2109 144.619 81.8554 144.911C82.4893 145.202 83.0355 145.598 83.4941 146.099C83.9417 146.61 84.265 147.198 84.464 147.864L82.6394 148.609C82.3663 147.92 81.9621 147.372 81.4267 146.966C80.8912 146.57 80.2822 146.365 79.5997 146.35C79.2158 146.342 78.8839 146.393 78.6041 146.505C78.3134 146.626 78.0911 146.792 77.9371 147.002C77.7725 147.212 77.687 147.466 77.6805 147.765C77.6729 148.117 77.7733 148.407 77.9817 148.636C78.1792 148.875 78.4846 149.063 78.8977 149.2L81.1692 149.985C82.0907 150.293 82.7798 150.74 83.2366 151.326C83.6933 151.912 83.9132 152.595 83.8963 153.373C83.8815 154.056 83.7031 154.655 83.3612 155.17C83.0086 155.685 82.5306 156.08 81.9271 156.355C81.3128 156.64 80.6164 156.775 79.8379 156.758C79.1234 156.742 78.4703 156.6 77.8787 156.331C77.2868 156.073 76.7825 155.715 76.3656 155.258C75.9379 154.811 75.6238 154.287 75.4235 153.685L77.2325 152.924C77.4541 153.527 77.7961 153.993 78.2583 154.323C78.7204 154.664 79.2607 154.841 79.8792 154.854C80.2418 154.862 80.5631 154.805 80.8431 154.683C81.123 154.572 81.3453 154.406 81.5101 154.186C81.664 153.975 81.7442 153.721 81.7507 153.423C81.7579 153.092 81.6576 152.796 81.4499 152.536C81.2419 152.286 80.9208 152.087 80.4866 151.939L78.3101 151.203C77.3677 150.874 76.6678 150.432 76.2103 149.877C75.7423 149.323 75.5169 148.646 75.5343 147.846C75.5491 147.164 75.7381 146.565 76.1014 146.05C76.4646 145.535 76.9588 145.135 77.5838 144.85C78.2088 144.565 78.9318 144.431 79.753 144.449Z" fill="black"></path><path d="M68.7507 143.578L65.7597 155.116L58.093 153.129L58.5748 151.27L64.1351 152.712L64.9019 149.753L59.6514 148.392L60.1332 146.534L65.3837 147.895L66.1625 144.89L60.6023 143.449L61.0841 141.59L68.7507 143.578Z" fill="black"></path><path d="M55.0843 139.233L49.6795 149.858L47.74 148.871L52.2743 139.958L47.7251 137.644L48.5957 135.932L55.0843 139.233Z" fill="black"></path><path d="M43.5055 132.593L35.9403 141.805L29.7951 136.758L31.0137 135.274L35.4773 138.94L37.5692 136.393L33.6619 133.184L34.8805 131.701L38.7877 134.909L41.824 131.212L43.5055 132.593Z" fill="black"></path><path d="M30.0608 124.834L28.6058 125.96L24.4433 120.583L25.8982 119.456L30.0608 124.834Z" fill="black"></path><path d="M24.7727 111.142L13.9972 116.239L13.0668 114.272L22.1066 109.996L19.9244 105.382L21.66 104.561L24.7727 111.142Z" fill="black"></path><path d="M18.6076 93.1492C18.7706 94.0085 18.7707 94.8391 18.6079 95.6408C18.4451 96.4425 18.1438 97.1727 17.7042 97.8315C17.2646 98.4903 16.7078 99.0464 16.0338 99.5C15.3474 99.945 14.5745 100.249 13.7152 100.412C12.8453 100.577 12.0148 100.577 11.2236 100.412C10.4323 100.247 9.71158 99.9389 9.0613 99.4869C8.41101 99.0348 7.86859 98.4645 7.43405 97.7761C6.98903 97.0896 6.68404 96.3115 6.51908 95.4417C6.35413 94.5719 6.35306 93.7361 6.51587 92.9344C6.67868 92.1327 6.97989 91.4024 7.41951 90.7436C7.84865 90.0869 8.4012 89.5369 9.07716 89.0939C9.75113 88.6404 10.523 88.3312 11.3929 88.1662C12.2522 88.0032 13.0837 88.0084 13.8874 88.1817C14.6806 88.357 15.4024 88.6706 16.0527 89.1227C16.703 89.5748 17.2506 90.1441 17.6956 90.8305C18.1387 91.5065 18.4427 92.2794 18.6076 93.1492ZM16.6584 93.5189C16.5491 92.9425 16.3491 92.4321 16.0586 91.9878C15.7576 91.5455 15.3899 91.1809 14.9555 90.8942C14.5192 90.5969 14.0316 90.4017 13.4928 90.3085C12.952 90.2047 12.3881 90.2085 11.8013 90.3198C11.2144 90.4311 10.6936 90.633 10.2388 90.9255C9.77151 91.2096 9.38926 91.5698 9.09203 92.0061C8.78232 92.434 8.57362 92.9078 8.46593 93.4277C8.35823 93.9475 8.35904 94.4956 8.46834 95.072C8.57566 95.6379 8.77459 96.143 9.06513 96.5874C9.35567 97.0317 9.72436 97.4015 10.1712 97.6967C10.6056 97.9835 11.0931 98.1787 11.6339 98.2824C12.1643 98.3881 12.7228 98.3853 13.3097 98.274C13.8966 98.1628 14.4227 97.9598 14.8879 97.6653C15.3532 97.3708 15.7355 97.0106 16.0347 96.5847C16.3319 96.1484 16.5396 95.6693 16.6578 95.1475C16.7655 94.6276 16.7657 94.0848 16.6584 93.5189Z" fill="black"></path><path d="M17.3193 76.7828L5.07542 79.8618L5.28686 77.5033L15.4109 75.1338L15.3694 75.5959L5.82832 71.4635L6.03976 69.1049L17.5421 74.2967L17.3193 76.7828Z" fill="black"></path><path d="M19.3899 63.8542L8.10855 60.0048L10.6662 52.5091L12.4833 53.1292L10.6284 58.5654L13.5206 59.5523L15.2722 54.4189L17.0894 55.0389L15.3378 60.1723L18.2755 61.1747L20.1304 55.7385L21.9475 56.3585L19.3899 63.8542Z" fill="black"></path><path d="M31.5203 40.8585C31.0439 41.4472 30.4931 41.9072 29.8682 42.2384C29.25 42.5614 28.6025 42.7509 27.9259 42.807C27.2476 42.8481 26.5844 42.7435 25.9361 42.4933L26.4642 40.5947C27.176 40.8003 27.8565 40.8159 28.5055 40.6414C29.1462 40.4601 29.6814 40.1042 30.1109 39.5736C30.3525 39.2751 30.5149 38.9812 30.5982 38.6918C30.6799 38.3874 30.6848 38.1101 30.6129 37.8598C30.5478 37.6012 30.3991 37.3779 30.167 37.19C29.8934 36.9686 29.6024 36.8703 29.2941 36.8952C28.9842 36.905 28.6486 37.0314 28.2874 37.2742L26.2758 38.5896C25.4681 39.1297 24.6927 39.4009 23.9497 39.4034C23.2067 39.4058 22.5326 39.162 21.9274 38.6721C21.3968 38.2426 21.0323 37.7349 20.8341 37.1491C20.6426 36.5549 20.6229 35.9351 20.7748 35.2896C20.9252 34.6291 21.2453 33.9962 21.7352 33.391C22.1849 32.8355 22.6971 32.4061 23.2719 32.1029C23.8384 31.793 24.43 31.6131 25.0466 31.5633C25.6617 31.4986 26.2685 31.5712 26.867 31.7812L26.3614 33.6774C25.7495 33.484 25.1715 33.469 24.6275 33.6325C24.0752 33.7892 23.6044 34.108 23.2152 34.5889C22.987 34.8708 22.8354 35.1598 22.7604 35.4559C22.6771 35.7453 22.6722 36.0226 22.7457 36.2879C22.8175 36.5382 22.9695 36.7573 23.2017 36.9452C23.4587 37.1533 23.7538 37.2549 24.087 37.2502C24.4119 37.2387 24.7659 37.1066 25.1488 36.8539L27.0627 35.583C27.9004 35.0397 28.6783 34.7568 29.3964 34.7343C30.1213 34.7034 30.7946 34.9397 31.4164 35.443C31.947 35.8725 32.3047 36.3885 32.4895 36.9909C32.6743 37.5934 32.6882 38.229 32.5311 38.8978C32.374 39.5665 32.0371 40.2201 31.5203 40.8585Z" fill="black"></path><path d="M38.9444 32.6914L31.6512 23.263L37.9158 18.4172L39.0905 19.9359L34.5471 23.4503L36.4169 25.8675L40.7072 22.5489L41.8819 24.0675L37.5917 27.3862L39.4909 29.8414L44.0342 26.3269L45.209 27.8456L38.9444 32.6914Z" fill="black"></path><path d="M50.7453 24.5443L45.6528 13.7669L47.6202 12.8373L51.8925 21.8787L56.5072 19.6981L57.3275 21.4341L50.7453 24.5443Z" fill="black"></path><path d="M63.0841 19.4529L60.431 7.83191L68.1836 6.06201L68.6109 7.93385L62.9798 9.21943L63.7134 12.4328L68.6426 11.3074L69.0699 13.1793L64.1407 14.3046L65.2055 18.9686L63.0841 19.4529Z" fill="black"></path><path d="M87.4872 11.4569L86.321 10.3755L87.659 8.93226L85.9005 8.10612L86.5618 6.66713L88.3221 7.47737L88.5515 5.44225L90.1414 5.62144L89.9121 7.65655L91.8086 7.25844L92.133 8.80853L90.2347 9.22254L91.218 10.9274L89.8244 11.7203L88.8412 10.0155L87.4872 11.4569Z" fill="black"></path><path d="M105.264 21.5715L110.597 10.9111L114.074 12.6507C115.2 13.2138 116.063 13.9319 116.664 14.805C117.279 15.6734 117.615 16.6227 117.672 17.6531C117.734 18.674 117.503 19.7091 116.978 20.7584C116.458 21.7982 115.766 22.609 114.902 23.1908C114.043 23.763 113.08 24.0681 112.011 24.106C110.957 24.1392 109.867 23.8742 108.741 23.3111L105.264 21.5715ZM108.069 20.828L109.643 21.6154C110.368 21.9781 111.067 22.1429 111.74 22.1096C112.427 22.0716 113.052 21.8595 113.615 21.4732C114.182 21.0774 114.65 20.5122 115.017 19.7777C115.39 19.0336 115.561 18.3205 115.533 17.6383C115.505 16.9562 115.297 16.3336 114.911 15.7706C114.534 15.2124 113.983 14.752 113.258 14.3893L111.684 13.6018L108.069 20.828Z" fill="black"></path><path d="M119.387 29.6522L127.096 20.5606L133.137 25.6826L131.895 27.1471L127.514 23.4323L125.538 25.7632L129.675 29.271L128.433 30.7354L124.296 27.2276L122.289 29.5951L126.67 33.3099L125.428 34.7743L119.387 29.6522Z" fill="black"></path><path d="M131.712 41.9719L138.912 31.6016L140.304 33.5176L134.234 41.9595L133.961 41.5841L143.867 38.4243L145.259 40.3404L133.178 43.9915L131.712 41.9719Z" fill="black"></path><path d="M138.652 53.0744L149.683 48.5571L152.684 55.8864L150.907 56.614L148.731 51.2985L145.903 52.4566L147.958 57.476L146.181 58.2036L144.126 53.1842L141.253 54.3605L143.43 59.6761L141.653 60.4037L138.652 53.0744Z" fill="black"></path><path d="M143.361 66.6199L155.106 64.5831L155.477 66.7271L145.624 68.4358L146.497 73.4647L144.605 73.7928L143.361 66.6199Z" fill="black"></path><path d="M144.502 85.6053C144.574 84.7336 144.795 83.9331 145.166 83.2039C145.537 82.4747 146.022 81.8513 146.622 81.3337C147.221 80.8161 147.906 80.4287 148.677 80.1715C149.457 79.9257 150.283 79.839 151.154 79.9112C152.037 79.9843 152.837 80.2058 153.556 80.5757C154.274 80.9457 154.887 81.4353 155.393 82.0445C155.899 82.6537 156.269 83.348 156.505 84.1274C156.75 84.9077 156.837 85.739 156.764 86.6213C156.69 87.5036 156.468 88.3093 156.098 89.0385C155.727 89.7678 155.242 90.3912 154.642 90.9088C154.053 91.4272 153.374 91.8098 152.605 92.0564C151.834 92.3137 151.008 92.4057 150.125 92.3326C149.254 92.2604 148.454 92.0336 147.725 91.6521C147.008 91.2715 146.396 90.7767 145.89 90.1675C145.383 89.5582 145.008 88.8635 144.762 88.0832C144.515 87.3135 144.428 86.4876 144.502 85.6053ZM146.479 85.7691C146.43 86.3538 146.487 86.8989 146.648 87.4047C146.82 87.9113 147.077 88.3607 147.42 88.753C147.761 89.1559 148.179 89.4741 148.673 89.7077C149.167 89.952 149.711 90.0988 150.306 90.1481C150.902 90.1974 151.457 90.1418 151.974 89.9812C152.5 89.8322 152.964 89.587 153.367 89.2458C153.78 88.9161 154.107 88.5151 154.35 88.0428C154.592 87.5706 154.738 87.0421 154.786 86.4574C154.834 85.8834 154.777 85.3435 154.615 84.8378C154.454 84.3321 154.197 83.8773 153.845 83.4736C153.503 83.0813 153.086 82.7631 152.592 82.5188C152.109 82.2754 151.57 82.1291 150.975 82.0798C150.379 82.0304 149.818 82.0856 149.291 82.2453C148.764 82.405 148.3 82.6501 147.898 82.9807C147.495 83.322 147.167 83.7283 146.914 84.1997C146.671 84.6719 146.526 85.1951 146.479 85.7691Z" fill="black"></path><path d="M142.457 98.7507L153.646 102.861L152.112 107.036C151.833 107.797 151.446 108.416 150.952 108.894C150.465 109.385 149.895 109.699 149.243 109.834C148.601 109.973 147.905 109.905 147.154 109.629C146.413 109.357 145.84 108.953 145.434 108.418C145.035 107.896 144.802 107.294 144.735 106.61C144.668 105.926 144.774 105.204 145.053 104.443L145.837 102.31L141.707 100.793L142.457 98.7507ZM147.639 102.972L146.845 105.135C146.708 105.506 146.661 105.852 146.702 106.174C146.753 106.499 146.881 106.785 147.086 107.03C147.291 107.276 147.564 107.462 147.904 107.587C148.255 107.715 148.583 107.751 148.888 107.692C149.204 107.638 149.481 107.501 149.721 107.282C149.97 107.067 150.163 106.774 150.299 106.404L151.093 104.241L147.639 102.972Z" fill="black"></path><path d="M136.636 112.821L146.328 119.76L145.117 121.451L137.588 121.55L138.166 120.744L140.553 127.826L139.343 129.517L129.651 122.578L130.927 120.795L138.602 126.291L137.939 126.859L135.671 119.666L135.82 119.458L143.295 119.379L143.045 120.085L135.37 114.59L136.636 112.821Z" fill="black"></path><path d="M124.526 127.709L132.091 136.921L125.971 141.947L124.752 140.463L129.191 136.818L127.252 134.456L123.06 137.899L121.841 136.415L126.033 132.973L124.063 130.574L119.624 134.219L118.406 132.736L124.526 127.709Z" fill="black"></path><path d="M113.069 136.25L118.234 146.993L116.706 147.728L106.967 142.61L107.683 142.07L111.587 150.189L109.625 151.132L104.46 140.389L106.003 139.647L115.684 144.863L115.039 145.369L111.108 137.193L113.069 136.25Z" fill="black"></path><path d="M95.9435 142.902L98.089 152.669L101.105 152.007L101.517 153.882L93.3908 155.667L92.9788 153.792L95.948 153.14L93.8026 143.373L95.9435 142.902Z" fill="black"></path></svg>