<svg xmlns="http://www.w3.org/2000/svg" width="70" height="90" viewBox="0 0 70 90" fill="none"><path d="M44.53 21.0912C43.8575 21.2053 43.2942 21.382 42.731 21.3815C40.7806 21.3804 38.9664 21.9376 37.1514 22.5657C35.185 23.246 33.3559 24.186 31.6422 25.3436C29.6318 26.7018 27.8312 28.3021 26.3908 30.268C24.6144 32.6926 23.0772 35.239 22.3202 38.1938C21.9065 39.8069 21.3987 41.3884 21.4216 43.0885C21.4333 43.9617 21.094 44.8612 21.2129 45.7065C21.4573 47.4428 21.5775 49.1979 22.0413 50.9095C23.1438 54.9796 25.1297 58.5535 28.0378 61.5839C30.1655 63.8009 32.7111 65.4505 35.5281 66.7214C38.3816 68.0086 41.3961 68.4423 44.53 68.8113V21.0912ZM58.0298 64.6965C58.2524 64.6116 58.5003 64.5648 58.6941 64.4363C61.4394 62.6159 63.6262 60.2709 65.2175 57.5489C64.959 57.2855 64.7244 57.0859 64.5538 56.8422C64.5245 56.7989 64.7804 56.44 64.8657 56.4541C65.1216 56.4953 65.3561 56.6512 65.62 56.772C66.0199 56.2675 65.9826 56.2577 66.0386 55.5128C66.0545 55.3145 66.2251 55.1091 66.3691 54.9442C66.513 54.7779 66.8036 54.6928 66.8729 54.5127C67.3047 53.3569 68.171 52.2735 67.4833 50.9853C68.243 50.3148 68.3203 50.327 68.4749 49.3826C68.7708 47.5963 69.064 45.7988 68.96 43.9774C68.904 43.0012 68.8214 42.0184 68.6348 41.0611C68.5362 40.5492 68.5388 39.8806 67.7285 39.7383C67.4273 39.6856 67.4273 39.2703 67.6565 39.0042C67.7765 38.8664 67.9337 38.7613 68.0644 38.6485C67.6965 37.5697 67.3527 36.5552 67.0035 35.5343H66.1718C66.1052 35.3891 66.0092 35.2811 66.0332 35.2177C66.401 34.2373 66.0439 33.4551 65.4441 32.6809C64.847 31.9056 64.3965 31.0103 63.7648 30.2651C62.7895 29.1139 61.7989 27.9493 60.6608 26.9689C59.5137 25.9811 58.1663 25.2278 56.9305 24.3387C56.1951 23.8095 55.429 23.4974 54.7024 23.7374C54.1509 23.2952 53.7795 22.9001 53.3259 22.6607C52.8559 22.4127 52.2703 22.3827 51.7996 22.1358C51.1817 21.8117 50.8034 22.2789 50.3132 22.5529C49.791 21.6263 49.0977 21.1897 48.1155 21.493C47.9118 21.8482 47.7173 22.1874 47.4968 22.5715C46.7949 22.0756 47.0093 20.5681 45.6168 21.2932V22.5569C45.9353 22.8852 46.1792 23.1369 46.4234 23.3886C46.1547 23.6469 45.886 23.9053 45.5704 24.2089V25.5032C45.8886 25.7916 46.1557 26.0332 46.4226 26.2751C46.164 26.5198 45.9054 26.7643 45.5517 27.0988V28.4399C45.9105 28.7805 46.1675 29.0242 46.4244 29.2677C46.1563 29.5087 45.8884 29.7495 45.5541 30.0499C45.5541 30.3508 45.5488 30.7456 45.5568 31.1399C45.5597 31.2833 45.5938 31.4259 45.6112 31.5515C45.8388 31.8582 46.5718 31.6669 46.3837 32.2501C46.289 32.5428 45.8657 32.7296 45.5898 32.9656V34.6039C46.1912 34.4882 46.5148 34.7351 46.3701 35.2874C46.3271 35.4513 45.8735 35.5085 45.5869 35.6229V37.09C45.9166 37.4137 46.3269 37.6282 46.3919 37.9195C46.5223 38.5038 45.8521 38.3931 45.6101 38.5796V40.0741C45.9561 40.3851 46.3271 40.5577 46.3911 40.8084C46.5401 41.3913 45.8236 41.1878 45.5872 41.532V43.027C45.8956 43.3104 46.1605 43.5538 46.4255 43.7972C46.1624 44.0393 45.8996 44.2817 45.5861 44.5701V45.9739C45.9172 46.2958 46.1693 46.5408 46.4215 46.7858C46.152 47.0256 45.8828 47.2653 45.584 47.5308V48.8143C45.9684 49.2064 46.4199 49.502 46.3759 49.6579C46.2919 49.9548 45.9249 50.1717 45.6042 50.4933V52.1248C46.1677 51.9774 46.4159 52.2139 46.4244 52.7019C46.4367 53.3803 45.8018 52.878 45.601 53.1063V54.9136C45.9209 55.0309 46.3149 55.0645 46.3639 55.2121C46.5825 55.8695 46.0715 55.9773 45.5874 56.0688V57.5569C45.9174 57.8841 46.1685 58.1329 46.4194 58.3814C46.1499 58.6176 45.8807 58.8539 45.5515 59.1428V60.5737C45.8716 60.9353 46.57 60.8009 46.3815 61.3649C46.2853 61.6533 45.8583 61.8316 45.609 62.0365V63.5138C45.9489 63.8102 46.1837 64.0156 46.4188 64.2208C46.1717 64.4698 45.9244 64.7188 45.604 65.0418V66.6616C46.0635 66.5434 46.3687 66.6818 46.3975 67.1035C46.4098 67.2855 46.2272 67.6101 46.0731 67.6524C45.3156 67.8591 45.5282 68.2989 45.6661 68.7206C46.5236 69.108 46.8944 68.4356 47.4427 68.0272C47.8934 68.442 48.3461 68.5979 49.0117 68.3574C49.8268 68.0629 50.736 68.0275 51.645 67.8732C51.509 67.643 51.3893 67.4406 51.2342 67.1777C51.4594 66.9776 51.6948 66.7688 52.008 66.4902C52.2247 66.9218 52.3838 67.2384 52.5883 67.6452C53.3296 67.2533 53.9888 66.8034 54.7168 66.5527C55.2619 66.3652 55.9152 66.4705 55.8201 65.5827C55.8144 65.5311 56.2593 65.319 56.411 65.3818C57.1803 65.7006 57.6039 65.2935 57.9856 64.7356L58.0298 64.6965ZM45.5602 69.8455V89.8151C44.1472 90.1022 42.8158 89.9902 41.5056 89.9072C40.2406 89.8268 38.9885 89.553 37.7296 89.3742C34.7548 88.9518 31.8891 88.1086 29.0833 87.0707C25.3235 85.6798 21.8566 83.7269 18.602 81.4008C17.6834 80.7442 16.8056 80.0256 15.9508 79.287C14.8696 78.3523 13.7618 77.4331 12.787 76.3934C9.88365 73.2965 7.31565 69.9617 5.32045 66.1789C3.43029 62.5954 2.01168 58.8597 1.08566 54.933C0.648243 53.077 0.48724 51.1734 0.240141 49.2833C-0.0181502 47.3078 -0.0330848 45.3467 0.0338131 43.3867C0.188696 38.864 0.966502 34.4454 2.45257 30.148C3.94556 25.8315 6.15052 21.899 8.78731 18.2056C10.5676 15.7118 12.6399 13.4424 14.9467 11.4205C17.991 8.75229 21.3056 6.45485 24.9455 4.65519C27.8137 3.23709 30.8018 2.09426 33.888 1.27726C35.7723 0.778405 37.76 0.682013 39.6701 0.26409C41.3916 -0.112651 43.1135 0.073123 44.8344 0.000777031C45.0207 -0.00714878 45.2092 0.0472679 45.4952 0.086128V20.0874C53.8726 20.5336 60.5978 23.9782 65.4574 30.7573C69.0453 35.7608 70.498 41.4397 69.8503 47.4981C69.1919 53.6488 66.5716 59.0348 61.9591 63.2268C57.4119 67.3594 51.9414 69.5116 45.5602 69.8455Z" fill="#F4F7FF"></path><path d="M53.1889 53.3061C53.4586 53.6059 53.7833 53.8103 53.7761 54.0021C53.7689 54.1998 53.4653 54.4634 53.2371 54.543C53.1225 54.5829 52.7339 54.2705 52.7408 54.1311C52.7525 53.893 52.9785 53.6652 53.1889 53.3061Z" fill="#F4F7FF"></path><path d="M58.436 52.6005C58.0767 52.821 57.8174 53.1028 57.6284 53.0618C57.438 53.0206 57.24 52.6713 57.2005 52.4315C57.1824 52.3201 57.5593 52.0077 57.7078 52.0367C57.9368 52.0817 58.1231 52.3419 58.436 52.6005Z" fill="#F4F7FF"></path><path d="M54.7717 51.8289C54.9988 52.1738 55.2936 52.4297 55.2533 52.6125C55.2102 52.8099 54.8692 53.0121 54.6267 53.0629C54.5206 53.0853 54.194 52.7109 54.2207 52.5619C54.2618 52.3323 54.5206 52.1416 54.7717 51.8289Z" fill="#F4F7FF"></path><path d="M59.9154 51.0254C59.6022 51.2822 59.414 51.5416 59.1829 51.5879C59.0358 51.6171 58.6562 51.296 58.6773 51.1917C58.7261 50.9493 58.9231 50.6075 59.1195 50.562C59.3037 50.5194 59.5644 50.8062 59.9154 51.0254Z" fill="#F4F7FF"></path><path d="M56.958 51.1151C56.5992 51.3384 56.3396 51.6236 56.153 51.5818C55.9592 51.5384 55.7614 51.1928 55.7166 50.9515C55.6966 50.8443 56.0741 50.5279 56.2242 50.5562C56.4537 50.5993 56.6424 50.8584 56.958 51.1151Z" fill="#F4F7FF"></path><path d="M53.2947 35.8017C53.5205 36.1484 53.8156 36.4075 53.7732 36.5876C53.7265 36.7859 53.3851 36.9846 53.1412 37.0349C53.0356 37.0567 52.7093 36.6776 52.7389 36.532C52.7861 36.2984 53.0457 36.108 53.2947 35.8017Z" fill="#F4F7FF"></path><path d="M56.9455 36.5334C56.6099 36.7667 56.3652 37.0644 56.1799 37.0312C55.9808 36.9955 55.7662 36.668 55.7036 36.4296C55.6769 36.3283 56.0418 35.9864 56.189 36.009C56.4233 36.0455 56.6248 36.2956 56.9455 36.5334Z" fill="#F4F7FF"></path><path d="M59.1179 37.2435C58.9057 36.8883 58.6237 36.6217 58.6698 36.4366C58.7173 36.2471 59.0755 36.0593 59.3187 36.0271C59.433 36.0117 59.7393 36.3969 59.7049 36.5392C59.6494 36.7678 59.3831 36.9455 59.1179 37.2435Z" fill="#F4F7FF"></path><path d="M60.7074 35.7685C60.4499 35.4556 60.133 35.2347 60.1524 35.049C60.1732 34.8487 60.4848 34.6045 60.7173 34.5324C60.8289 34.4978 61.2005 34.8279 61.188 34.9698C61.1675 35.2049 60.9318 35.4215 60.7074 35.7685Z" fill="#F4F7FF"></path><path d="M57.7169 35.7642C57.4716 35.4417 57.164 35.2103 57.1891 35.0227C57.2152 34.8261 57.5399 34.596 57.7752 34.5324C57.8853 34.5026 58.2415 34.8508 58.2223 34.9913C58.1895 35.2284 57.9464 35.4364 57.7169 35.7642Z" fill="#F4F7FF"></path><path d="M54.7637 35.7688C54.5155 35.4495 54.2602 35.2553 54.2236 35.0259C54.1996 34.8767 54.5323 34.5087 54.6368 34.5329C54.8783 34.5888 55.2115 34.795 55.255 34.9951C55.2941 35.1741 54.9959 35.4269 54.7637 35.7688Z" fill="#F4F7FF"></path><path d="M55.4693 37.9427C55.1633 38.2037 54.9801 38.4663 54.7501 38.5174C54.604 38.5498 54.2207 38.2415 54.2378 38.1313C54.2751 37.8905 54.4681 37.5375 54.6571 37.4949C54.8474 37.4518 55.1105 37.7296 55.4693 37.9427Z" fill="#F4F7FF"></path><path d="M56.9727 38.0739C57.2744 37.8073 57.4525 37.542 57.6817 37.4869C57.8254 37.4521 58.2111 37.7517 58.1972 37.8672C58.1687 38.1068 57.9789 38.4708 57.796 38.5107C57.6001 38.5533 57.3354 38.2817 56.9727 38.0739Z" fill="#F4F7FF"></path><path d="M56.1698 53.3061C56.4302 53.6134 56.6917 53.7967 56.7421 54.0266C56.7735 54.1694 56.46 54.5472 56.3465 54.5294C56.1063 54.4924 55.7547 54.2961 55.7126 54.1069C55.6711 53.9191 55.9528 53.6594 56.1698 53.3061Z" fill="#F4F7FF"></path><path d="M59.8501 57.0277C59.4013 57.3328 59.1206 57.7189 58.7383 57.2679C58.4901 56.9753 58.6586 56.7111 58.9137 56.5464C59.4202 56.2197 59.5487 56.6693 59.8501 57.0277Z" fill="#F4F7FF"></path><path d="M56.8354 33.5014C56.5885 33.9724 56.3886 34.3267 55.9197 33.983C55.6724 33.8015 55.5268 33.5267 55.8057 33.2582C56.2082 32.8706 56.4728 33.258 56.8354 33.5014Z" fill="#F4F7FF"></path><path d="M51.1899 23.3652C51.5834 22.8767 51.94 22.6644 52.2468 23.0779C52.374 23.2489 52.2015 23.6414 52.1365 24.1629C51.7044 23.7986 51.4706 23.6018 51.1899 23.3652Z" fill="#F4F7FF"></path><path d="M53.1721 50.4787C53.6351 50.6777 53.9984 50.8576 53.7028 51.3415C53.5471 51.5967 53.2728 51.7608 52.9785 51.5182C52.5153 51.1364 52.9154 50.8602 53.1721 50.4787Z" fill="#F4F7FF"></path><path d="M62.2249 37.1209C61.7552 36.8966 61.3711 36.7154 61.7179 36.2317C61.8912 35.9896 62.1703 35.8313 62.4531 36.0971C62.8796 36.498 62.4741 36.7588 62.2249 37.1209Z" fill="#F4F7FF"></path><path d="M59.8683 33.4429C59.5233 33.9963 59.2888 34.3525 58.8615 33.9449C58.7325 33.8217 58.6408 33.47 58.7218 33.3495C59.1296 32.74 59.4066 33.3269 59.8683 33.4429Z" fill="#F4F7FF"></path><path d="M62.7836 33.5193C62.4963 33.9998 62.2555 34.3395 61.8285 33.9439C61.6976 33.8228 61.6011 33.4674 61.6811 33.3506C62.0817 32.7663 62.3814 33.2657 62.7836 33.5193Z" fill="#F4F7FF"></path><path d="M51.6879 51.9582C52.1512 52.1583 52.5233 52.3329 52.2218 52.8184C52.0661 53.069 51.7908 53.2377 51.4968 52.9951C51.0351 52.6138 51.4354 52.3379 51.6879 51.9582Z" fill="#F4F7FF"></path><path d="M60.7127 51.8798C60.9393 52.3225 61.5215 52.6008 60.8868 52.9988C60.7524 53.0831 60.3057 52.9299 60.2076 52.7646C59.8976 52.2432 60.4134 52.1756 60.7127 51.8798Z" fill="#F4F7FF"></path><path d="M59.828 54.0213C59.4601 54.3299 59.2141 54.7088 58.7978 54.3648C58.5112 54.128 58.6018 53.8563 58.8537 53.6384C59.3226 53.2324 59.5145 53.6368 59.828 54.0213Z" fill="#F4F7FF"></path><path d="M58.3022 55.5923C57.9237 55.8392 57.651 56.2375 57.2653 55.7908C57.0164 55.5024 57.1734 55.2352 57.4306 55.0737C57.9117 54.772 58.0949 55.1278 58.3022 55.5923Z" fill="#F4F7FF"></path><path d="M51.2326 61.3306C51.5354 60.8661 51.8446 60.663 52.2138 61.0095C52.3186 61.1079 52.3167 61.5094 52.2112 61.6065C51.834 61.9534 51.5359 61.7108 51.2326 61.3306Z" fill="#F4F7FF"></path><path d="M53.3392 57.546C53.1028 57.2951 52.91 57.0902 52.725 56.8938C52.9775 56.4421 53.2557 56.2412 53.6503 56.6523C53.985 57.0008 53.8019 57.2538 53.3392 57.546Z" fill="#F4F7FF"></path><path d="M61.1794 58.342C60.9326 58.8203 60.5989 58.9911 60.1748 58.5913C60.0879 58.5093 60.0935 58.1722 60.1833 58.0876C60.6159 57.6814 60.9366 57.8891 61.1794 58.342Z" fill="#F4F7FF"></path><path d="M49.7465 24.8293C50.0493 24.3733 50.3599 24.1692 50.7296 24.514C50.8341 24.6114 50.8309 25.0145 50.7248 25.1113C50.3481 25.4556 50.0469 25.2239 49.7465 24.8293Z" fill="#F4F7FF"></path><path d="M52.7472 24.7955C53.006 24.3533 53.3307 24.137 53.7569 24.5643C53.8427 24.6508 53.8323 24.9871 53.7414 25.0677C53.3085 25.4511 52.9767 25.2827 52.7472 24.7955Z" fill="#F4F7FF"></path><path d="M57.1704 58.6232C57.4807 58.004 57.8478 57.974 58.2719 58.533C57.9272 58.9225 57.5663 58.8621 57.1704 58.6232Z" fill="#F4F7FF"></path><path d="M55.6044 57.1096C55.9904 56.6123 56.3909 56.5582 56.8058 56.9473C56.5352 57.5071 56.1413 57.3629 55.6044 57.1096Z" fill="#F4F7FF"></path><path d="M62.0124 57.4946C61.563 57.2408 61.3572 56.9159 61.7811 56.4926C61.8669 56.4067 62.2049 56.4168 62.2851 56.5073C62.6647 56.9361 62.5088 57.2695 62.0124 57.4946Z" fill="#F4F7FF"></path><path d="M54.2194 26.3126C54.4825 25.8254 54.8088 25.6283 55.236 26.0401C55.3227 26.1237 55.3163 26.4565 55.2259 26.5438C54.7893 26.9657 54.4873 26.6946 54.2194 26.3126Z" fill="#F4F7FF"></path><path d="M58.6482 39.5952C58.9926 39.013 59.3555 39.0047 59.7369 39.5702C59.3754 39.9192 59.0241 39.9035 58.6482 39.5952Z" fill="#F4F7FF"></path><path d="M62.665 42.3076C62.4315 42.7961 62.0935 42.9544 61.6635 42.5763C61.5737 42.4973 61.5676 42.157 61.655 42.0713C62.0833 41.651 62.4091 41.8657 62.665 42.3076Z" fill="#F4F7FF"></path><path d="M51.2475 43.8052C51.5077 43.366 51.8182 43.1704 52.1978 43.4857C52.3073 43.5764 52.3252 43.984 52.2242 44.0835C51.8635 44.4387 51.5495 44.2386 51.2475 43.8052Z" fill="#F4F7FF"></path><path d="M52.749 27.7788C52.9804 27.2943 53.3131 27.128 53.7436 27.512C53.8334 27.592 53.8401 27.9283 53.7534 28.0143C53.3269 28.4381 53.0023 28.2292 52.749 27.7788Z" fill="#F4F7FF"></path><path d="M60.6301 44.4038C60.3945 44.17 60.1618 44.0452 60.1165 43.8717C60.029 43.5357 60.2521 43.3069 60.5877 43.3596C60.7855 43.3907 60.9558 43.5971 61.1384 43.7249C60.9886 43.9249 60.8388 44.125 60.6301 44.4038Z" fill="#F4F7FF"></path><path d="M59.7304 27.7378C59.4324 28.2074 59.1235 28.4096 58.7514 28.0691C58.6456 27.9722 58.6437 27.5694 58.7487 27.471C59.1227 27.1195 59.4218 27.363 59.7304 27.7378Z" fill="#F4F7FF"></path><path d="M52.7354 45.288C52.9951 44.8388 53.3075 44.6539 53.6836 44.9682C53.7915 45.0586 53.8067 45.4643 53.7049 45.5644C53.3432 45.9209 53.0324 45.7166 52.7354 45.288Z" fill="#F4F7FF"></path><path d="M51.252 29.2179C51.6055 28.7651 51.94 28.6225 52.2628 29.0019C52.3521 29.1069 52.2847 29.5169 52.1629 29.5976C51.7577 29.8668 51.4584 29.6508 51.252 29.2179Z" fill="#F4F7FF"></path><path d="M59.7104 45.2792C59.4215 45.7192 59.1099 45.9161 58.7436 45.5702C58.6402 45.4726 58.6477 45.0674 58.7543 44.9735C59.1283 44.6454 59.4402 44.838 59.7104 45.2792Z" fill="#F4F7FF"></path><path d="M62.6639 45.272C62.4283 45.7474 62.098 45.9251 61.6657 45.5351C61.575 45.4532 61.567 45.1131 61.6537 45.0299C62.0788 44.6215 62.4104 44.8104 62.6639 45.272Z" fill="#F4F7FF"></path><path d="M61.1773 29.2477C60.9417 29.7218 60.6138 29.902 60.1831 29.5066C60.0924 29.4233 60.0845 29.0857 60.1708 29.0032C60.596 28.5962 60.9267 28.7821 61.1773 29.2477Z" fill="#F4F7FF"></path><path d="M51.2678 46.7848C51.4752 46.2979 51.7998 46.1345 52.2405 46.4772C52.338 46.5531 52.3737 46.8936 52.294 46.9793C51.8942 47.41 51.5554 47.2355 51.2678 46.7848Z" fill="#F4F7FF"></path><path d="M54.2188 46.7651C54.4926 46.3128 54.806 46.1287 55.176 46.4586C55.2818 46.5531 55.2851 46.9588 55.1809 47.0548C54.8114 47.3954 54.5003 47.195 54.2188 46.7651Z" fill="#F4F7FF"></path><path d="M49.7479 59.8391C50.067 59.3939 50.3746 59.1737 50.7395 59.5384C50.8426 59.6414 50.8314 60.0458 50.7237 60.1376C50.3431 60.4616 50.0397 60.2379 49.7479 59.8391Z" fill="#F4F7FF"></path><path d="M55.5383 30.3793H56.798C56.4526 31.0471 56.0327 31.0471 55.5383 30.3793Z" fill="#F4F7FF"></path><path d="M61.1936 46.751C60.9353 47.186 60.6264 47.3845 60.2465 47.071C60.1375 46.9808 60.1199 46.5741 60.2209 46.4737C60.5786 46.1188 60.8932 46.3112 61.1936 46.751Z" fill="#F4F7FF"></path><path d="M62.674 30.7794C62.3112 31.2064 61.9754 31.362 61.6574 30.9723C61.5691 30.8643 61.6456 30.4474 61.7666 30.3766C62.1652 30.143 62.4858 30.3125 62.674 30.7794Z" fill="#F4F7FF"></path><path d="M48.9541 49.0729C49.38 49.3815 49.588 49.6933 49.215 50.0472C49.1105 50.1464 48.7035 50.1201 48.615 50.0089C48.3098 49.6257 48.5004 49.3166 48.9541 49.0729Z" fill="#F4F7FF"></path><path d="M62.6778 39.3408C62.4037 39.8016 62.0857 39.9785 61.7136 39.6622C61.6075 39.572 61.6035 39.1609 61.7086 39.0622C62.0762 38.7169 62.388 38.9225 62.6778 39.3408Z" fill="#F4F7FF"></path><path d="M55.299 31.9795C54.9597 32.4902 54.5735 32.5268 54.1402 32.0894C54.5038 31.6733 54.8626 31.6265 55.299 31.9795Z" fill="#F4F7FF"></path><path d="M57.0961 31.8787H58.3779C58.1745 32.1903 58.0962 32.4627 57.9269 32.5415C57.4194 32.7775 57.2603 32.4178 57.0961 31.8787Z" fill="#F4F7FF"></path><path d="M51.2736 49.7505C51.4381 49.4036 51.614 49.0026 52.0835 49.1961C52.3764 49.3168 52.4574 49.6388 52.1917 49.9157C51.8145 50.3092 51.5167 50.1789 51.2736 49.7505Z" fill="#F4F7FF"></path><path d="M54.1815 49.668C54.4347 49.4352 54.6419 49.2445 54.8402 49.062C55.2104 49.2684 55.4762 49.4967 55.179 49.878C54.8605 50.2864 54.5331 50.2315 54.1815 49.668Z" fill="#F4F7FF"></path><path d="M47.4629 33.0502C47.907 33.3434 48.0971 33.6563 47.7361 34.013C47.6338 34.1141 47.2273 34.0966 47.1367 33.9872C46.8218 33.6086 47.0106 33.2992 47.4629 33.0502Z" fill="#F4F7FF"></path><path d="M61.2376 49.6686C60.9038 50.1613 60.6383 50.2901 60.3065 49.9636C59.9746 49.6375 60.1146 49.3722 60.5104 49.0566C60.738 49.2482 60.9718 49.4451 61.2376 49.6686Z" fill="#F4F7FF"></path><path d="M65.604 33.6036C65.3695 33.838 65.2415 34.067 65.0683 34.1131C64.7324 34.2014 64.5058 33.9798 64.5565 33.6467C64.5884 33.4511 64.7937 33.283 64.9217 33.1026C65.1189 33.2476 65.3162 33.3923 65.604 33.6036Z" fill="#F4F7FF"></path><path d="M53.815 33.4578C53.4791 33.9668 53.0926 34.0051 52.6555 33.5727C53.018 33.1563 53.3773 33.1055 53.815 33.4578Z" fill="#F4F7FF"></path><path d="M63.4849 49.0691C63.9834 49.3389 64.1726 49.6672 63.7541 50.0876C63.6688 50.1735 63.3356 50.1645 63.2485 50.0735C62.8252 49.6308 63.1266 49.341 63.4849 49.0691Z" fill="#F4F7FF"></path><path d="M51.4829 35.7549C51.5096 35.1837 51.5253 34.8509 51.5437 34.4558C52.2175 34.8181 52.1973 35.2512 51.4829 35.7549Z" fill="#F4F7FF"></path><path d="M67.0888 49.6433C66.8489 49.8737 66.7182 50.1023 66.5423 50.1446C66.2011 50.2268 65.9825 49.995 66.0412 49.6643C66.0732 49.468 66.2837 49.3017 66.4144 49.1221C66.609 49.2732 66.8035 49.4241 67.0888 49.6433Z" fill="#F4F7FF"></path><path d="M58.3217 49.515C57.9036 50.0074 57.5087 50.0137 57.1371 49.5339C57.4807 49.1479 57.84 49.174 58.3217 49.515Z" fill="#F4F7FF"></path><path d="M50.0632 37.2063V35.9524C50.7399 36.2893 50.7399 36.7073 50.0632 37.2063Z" fill="#F4F7FF"></path><path d="M47.4373 50.5524C47.8849 50.7961 48.0789 51.1047 47.7711 51.4881C47.6818 51.5996 47.2731 51.6262 47.1718 51.5275C46.8123 51.1761 46.9919 50.8576 47.4373 50.5524Z" fill="#F4F7FF"></path><path d="M48.9237 38.519C48.4809 38.222 48.2914 37.9078 48.651 37.5519C48.7525 37.4515 49.1588 37.4718 49.2505 37.5817C49.5677 37.9621 49.3734 38.2699 48.9237 38.519Z" fill="#F4F7FF"></path><path d="M51.843 38.5583C51.6074 38.2981 51.4197 38.0909 51.2422 37.8945C51.5079 37.4244 51.8102 37.2789 52.1815 37.678C52.5134 38.0345 52.2991 38.2811 51.843 38.5583Z" fill="#F4F7FF"></path><path d="M61.3173 37.9964C61.0736 38.1967 60.8553 38.3761 60.6671 38.5309C60.2057 38.3633 59.9384 38.1571 60.2041 37.7591C60.4784 37.3483 60.8156 37.3369 61.3173 37.9964Z" fill="#F4F7FF"></path><path d="M63.4087 37.264C63.6608 37.5088 63.9434 37.6689 63.9274 37.7937C63.8981 38.03 63.7008 38.2457 63.5729 38.4703C63.4012 38.2891 63.1581 38.1324 63.0856 37.918C63.04 37.7836 63.2512 37.5628 63.4087 37.264Z" fill="#F4F7FF"></path><path d="M66.465 38.5049C66.0092 38.2516 65.8146 37.9246 66.2358 37.5037C66.3211 37.4183 66.6569 37.43 66.7396 37.5215C67.1207 37.952 66.9582 38.2819 66.465 38.5049Z" fill="#F4F7FF"></path><path d="M52.748 59.8106C53.0068 59.3714 53.3307 59.1521 53.7569 59.5797C53.8427 59.6659 53.8329 60.0025 53.7422 60.0825C53.3101 60.4646 52.9775 60.2986 52.748 59.8106Z" fill="#F4F7FF"></path><path d="M56.9127 60.1786H55.6487C55.9882 59.5049 56.4096 59.5049 56.9127 60.1786Z" fill="#F4F7FF"></path><path d="M62.0378 50.4721C62.31 50.7626 62.5024 50.9682 62.6874 51.1662C62.4366 51.6206 62.1524 51.8047 61.7592 51.4115C61.406 51.0582 61.6635 50.8216 62.0378 50.4721Z" fill="#F4F7FF"></path><path d="M62.6642 59.8234C62.4157 60.2975 62.0815 60.4752 61.6542 60.0764C61.567 59.995 61.5729 59.6563 61.6635 59.5706C62.0967 59.1604 62.4197 59.3671 62.6642 59.8234Z" fill="#F4F7FF"></path><path d="M64.9963 50.567C65.4788 50.8068 65.6467 51.138 65.2415 51.5616C65.1589 51.6488 64.8204 51.6451 64.7377 51.556C64.3432 51.1284 64.5138 50.7996 64.9963 50.567Z" fill="#F4F7FF"></path><path d="M58.4094 41.2657C57.8363 41.2285 57.5047 41.207 57.1078 41.1814C57.4879 40.5253 57.9218 40.5534 58.4094 41.2657Z" fill="#F4F7FF"></path><path d="M54.2191 61.3133C54.4774 60.869 54.7871 60.674 55.1656 60.9932C55.2749 61.0856 55.2909 61.4937 55.1894 61.5929C54.8287 61.9449 54.5139 61.7534 54.2191 61.3133Z" fill="#F4F7FF"></path><path d="M50.0547 54.8828V53.2047C50.459 53.6219 50.8128 53.8276 50.8085 54.025C50.8037 54.2381 50.4633 54.4432 50.0547 54.8828Z" fill="#F4F7FF"></path><path d="M61.316 61.2037C61.0515 61.4538 60.919 61.6725 60.7351 61.7315C60.4504 61.8231 60.1201 61.7432 60.1159 61.3729C60.114 61.2023 60.3358 60.8905 60.4621 60.8876C60.7007 60.8818 60.9435 61.0528 61.316 61.2037Z" fill="#F4F7FF"></path><path d="M65.0043 54.5337C64.5245 54.3105 64.3539 53.9838 64.7298 53.5525C64.8097 53.4607 65.1456 53.4466 65.2335 53.5312C65.66 53.9489 65.4628 54.2761 65.0043 54.5337Z" fill="#F4F7FF"></path><path d="M48.8999 56.0244C48.4393 55.6761 48.3053 55.343 48.6894 55.0251C48.7976 54.9354 49.2089 55.0027 49.2875 55.1235C49.5512 55.5276 49.3454 55.8291 48.8999 56.0244Z" fill="#F4F7FF"></path><path d="M52.7339 62.7955C52.9935 62.3464 53.3046 62.1572 53.6817 62.4757C53.7905 62.5675 53.8051 62.9724 53.7033 63.0727C53.3405 63.4311 53.03 63.2244 52.7339 62.7955Z" fill="#F4F7FF"></path><path d="M49.7484 42.3321C50.0651 41.884 50.3745 41.6709 50.7392 42.0293C50.8418 42.1304 50.8306 42.5353 50.7229 42.6277C50.3439 42.9515 50.0392 42.733 49.7484 42.3321Z" fill="#F4F7FF"></path><path d="M59.728 62.7514C59.4506 63.2154 59.1403 63.4114 58.7615 63.0959C58.6536 63.0057 58.6392 62.5997 58.7415 62.4981C59.1032 62.1378 59.41 62.3597 59.728 62.7514Z" fill="#F4F7FF"></path><path d="M55.2691 55.7203H54.0192C54.3119 55.3654 54.5003 54.9839 54.6403 55.0009C54.8978 55.032 55.1267 55.2975 55.3677 55.4651C55.3346 55.5503 55.3019 55.6352 55.2691 55.7203Z" fill="#F4F7FF"></path><path d="M51.2675 64.2793C51.4938 63.7849 51.8265 63.6237 52.2586 64.0052C52.35 64.0859 52.3617 64.4224 52.2762 64.5089C51.8505 64.938 51.5263 64.7204 51.2675 64.2793Z" fill="#F4F7FF"></path><path d="M60.5645 56.0619C60.0325 55.6923 60.004 55.4125 60.3318 55.1171C60.6893 54.7952 60.9374 54.9814 61.1997 55.3824C60.9971 55.599 60.7834 55.8275 60.5645 56.0619Z" fill="#F4F7FF"></path><path d="M56.9167 42.6705H55.6486C55.9872 41.999 56.4098 41.999 56.9167 42.6705Z" fill="#F4F7FF"></path><path d="M47.4581 65.1075C47.9052 65.3643 48.1235 65.6878 47.6988 66.1159C47.6133 66.2026 47.2764 66.1949 47.1932 66.1044C46.7952 65.671 46.9866 65.3451 47.4581 65.1075Z" fill="#F4F7FF"></path><path d="M50.4582 65.0947C50.893 65.4598 51.0652 65.7905 50.6595 66.1087C50.547 66.1968 50.1389 66.1249 50.0619 66.0033C49.8036 65.5952 50.0211 65.2972 50.4582 65.0947Z" fill="#F4F7FF"></path><path d="M63.3836 54.7465C63.6582 55.0142 63.9407 55.1746 63.9274 55.2991C63.8981 55.5362 63.6982 55.7527 63.5702 55.9778C63.4017 55.8443 63.1117 55.7253 63.0933 55.5737C63.0672 55.3582 63.2407 55.1182 63.3836 54.7465Z" fill="#F4F7FF"></path><path d="M47.5525 57.6335C47.3017 57.3715 47.0818 57.24 47.022 57.0567C46.9293 56.772 47.0138 56.4448 47.3824 56.4397C47.553 56.4376 47.8652 56.6571 47.8686 56.7827C47.875 57.0189 47.7042 57.2605 47.5525 57.6335Z" fill="#F4F7FF"></path><path d="M48.9378 66.577C49.3758 66.8694 49.5826 67.178 49.2278 67.5438C49.1276 67.6471 48.7224 67.6391 48.6291 67.5324C48.301 67.157 48.4998 66.847 48.9378 66.577Z" fill="#F4F7FF"></path><path d="M56.9345 39.7769C56.3598 39.7466 56.0258 39.7292 55.6292 39.7085C55.9974 39.0464 56.4325 39.0692 56.9345 39.7769Z" fill="#F4F7FF"></path><path d="M47.5269 25.4359C47.2828 25.1707 47.0287 25.0164 47.0293 24.8629C47.0298 24.6947 47.2652 24.5274 47.3982 24.3595C47.5658 24.4933 47.8327 24.6034 47.8718 24.7676C47.9078 24.9182 47.698 25.127 47.5269 25.4359Z" fill="#F4F7FF"></path><path d="M55.7022 24.8211C56.0871 24.4881 56.4556 24.5478 56.8076 25.0001C56.3462 25.4226 56.0058 25.3194 55.7022 24.8211Z" fill="#F4F7FF"></path><path d="M49.5613 26.2242C49.2907 26.4605 49.1327 26.7069 48.9722 26.7087C48.8101 26.7103 48.5265 26.478 48.5153 26.3317C48.5036 26.1782 48.7315 25.9012 48.8927 25.8693C49.0492 25.8384 49.2542 26.0492 49.5613 26.2242Z" fill="#F4F7FF"></path><path d="M52.5307 26.2168C52.2596 26.4557 52.1029 26.7026 51.9406 26.7063C51.7812 26.71 51.4994 26.477 51.4861 26.3288C51.4722 26.1782 51.7009 25.9007 51.8609 25.8693C52.0189 25.8384 52.2239 26.0457 52.5307 26.2168Z" fill="#F4F7FF"></path><path d="M47.4483 28.3939C47.2433 28.1132 47.0069 27.9299 47.0221 27.7705C47.0378 27.6056 47.3001 27.343 47.4507 27.3457C47.6069 27.3483 47.8641 27.6075 47.8809 27.774C47.8966 27.931 47.6567 28.1135 47.4483 28.3939Z" fill="#F4F7FF"></path><path d="M51.0476 27.6982C50.7768 27.9385 50.6198 28.1872 50.4601 28.1888C50.2978 28.1907 50.02 27.9629 50.0011 27.81C49.983 27.665 50.2149 27.3829 50.3738 27.3523C50.5331 27.3217 50.7381 27.5274 51.0476 27.6982Z" fill="#F4F7FF"></path><path d="M56.9231 27.7267C56.592 27.9294 56.3782 28.1292 56.1354 28.1747C56.0397 28.1925 55.8792 27.8658 55.7483 27.6961C55.9802 27.5732 56.202 27.4066 56.4494 27.3486C56.5477 27.3255 56.7024 27.5426 56.9231 27.7267Z" fill="#F4F7FF"></path><path d="M49.5629 29.3297C49.25 29.4983 49.0402 29.7043 48.8853 29.6692C48.7248 29.6327 48.5044 29.3515 48.5196 29.198C48.5342 29.0532 48.8232 28.8327 48.9877 28.8356C49.1447 28.8385 49.2971 29.0873 49.5629 29.3297Z" fill="#F4F7FF"></path><path d="M55.3213 29.0434C55.184 29.456 55.0225 29.7886 54.5368 29.6053C54.4115 29.5579 54.2458 29.2666 54.2879 29.1862C54.5363 28.7121 54.8874 28.6658 55.3213 29.0434Z" fill="#F4F7FF"></path><path d="M57.0041 28.6286C57.6452 28.8715 57.9504 28.9872 58.3222 29.1283C57.8284 29.5862 57.389 29.4197 57.0041 28.6286Z" fill="#F4F7FF"></path><path d="M48.0821 30.6535C47.8089 30.898 47.6503 31.1508 47.4936 31.1497C47.328 31.1487 47.1641 30.9057 46.9994 30.7685C47.1351 30.607 47.2502 30.3462 47.4123 30.313C47.5682 30.2808 47.7727 30.4843 48.0821 30.6535Z" fill="#F4F7FF"></path><path d="M50.4775 30.1118C50.6568 30.4117 50.8749 30.6158 50.8418 30.7645C50.8056 30.9289 50.5395 31.0428 50.3735 31.1787C50.2389 31.0143 50.0035 30.852 49.9992 30.6844C49.9955 30.5328 50.2445 30.3747 50.4775 30.1118Z" fill="#F4F7FF"></path><path d="M53.9656 30.6809C53.6335 30.8847 53.4207 31.0851 53.1795 31.1295C53.0812 31.1479 52.9204 30.8275 52.788 30.6612C53.0183 30.5378 53.2379 30.3707 53.4839 30.3116C53.5834 30.2877 53.7398 30.4998 53.9656 30.6809Z" fill="#F4F7FF"></path><path d="M58.6333 30.5298C58.9841 30.152 59.3277 30.1781 59.5817 30.5628C59.6446 30.6583 59.4895 31.0486 59.3645 31.0896C58.9004 31.2413 58.7021 30.9491 58.6333 30.5298Z" fill="#F4F7FF"></path><path d="M49.5653 32.2709C49.2558 32.4483 49.05 32.6609 48.8943 32.629C48.7333 32.5963 48.6209 32.3262 48.4871 32.1599C48.6521 32.0293 48.8168 31.7973 48.9823 31.797C49.1391 31.7965 49.2963 32.0389 49.5653 32.2709Z" fill="#F4F7FF"></path><path d="M61.1877 32.2057C60.9342 32.6498 60.6447 32.828 60.2817 32.4159C60.1852 32.3066 60.13 31.991 60.1948 31.9375C60.6436 31.5664 60.9414 31.809 61.1877 32.2057Z" fill="#F4F7FF"></path><path d="M63.5675 32.8325C63.334 32.5622 63.0867 32.4015 63.0885 32.2438C63.0907 32.0825 63.3252 31.8141 63.4796 31.7973C63.6262 31.7814 63.9061 32.0168 63.9301 32.1738C63.9567 32.3326 63.7462 32.5311 63.5675 32.8325Z" fill="#F4F7FF"></path><path d="M50.254 34.2097C49.838 33.6906 49.8891 33.3572 50.309 33.1406C50.4065 33.0906 50.6891 33.2082 50.7573 33.3242C51.0612 33.842 50.5976 33.9361 50.254 34.2097Z" fill="#F4F7FF"></path><path d="M48.7443 35.5993C48.3461 35.2494 48.3762 34.9072 48.7619 34.6524C48.8605 34.5872 49.2529 34.7338 49.2982 34.8594C49.4715 35.3385 49.138 35.5045 48.7443 35.5993Z" fill="#F4F7FF"></path><path d="M63.5382 34.5436C63.9887 34.8038 64.1433 35.1244 63.7674 35.5695C63.2175 35.2907 63.1411 34.9487 63.5382 34.5436Z" fill="#F4F7FF"></path><path d="M48.0352 36.6108C47.7431 36.7787 47.5589 36.8846 47.3747 36.9907C47.2518 36.7606 47.0932 36.5398 47.0287 36.2945C47.0108 36.2258 47.3491 35.9685 47.3891 35.9959C47.6026 36.1407 47.7732 36.3482 48.0352 36.6108Z" fill="#F4F7FF"></path><path d="M65.2549 35.9976C65.628 36.4424 65.4734 36.7633 65.0229 37.0211C64.6231 36.6161 64.7004 36.275 65.2549 35.9976Z" fill="#F4F7FF"></path><path d="M59.6843 59.8532C59.4293 60.3313 59.0894 60.3991 58.6477 60.0969C58.9377 59.5394 59.2833 59.4582 59.6843 59.8532Z" fill="#F4F7FF"></path><path d="M48.3111 61.3154C48.5886 61.105 48.7704 60.8621 48.9255 60.878C49.0951 60.8953 49.2401 61.152 49.3957 61.3045C49.2422 61.4569 49.1007 61.7121 48.9317 61.732C48.776 61.7504 48.5905 61.5155 48.3111 61.3154Z" fill="#F4F7FF"></path><path d="M57.1006 61.5198C57.4679 61.0497 57.8377 60.9779 58.21 61.3043C57.9792 61.7882 57.6545 61.9141 57.1006 61.5198Z" fill="#F4F7FF"></path><path d="M47.533 62.1565C47.7015 62.4656 47.9078 62.6737 47.8721 62.8253C47.834 62.9887 47.5693 63.0994 47.4035 63.2332C47.2705 63.0669 47.0327 62.8996 47.0343 62.7343C47.0356 62.5782 47.2878 62.4241 47.533 62.1565Z" fill="#F4F7FF"></path><path d="M51.0428 62.7918C50.7603 62.9924 50.5753 63.2257 50.4124 63.2111C50.2503 63.1967 49.9918 62.9317 49.9942 62.7798C49.9963 62.6266 50.2594 62.3677 50.4217 62.3568C50.5849 62.3456 50.7645 62.5837 51.0428 62.7918Z" fill="#F4F7FF"></path><path d="M48.313 64.2625C48.5892 64.0595 48.772 63.8219 48.9271 63.839C49.0967 63.8576 49.2403 64.1117 49.3952 64.2628C49.2425 64.4168 49.1007 64.6768 48.9333 64.6943C48.7768 64.7108 48.5932 64.4706 48.313 64.2625Z" fill="#F4F7FF"></path><path d="M54.2364 64.2389C54.4985 63.7913 54.8194 63.6293 55.2661 64.0122C54.9866 64.5592 54.6434 64.6347 54.2364 64.2389Z" fill="#F4F7FF"></path><path d="M52.7344 65.7445C53.0297 65.3007 53.3323 65.1115 53.7116 65.4561C53.7854 65.5234 53.751 65.8283 53.6609 65.9358C53.3187 66.3457 53.0137 66.2194 52.7344 65.7445Z" fill="#F4F7FF"></path><path d="M47.5325 60.4503C47.2859 60.1858 47.0314 60.0331 47.0311 59.8798C47.0309 59.7119 47.2654 59.5438 47.3976 59.3756C47.5653 59.5097 47.8295 59.6191 47.8716 59.7851C47.9092 59.9325 47.701 60.1424 47.5325 60.4503Z" fill="#F4F7FF"></path><path d="M64.122 58.5468C63.7755 58.6511 63.5329 58.8086 63.3866 58.7448C63.2351 58.6791 63.0624 58.3574 63.1104 58.2228C63.1629 58.0751 63.4796 57.908 63.6395 57.9429C63.7968 57.9775 63.9007 58.2531 64.122 58.5468Z" fill="#F4F7FF"></path><path d="M55.276 58.5926C54.8426 58.948 54.5126 58.8408 54.2476 58.3827C54.6364 57.9799 54.9792 58.0498 55.276 58.5926Z" fill="#F4F7FF"></path><path d="M51.2792 58.3604C51.5586 58.1459 51.7388 57.9019 51.8928 57.9174C52.0627 57.9344 52.2082 58.1898 52.3644 58.3415C52.2116 58.4934 52.0722 58.7459 51.9024 58.768C51.7484 58.7882 51.5618 58.5575 51.2792 58.3604Z" fill="#F4F7FF"></path><path d="M48.8621 57.716C49.1044 57.9871 49.3531 58.143 49.3574 58.305C49.3616 58.4636 49.1276 58.744 48.9775 58.7584C48.8269 58.773 48.5476 58.5458 48.5156 58.3864C48.4841 58.2289 48.6912 58.0235 48.8621 57.716Z" fill="#F4F7FF"></path><path d="M57.1334 44.0069C57.2432 43.5881 57.4159 43.2742 57.8965 43.4354C58.0253 43.4788 58.2049 43.7727 58.165 43.8502C57.9216 44.3187 57.5719 44.3996 57.1334 44.0069Z" fill="#F4F7FF"></path><path d="M51.0018 57.0987C50.7029 57.2538 50.5161 57.351 50.329 57.4483C50.2125 57.2147 50.0632 56.9894 50.0024 56.7422C49.9867 56.6792 50.3308 56.4355 50.3732 56.4658C50.583 56.6151 50.7469 56.8284 51.0018 57.0987Z" fill="#F4F7FF"></path><path d="M51.6602 56.2623C51.5743 55.6482 51.5306 55.335 51.4725 54.9205C52.1371 55.2302 52.1997 55.6775 51.6602 56.2623Z" fill="#F4F7FF"></path><path d="M62.1801 53.47C62.6826 53.8959 62.5362 54.2341 62.0868 54.4839C62.0109 54.526 61.7153 54.3586 61.6675 54.2327C61.4828 53.7445 61.8216 53.5886 62.1801 53.47Z" fill="#F4F7FF"></path><path d="M47.714 53.5062C48.0888 53.9563 47.9246 54.2775 47.4763 54.5377C47.0762 54.1256 47.1555 53.7818 47.714 53.5062Z" fill="#F4F7FF"></path><path d="M67.0621 52.4613C66.7982 52.7231 66.6303 52.9309 66.4171 53.0746C66.3744 53.1025 66.0386 52.8476 66.0546 52.7809C66.1212 52.5356 66.2785 52.3148 66.3984 52.0846C66.585 52.1897 66.7689 52.2948 67.0621 52.4613Z" fill="#F4F7FF"></path><path d="M63.7008 53.105C63.3039 53.0164 62.9774 52.8472 63.1493 52.3696C63.1946 52.2443 63.5835 52.0966 63.6795 52.1607C64.0686 52.4143 64.098 52.7554 63.7008 53.105Z" fill="#F4F7FF"></path><path d="M48.676 53.0762C48.2991 52.6282 48.4588 52.3076 48.9103 52.0492C49.3128 52.4568 49.2347 52.7992 48.676 53.0762Z" fill="#F4F7FF"></path><path d="M51.0036 50.985C50.7427 51.2463 50.5723 51.4533 50.3593 51.597C50.3186 51.6244 49.9816 51.3689 49.9995 51.3008C50.0637 51.0558 50.2213 50.835 50.3436 50.6051C50.5275 50.711 50.7112 50.8166 51.0036 50.985Z" fill="#F4F7FF"></path><path d="M67.8751 48.8624C67.7098 48.5506 67.5073 48.342 67.5419 48.1874C67.5793 48.0283 67.8618 47.807 68.0084 47.8245C68.1603 47.8421 68.3842 48.1244 68.3789 48.2838C68.3736 48.4431 68.123 48.5942 67.8751 48.8624Z" fill="#F4F7FF"></path><path d="M65.62 48.2231C65.3375 48.437 65.1562 48.6794 64.999 48.6642C64.831 48.648 64.6871 48.3886 64.5351 48.2353C64.6871 48.0842 64.8284 47.832 64.9963 47.812C65.1536 47.7939 65.3375 48.0246 65.62 48.2231Z" fill="#F4F7FF"></path><path d="M62.0911 48.8662C61.853 48.594 61.6035 48.4341 61.6046 48.2755C61.6057 48.113 61.8384 47.8419 61.9946 47.823C62.1377 47.8054 62.4182 48.0422 62.4469 48.2015C62.4757 48.3599 62.2665 48.561 62.0911 48.8662Z" fill="#F4F7FF"></path><path d="M58.66 47.9866C59.1027 47.604 59.418 47.7873 59.7019 48.1925C59.2868 48.5971 58.9395 48.5284 58.66 47.9866Z" fill="#F4F7FF"></path><path d="M55.7001 48.2305C55.9992 47.795 56.3028 47.6082 56.6784 47.9498C56.7493 48.0142 56.7037 48.3157 56.6125 48.4271C56.2671 48.8518 55.9731 48.698 55.7001 48.2305Z" fill="#F4F7FF"></path><path d="M53.9019 48.0121C53.4964 48.4844 53.1164 48.553 52.7618 48.2177C53.0079 47.7226 53.3557 47.6758 53.9019 48.0121Z" fill="#F4F7FF"></path><path d="M51.0495 48.3199C50.7336 48.4865 50.5217 48.6905 50.3671 48.6541C50.2063 48.6163 50.1008 48.3455 49.971 48.1765C50.1389 48.0494 50.31 47.8189 50.4737 47.824C50.632 47.8288 50.7829 48.0765 51.0495 48.3199Z" fill="#F4F7FF"></path><path d="M46.8248 48.2284C47.1076 48.0283 47.291 47.7977 47.4512 47.8129C47.6162 47.8285 47.7586 48.0834 47.9108 48.2337C47.7575 48.3881 47.6152 48.6491 47.448 48.6658C47.2907 48.6815 47.1074 48.4397 46.8248 48.2284Z" fill="#F4F7FF"></path><path d="M66.5503 46.1306C66.7236 46.4368 66.9341 46.6435 66.8995 46.792C66.8595 46.9572 66.5956 47.0697 66.4304 47.2051C66.2971 47.0394 66.0598 46.8744 66.0598 46.7074C66.0572 46.5541 66.3077 46.3982 66.5503 46.1306Z" fill="#F4F7FF"></path><path d="M63.4476 46.1327C63.6848 46.3993 63.9328 46.5571 63.9301 46.7098C63.9274 46.8777 63.6928 47.0413 63.5569 47.2068C63.3913 47.0714 63.125 46.9578 63.0893 46.7944C63.0563 46.6427 63.2701 46.4376 63.4476 46.1327Z" fill="#F4F7FF"></path><path d="M48.3095 46.751C48.5892 46.5496 48.7728 46.3154 48.929 46.3325C49.098 46.3506 49.2414 46.6031 49.396 46.7536C49.2427 46.908 49.1007 47.1692 48.9336 47.186C48.776 47.202 48.5921 46.9609 48.3095 46.751Z" fill="#F4F7FF"></path><path d="M67.9524 45.9001C67.7525 45.6194 67.5179 45.4361 67.5339 45.2775C67.5499 45.1129 67.8111 44.8495 67.9578 44.8542C68.1177 44.8593 68.3736 45.1158 68.3896 45.2807C68.4056 45.4385 68.163 45.6202 67.9524 45.9001Z" fill="#F4F7FF"></path><path d="M64.9963 44.6534C65.2015 44.9325 65.4388 45.115 65.4228 45.2709C65.4041 45.4386 65.1483 45.5811 64.9963 45.7347C64.8417 45.5822 64.5805 45.4412 64.5645 45.2747C64.5485 45.118 64.7884 44.9344 64.9963 44.6534Z" fill="#F4F7FF"></path><path d="M55.4551 45.1273C56.0248 44.9809 56.3361 44.9011 56.7455 44.796C56.7221 45.0996 56.762 45.272 56.6943 45.3457C56.3185 45.7541 56.3095 45.7458 55.4551 45.1273Z" fill="#F4F7FF"></path><path d="M50.4838 45.8999C50.2474 45.6349 49.9995 45.4798 49.9984 45.3228C49.9974 45.1595 50.2271 44.8716 50.3695 44.8631C50.5289 44.8535 50.8064 45.0738 50.8418 45.2355C50.8751 45.388 50.6603 45.5945 50.4838 45.8999Z" fill="#F4F7FF"></path><path d="M48.0803 45.3571C47.7692 45.5258 47.5605 45.7312 47.4078 45.6961C47.2452 45.6586 47.1351 45.393 47.0021 45.2273C47.1681 45.0956 47.3355 44.8601 47.5 44.8622C47.657 44.8644 47.8108 45.1134 48.0803 45.3571Z" fill="#F4F7FF"></path><path d="M66.3984 44.4222C66.2305 44.1146 66.0225 43.9074 66.0572 43.7562C66.0945 43.5932 66.3611 43.4828 66.5263 43.3497C66.6596 43.5155 66.8968 43.6818 66.8968 43.8473C66.8968 44.0018 66.6436 44.1556 66.3984 44.4222Z" fill="#F4F7FF"></path><path d="M63.6022 43.1696C63.7648 43.4838 63.9647 43.6927 63.9301 43.8481C63.8927 44.0069 63.6075 44.233 63.4662 44.2104C63.3103 44.1857 63.0902 43.9085 63.0931 43.7443C63.0958 43.5889 63.35 43.4375 63.6022 43.1696Z" fill="#F4F7FF"></path><path d="M54.185 43.7475C54.7895 43.1249 55.0644 43.4112 55.3525 43.967C54.8652 44.4022 54.5219 44.3142 54.185 43.7475Z" fill="#F4F7FF"></path><path d="M48.8541 43.1707C49.1004 43.4391 49.3536 43.5937 49.3555 43.751C49.3574 43.9143 49.1305 44.1932 48.9767 44.2131C48.8312 44.2317 48.5497 44.0021 48.5145 43.8409C48.4807 43.6863 48.6859 43.4796 48.8541 43.1707Z" fill="#F4F7FF"></path><path d="M68.5922 42.4111C68.275 42.5726 68.0644 42.77 67.9098 42.7335C67.7498 42.6955 67.526 42.4135 67.5473 42.2698C67.5686 42.1179 67.8511 41.8973 68.0137 41.9024C68.171 41.9074 68.3229 42.1591 68.5922 42.4111Z" fill="#F4F7FF"></path><path d="M65.6067 42.5207C65.2575 42.625 65.015 42.7828 64.8683 42.7184C64.7164 42.6516 64.6604 42.3699 64.5645 42.1823C64.7537 42.0844 64.9643 41.8835 65.1269 41.9176C65.2815 41.9505 65.3855 42.2267 65.6067 42.5207Z" fill="#F4F7FF"></path><path d="M59.6843 42.3469C59.4242 42.8072 59.0971 42.9318 58.657 42.5691C58.9405 42.0239 59.2829 41.9498 59.6843 42.3469Z" fill="#F4F7FF"></path><path d="M53.7932 42.5651C53.3576 42.9331 53.0335 42.7905 52.7512 42.3677C53.1492 41.956 53.4966 42.0219 53.7932 42.5651Z" fill="#F4F7FF"></path><path d="M48.0654 42.5199C47.7159 42.6255 47.472 42.7838 47.3243 42.7203C47.174 42.6553 47.0042 42.3315 47.0524 42.1948C47.1041 42.0479 47.4227 41.8822 47.5824 41.9176C47.7404 41.9521 47.8449 42.2275 48.0654 42.5199Z" fill="#F4F7FF"></path><path d="M66.4091 40.2127C66.649 40.4825 66.8942 40.6384 66.8968 40.7985C66.8995 40.9577 66.6676 41.2367 66.5183 41.2498C66.3664 41.2631 66.0892 41.0372 66.0572 40.8781C66.0279 40.7219 66.2358 40.5181 66.4091 40.2127Z" fill="#F4F7FF"></path><path d="M64.138 40.8592C63.8527 41.0534 63.6635 41.2806 63.5089 41.2596C63.3402 41.2367 63.2018 40.9853 63.0496 40.8334C63.2061 40.6828 63.353 40.4274 63.5222 40.4125C63.6768 40.3984 63.8554 40.6421 64.138 40.8592Z" fill="#F4F7FF"></path><path d="M60.0301 41.0619C60.434 40.5876 60.8137 40.5192 61.1691 40.8568C60.9228 41.3532 60.5736 41.3953 60.0301 41.0619Z" fill="#F4F7FF"></path><path d="M55.2896 41.0236C54.857 41.4748 54.5161 41.3415 54.278 40.8818C54.2396 40.8075 54.4273 40.513 54.5566 40.4744C55.0268 40.3345 55.2179 40.6216 55.2896 41.0236Z" fill="#F4F7FF"></path><path d="M52.31 41.0896C51.8745 41.4365 51.5421 41.3341 51.2787 40.8725C51.6775 40.4752 52.0213 40.5475 52.31 41.0896Z" fill="#F4F7FF"></path><path d="M48.3087 40.8488C48.5921 40.6365 48.7747 40.3949 48.9317 40.4106C49.099 40.4269 49.2425 40.6865 49.3965 40.8398C49.2433 40.9898 49.1012 41.242 48.9338 41.2601C48.7763 41.2774 48.5918 41.0476 48.3087 40.8488Z" fill="#F4F7FF"></path><path d="M65.628 39.4526C65.3108 39.6127 65.1029 39.8088 64.951 39.7716C64.7884 39.7316 64.6791 39.4714 64.5458 39.3073C64.7137 39.1753 64.8843 38.9385 65.0496 38.9415C65.2042 38.9441 65.3561 39.1985 65.628 39.4526Z" fill="#F4F7FF"></path><path d="M49.5597 23.3407C49.2787 23.5389 49.0948 23.7696 48.9343 23.7544C48.7701 23.7387 48.5033 23.4756 48.5108 23.3327C48.5193 23.1715 48.7736 22.9164 48.9391 22.9009C49.0972 22.8866 49.2787 23.1287 49.5597 23.3407Z" fill="#F4F7FF"></path><path d="M52.7072 39.2964C53.3219 38.6967 53.5927 38.9899 53.8848 39.5244C53.3808 39.9591 53.038 39.8663 52.7072 39.2964Z" fill="#F4F7FF"></path><path d="M51.0543 39.4563C50.7325 39.6143 50.5212 39.8075 50.3649 39.7702C50.2056 39.7325 50.1005 39.468 49.9718 39.3028C50.14 39.173 50.3114 38.938 50.4753 38.9431C50.6329 38.9479 50.7829 39.2011 51.0543 39.4563Z" fill="#F4F7FF"></path><path d="M47.5426 38.7291C47.7066 39.0455 47.9076 39.2565 47.871 39.4124C47.8342 39.5693 47.5493 39.7846 47.3976 39.7668C47.25 39.7495 47.0263 39.4635 47.0338 39.3049C47.0418 39.1447 47.2921 38.9962 47.5426 38.7291Z" fill="#F4F7FF"></path><path d="M58.3417 46.6938C58.0845 46.913 57.9224 47.1607 57.7593 47.1613C57.5788 47.1618 57.3978 46.9362 57.2171 46.809C57.361 46.648 57.4884 46.382 57.654 46.3556C57.8264 46.328 58.0359 46.5318 58.3417 46.6938Z" fill="#F4F7FF"></path><path d="M57.9856 64.7356C57.7014 64.6204 57.4172 64.5052 57.1139 64.3823C57.3687 63.93 57.5823 63.674 57.989 63.938C58.3401 64.1654 58.1332 64.4371 58.0298 64.6965L57.9856 64.7356Z" fill="#F4F7FF"></path><path d="M56.8567 62.8142C56.5701 62.9895 56.3716 63.2082 56.1975 63.1901C56.0264 63.1723 55.8803 62.9144 55.7233 62.762C55.8982 62.6244 56.0688 62.3858 56.2484 62.3786C56.4155 62.3719 56.5923 62.6125 56.8567 62.8142Z" fill="#F4F7FF"></path><path d="M52.539 32.0258C52.1741 32.2861 51.9424 32.4513 51.7105 32.6165C51.6335 32.4162 51.4392 32.1653 51.5002 32.025C51.7017 31.5619 52.0216 31.7917 52.539 32.0258Z" fill="#F4F7FF"></path><path d="M57.6465 25.715C57.8747 25.9326 58.1442 26.0742 58.158 26.2373C58.1708 26.3873 57.9157 26.6816 57.7646 26.6914C57.5916 26.7023 57.3045 26.4996 57.2533 26.3325C57.2136 26.204 57.462 25.9874 57.6465 25.715Z" fill="#F4F7FF"></path></svg>