<svg xmlns="http://www.w3.org/2000/svg" width="82" height="82" viewBox="0 0 82 82" fill="none"><path d="M11.6956 41.719C26.2464 46.6326 35.8428 56.2398 40.2128 71.2855C40.5198 66.8523 40.3997 43.0647 40.0809 41.719H11.6956ZM80.5563 1.45647C78.1066 1.18803 75.842 1.57392 73.5974 1.96966C72.0888 2.23579 70.6214 2.73971 69.1409 3.15686C65.4037 4.21069 62.0208 6.03254 58.8148 8.15699C55.9334 10.0659 53.475 12.4961 51.1653 15.058C50.4021 15.9047 49.7409 16.8507 49.0954 17.794C48.1913 19.1152 47.2857 20.442 46.4877 21.828C45.0258 24.3672 43.8783 27.0622 43.1379 29.8933C42.6209 31.8702 42.4291 33.9308 41.954 35.921C41.6123 37.3521 41.7413 38.742 41.7775 40.1413C44.0554 40.3924 79.2048 40.325 80.5563 40.0695V1.45647ZM40.1813 40.2081C40.459 37.2415 40.3569 2.71481 40.0794 1.46572C18.0012 0.829298 0.447272 21.1626 1.25115 40.2081H40.1813ZM41.7717 80.7842C44.4636 81.0575 79.2627 80.9653 80.5149 80.6957C80.7606 77.9178 80.5447 75.6602 79.9203 72.6853C79.0512 68.5443 77.4353 64.6885 75.3247 61.0664C74.0027 58.7976 72.4592 56.6524 70.6295 54.7093C69.6064 53.6233 68.5125 52.6282 67.4365 51.6097C66.4785 50.7028 65.4861 49.8144 64.4185 49.0435C60.5728 46.2661 56.3095 44.3173 51.794 42.9134C50.9283 42.6441 50.0138 42.5223 49.1151 42.3728C48.1027 42.2044 47.0548 42.1847 46.0734 41.9142C44.6465 41.5211 43.2502 41.71 41.7717 41.7314V80.7842ZM41.3739 31.7325C43.4576 23.4187 47.54 16.3192 53.8558 10.6858C61.7518 3.64251 71.1014 0.0456843 81.7518 0.0656271C81.7998 0.113934 81.8461 0.150643 81.8799 0.196635C81.9121 0.240316 81.9532 0.293833 81.9532 0.343005C81.9708 13.4175 81.9853 26.4923 81.9997 39.567C82.0003 40.0819 81.9997 40.5966 81.9997 41.0068C81.266 41.7774 80.4356 41.6652 79.6351 41.6652C71.0707 41.666 62.5063 41.6658 53.9422 41.6658H52.2766C73.4672 48.5205 82.4204 67.0984 81.8652 81.7755C80.5664 82.0312 2.19965 82.0949 0.0795731 81.8273C0.053985 81.4052 0.00354851 80.9598 0.00342699 80.5142C0.000582909 66.7444 0.00596994 52.9742 1.12484e-06 39.2043C-0.000687474 37.3628 0.314898 35.5713 0.619907 33.7616C0.905154 32.0693 1.17186 30.3943 1.72353 28.7591C2.95642 25.1058 4.56312 21.655 6.69691 18.4246C7.78077 16.7835 9.09801 15.354 10.2556 13.7965C11.66 11.9066 13.5094 10.5415 15.2152 9.02165C16.5713 7.81334 18.2049 6.90791 19.749 5.92117C23.5071 3.519 27.656 2.06797 31.9618 1.03293C33.7978 0.591213 35.6545 0.275628 37.5626 0.297911C38.3525 0.306861 39.1417 0.0508503 39.9362 0.00948074C41.1343 -0.0527226 41.3311 0.167416 41.3719 1.38411C41.3837 1.73067 41.3739 2.07811 41.3739 2.42522V31.7325Z" fill="#FFC119"></path></svg>