<svg xmlns="http://www.w3.org/2000/svg" width="87" height="90" viewBox="0 0 87 90" fill="none"><path d="M86.4563 46.1448C86.6043 49.3285 86.3839 52.2675 85.8543 55.2486C85.1996 58.9193 83.9561 62.3438 82.3442 65.6381C80.7816 68.835 78.9361 71.8855 76.4622 74.5005C75.2977 75.7268 74.2351 77.05 73.0311 78.2329C71.2942 79.9423 69.3237 81.3634 67.3202 82.7582C65.4537 84.0563 63.4453 85.0534 61.4221 86.0215C57.9318 87.6917 54.2428 88.8244 50.4347 89.4839C46.963 90.0853 43.4319 90.0876 39.9353 89.8616C35.4501 89.5724 31.119 88.503 26.9411 86.771C23.1145 85.1847 19.6321 83.0477 16.3055 80.6202C16.1039 80.4732 15.9305 80.2843 15.7581 80.1021C14.0876 78.3336 12.0928 76.8881 10.5914 74.9528C9.21598 73.1796 7.72641 71.4743 6.5385 69.5814C4.34461 66.0842 2.64385 62.331 1.57306 58.3278C1.14145 56.7142 0.789151 55.0729 0.519398 53.4248C0.136822 51.0862 -0.184257 48.7324 0.122344 46.3823C0.201615 46.3053 0.24207 46.255 0.292751 46.2191C0.341422 46.1846 0.400651 46.1421 0.455247 46.1421C28.6912 46.1178 56.9275 46.0967 85.1634 46.0786C85.5319 46.0783 85.9036 46.1155 86.4563 46.1448Z" fill="#F4F7FF"></path><path d="M85.17 42.6081C85.5812 39.5911 84.6173 33.4584 83.2291 30.0984C82.9725 33.2986 83.058 41.2188 83.3606 42.6081H85.17ZM81.7915 42.6146C81.8606 42.3531 81.9197 42.236 81.9197 42.1185C81.9296 37.1639 81.9691 32.2087 81.9 27.2551C81.8869 26.3646 81.5513 25.4159 81.1434 24.6066C80.3572 23.0542 79.4657 21.5485 78.5182 20.0876C77.6892 18.8042 76.7221 17.6084 75.6332 16.1281V42.6146L81.7915 42.6146ZM73.9062 42.6031C73.9588 42.3163 74.0212 42.138 74.0212 41.9593C74.0278 33.1595 74.0212 24.3596 74.041 15.5593C74.0443 14.8774 73.8568 14.3701 73.3535 13.9037C72.3436 12.9621 71.4125 11.9335 70.3829 11.0107C69.6131 10.3189 68.7446 9.7363 67.7248 8.95598V42.6031H73.9062ZM66.0507 42.6051V7.848C65.0506 7.26671 64.0973 6.67493 63.1094 6.14891C62.0774 5.59888 61.0119 5.11198 59.8072 4.52231V42.6051H66.0507ZM44.35 1.26331C44.0428 4.44087 44.1543 41.229 44.48 42.689C45.4534 42.689 46.4528 42.7212 47.4492 42.6801C48.4865 42.6377 49.5513 42.8686 50.5405 42.5186V1.93876C48.5059 1.61654 46.5331 1.14894 44.35 1.26331ZM58.4417 42.4001V4.20989C56.3603 3.11309 54.2085 2.42659 51.8012 2.18259C51.8012 15.1439 51.8008 28.09 51.8031 41.0362C51.8031 41.4754 51.8281 41.9146 51.8502 42.3534C51.8525 42.4061 51.9058 42.4584 51.9423 42.5057C51.9798 42.5554 52.0252 42.5992 52.091 42.6712C53.9608 42.6712 55.8461 42.6765 57.7315 42.663C57.9028 42.6617 58.0733 42.5409 58.4417 42.4001ZM42.6328 1.23713C34.7939 1.3825 27.698 3.46905 21.2292 7.48812C12.882 12.674 7.12275 20.0251 3.63142 29.195C2.33659 32.5959 1.00066 40.6711 1.49149 42.5929H42.6328V1.23713ZM0.0282405 43.8039C0.166081 41.8445 0.0104683 40.0799 0.304562 38.2542C0.660193 36.0461 1.00593 33.8457 1.54446 31.6745C2.31423 28.569 3.56135 25.6422 5.11178 22.87C6.29507 20.7551 7.67081 18.7345 9.10182 16.7749C10.7506 14.5172 12.6921 12.5282 14.815 10.6722C16.7118 9.01389 18.6955 7.51313 20.8594 6.27918C23.0211 5.04688 25.2841 3.97904 27.5559 2.95843C29.4235 2.11946 31.3522 1.41079 33.4066 1.11746C34.8162 0.916193 36.2321 0.71862 37.6184 0.402021C40.0994 -0.164698 42.6085 0.0210304 45.1034 0.0610065C49.8668 0.137146 54.4487 1.08807 58.9177 2.82366C62.4416 4.19222 65.6889 5.98279 68.7348 8.16481C71.7941 10.3577 74.495 12.9352 76.903 15.8561C79.1433 18.576 81.0447 21.4906 82.5415 24.6573C84.3541 28.4917 85.7489 32.4706 86.1569 36.7376C86.2457 37.663 86.4628 38.5795 86.5056 39.5052C86.5648 40.8774 86.5188 42.2541 86.5188 43.4953C86.351 43.669 86.3115 43.7216 86.2621 43.7571C86.2128 43.7907 86.1536 43.8269 86.0977 43.8269C57.8762 43.8473 29.656 43.8651 1.43587 43.8795C1.06414 43.8798 0.692097 43.8407 0.0282405 43.8039Z" fill="#F4F7FF"></path></svg>