<svg xmlns="http://www.w3.org/2000/svg" width="90" height="71" viewBox="0 0 90 71" fill="none"><path d="M45.8405 69.434C49.3084 69.1966 53.6132 69.7865 57.9029 69.0913C59.5661 68.8219 61.2777 69.0417 62.9811 68.7104C66.3565 68.0538 69.8114 67.7898 73.1684 67.0611C77.4018 66.142 81.5872 64.9379 85.3687 62.7286C86.4356 62.1055 87.3718 61.1823 88.2008 60.2474C89.0912 59.243 89.0216 58.2035 88.1199 57.1479C87.4643 56.3806 86.7486 55.6231 85.9305 55.0445C83.1643 53.0882 79.9442 52.1283 76.7537 51.1883C74.6026 50.5543 72.3613 50.2155 70.15 49.8007C68.2432 49.443 66.3288 49.1021 64.4039 48.8695C62.5968 48.6507 60.7585 48.676 58.9565 48.4288C55.9627 48.0184 52.9552 47.7257 49.9442 47.7507C45.2705 47.789 40.5893 47.4056 35.9183 48.0492C34.1214 48.2968 32.2897 48.1644 30.4607 48.4065C27.3586 48.8172 24.218 48.913 21.1426 49.5938C18.3344 50.2155 15.4597 50.5848 12.7013 51.372C9.50203 52.285 6.31807 53.3878 3.5819 55.3684C2.69693 56.0092 1.90102 56.94 1.41024 57.9132C0.924235 58.8772 1.51228 59.8316 2.20444 60.6669C3.98395 62.8154 6.46074 63.9343 8.94162 64.742C12.0785 65.7641 15.2225 66.8074 18.5481 67.3193C21.9375 67.8411 25.3092 68.6078 28.7204 68.9846C31.7852 69.3235 34.8893 69.3372 37.9781 69.4213C40.3234 69.4849 42.6719 69.434 45.8405 69.434ZM44.4565 1.18836C41.9678 1.36635 38.8245 1.10004 35.6593 1.47611C32.8057 1.81533 29.9105 1.88713 27.0498 2.30192C24.8822 2.61653 22.6791 2.71639 20.5293 3.11478C16.9651 3.77506 13.4198 4.52667 9.972 5.7102C7.4563 6.57364 5.11262 7.71542 2.9727 9.28497C1.24062 10.5553 0.721508 12.3078 1.86416 13.6774C2.69898 14.6783 3.73105 15.5868 4.83754 16.2731C8.08155 18.2845 11.7566 19.2498 15.402 20.1841C17.7546 20.7869 20.1979 21.0461 22.6071 21.4141C25.9443 21.9243 29.2733 22.5914 32.6317 22.8267C36.717 23.1132 40.8279 22.851 44.9282 23.223C46.7821 23.3912 48.6832 23.0079 50.5647 22.9132C53.3326 22.7737 56.0964 22.9778 58.88 22.6C61.1073 22.2977 63.3647 22.178 65.5944 21.7786C68.2394 21.3053 70.9817 21.2253 73.55 20.5038C77.4011 19.4222 81.3449 18.5464 84.894 16.5087C86.1414 15.7927 87.1643 14.9039 88.0824 13.8709C89.0264 12.8095 89.0247 11.9713 88.2561 10.7581C87.0919 8.92043 85.2745 7.858 83.3718 7.07116C80.7745 5.99708 78.167 4.9377 75.3848 4.32459C71.9022 3.5569 68.4162 2.82921 64.8858 2.34742C62.4677 2.01709 60.0343 1.77225 57.6005 1.58792C55.0275 1.39369 52.4466 1.28873 49.8671 1.19844C48.2845 1.14311 46.6985 1.18836 44.4565 1.18836ZM60.907 47.144C63.3879 47.4552 65.8732 47.7336 68.3473 48.0926C69.4575 48.2537 70.5435 48.5796 71.6418 48.8244C74.2043 49.3958 76.8176 49.7344 79.294 50.6874C81.2274 51.4315 83.2032 52.048 85.052 53.0188C86.3557 53.7037 87.4796 54.5583 88.5469 55.5735C90.2117 57.1575 90.5298 59.4992 88.8776 61.5198C87.7926 62.8462 86.4636 63.9049 84.8045 64.5098C84.0475 64.7854 83.3909 65.3558 82.6274 65.5928C79.2213 66.6508 75.8305 67.8032 72.3602 68.5958C69.5015 69.2489 66.5281 69.3785 63.6258 69.8621C61.079 70.2864 58.5121 70.3918 55.9558 70.6458C49.4418 71.2938 42.9282 70.8384 36.4173 70.9187C34.1805 70.9461 31.9378 70.4745 29.6972 70.2355C28.3876 70.096 27.0716 70.005 25.7682 69.822C23.8481 69.5529 21.9358 69.2267 20.0221 68.9145C19.0365 68.7538 18.0542 68.5729 17.0706 68.3996C13.7867 67.8213 10.6184 66.8108 7.53241 65.5935C5.4447 64.7697 3.31228 63.896 1.78362 62.1175C1.257 61.5044 0.770645 60.8167 0.436861 60.0849C-0.187363 58.7164 -0.0877071 57.3555 0.969969 56.2058C2.12696 54.9471 3.35017 53.7974 4.95085 53.0444C8.82216 51.2225 12.7747 49.7367 17.0495 49.1657C19.0897 48.8931 21.0914 48.3416 23.1245 47.9982C24.8484 47.7072 26.5921 47.5315 28.3276 47.3106C28.6313 47.2723 28.9385 47.2637 29.2593 46.9536C28.0392 46.8219 26.818 46.6985 25.5986 46.5569C24.6047 46.4413 23.6037 46.3545 22.6221 46.1681C18.3201 45.3508 13.9986 44.619 9.84641 43.149C7.53071 42.329 5.25051 41.4628 3.18806 40.0888C1.94438 39.2599 0.881582 38.1944 0.32629 36.8748C-0.216702 35.585 -0.12865 34.1067 0.945743 32.9642C2.41878 31.3981 4.06075 30.1401 6.06996 29.1983C10.2679 27.2314 14.7529 26.3437 19.186 25.2693C21.3054 24.7556 23.5307 24.6801 25.7082 24.4072C27.132 24.2287 28.5559 24.0523 30.1153 23.858C27.9112 23.5372 25.8385 23.2038 23.7569 22.9399C19.8395 22.443 16.0003 21.6227 12.1716 20.6361C9.57951 19.9679 7.20511 18.8604 4.8249 17.7668C3.06859 16.9598 1.48499 15.765 0.536527 13.915C-0.163137 12.5496 0.0143426 10.4698 1.22185 9.37078C3.19283 7.57588 5.19624 5.95674 7.8679 5.22802C9.66789 4.73732 11.3044 3.71659 13.1904 3.37156C16.2631 2.81007 19.3181 2.15181 22.3784 1.5257C24.7221 1.04593 27.0863 0.835904 29.4778 0.733218C31.5368 0.644871 33.5832 0.280042 35.6371 0.0543017C36.0767 0.00604861 36.5238 0.0224111 36.9675 0.0222435C42.3586 0.0205748 47.7507 -0.0433741 53.1398 0.0534877C55.2596 0.0915369 57.3722 0.49343 59.4886 0.722511C59.8029 0.756406 60.1214 0.760435 60.4381 0.762083C65.1125 0.78696 69.6336 1.81295 74.18 2.75603C77.1473 3.3719 79.978 4.35022 82.7902 5.41302C84.923 6.21867 86.7834 7.45483 88.5049 8.98884C90.6097 10.8645 90.3759 13.4961 88.5302 15.3269C87.5155 16.3337 86.294 17.1851 85.0414 17.882C83.7319 18.6111 82.3018 19.1592 80.8728 19.628C78.4974 20.4073 76.1107 21.1969 73.6739 21.7304C70.6851 22.3845 67.6442 22.8079 64.6176 23.275C63.136 23.5038 61.635 23.6067 59.7357 23.8101C61.5104 24.044 62.8804 24.2304 64.2521 24.4051C68.5367 24.9505 72.7933 25.5445 76.9678 26.795C79.8705 27.6646 82.7326 28.5513 85.4066 29.9742C87.1547 30.9043 88.7049 32.0591 89.5984 33.9354C90.1725 35.1404 90.1158 36.2641 89.4046 37.3529C88.6772 38.4663 87.795 39.3571 86.6233 40.1093C82.8506 42.5304 78.7043 43.8271 74.3766 44.7018C71.4374 45.2957 68.5043 45.9178 65.5664 46.5183C65.321 46.5682 65.0602 46.537 64.808 46.5596C63.5053 46.6745 62.2033 46.7949 60.9009 46.9132C60.9029 46.9902 60.9053 47.0671 60.907 47.144Z" fill="#F4F7FF"></path></svg>