<svg xmlns="http://www.w3.org/2000/svg" width="90" height="91" viewBox="0 0 90 91" fill="none"><path d="M81.7029 61.3311L81.62 61.447L81.7636 61.4627L81.7029 61.3311ZM16.7937 17.1257C16.698 17.0724 16.6024 17.019 16.5035 16.9657C16.5928 17.0257 16.6853 17.0861 16.7746 17.1461C16.9054 17.2707 17.0362 17.3949 17.1701 17.5188C17.2977 17.6463 17.4254 17.7734 17.553 17.9008C17.6551 18.1895 17.6933 18.529 17.8688 18.759C19.3776 20.7072 20.928 22.6193 22.4273 24.5732C24.3444 27.0724 26.2265 29.5964 28.1149 32.1163C28.8199 33.0569 29.4994 34.016 30.3256 35.1561C29.7673 35.2702 29.4228 35.4426 29.123 35.3801C28.5775 35.266 28.0767 34.9585 27.5312 34.8269C22.2486 33.5503 17.0681 31.924 11.8525 30.414C11.0167 30.1726 10.1746 29.7781 8.9497 29.9283C12.3916 31.9784 15.6135 33.81 18.7428 35.7872C21.9105 37.7888 25.2631 39.5109 28.4147 41.8637C27.9618 42.1339 27.713 42.3878 27.4355 42.4303C24.7751 42.8382 22.121 43.3169 19.4414 43.5571C17.4349 43.7366 15.4604 44.0215 13.473 44.3418C11.0614 44.7311 8.62432 44.9543 5.73739 45.3053C6.49022 45.5918 6.8411 45.8052 7.21111 45.8524C8.58281 46.0275 9.96723 46.1134 11.339 46.2961C13.9451 46.6432 16.5386 47.0559 19.1448 47.4008C21.3841 47.6978 23.6362 47.9131 25.8723 48.2238C26.319 48.2854 26.7273 48.616 27.1324 48.8124C27.0463 49.0714 27.0399 49.2481 26.9602 49.2931C20.6887 52.8481 14.4141 56.3925 8.05969 59.9811C8.31171 60.0079 8.50625 60.0814 8.66894 60.0382C10.7201 59.4976 12.7616 58.9124 14.816 58.3963C16.0888 58.0776 17.3966 57.908 18.6631 57.5829C22.2868 56.6532 25.8947 55.6679 29.5185 54.7372C29.8343 54.6564 30.2139 54.8174 30.9922 54.926C26.354 61.2707 21.617 67.1534 17.2436 73.3186C18.8641 72.2094 20.3474 70.9696 21.8817 69.7933C24.9281 67.4548 28.0032 65.1496 31.0688 62.8341C32.0226 62.1139 32.9923 61.4138 33.9398 60.6869C34.431 60.3094 34.75 60.5097 35.0339 60.9577C33.0561 67.8876 31.0752 74.8258 29.0942 81.7636C30.6158 79.6822 31.8886 77.4798 33.1902 75.293C34.4789 73.1305 35.7836 70.9792 37.0947 68.832C38.4281 66.6523 39.7774 64.4837 41.232 62.1289C41.6084 62.5933 41.9785 62.8417 42.0263 63.141C42.3325 65.0601 42.5909 66.9879 42.8238 68.9176C43.1173 71.3535 43.3469 73.7964 43.6499 76.231C43.8509 77.8449 44.138 79.4475 44.3709 81.0575C44.5719 82.45 44.7505 83.8457 44.9387 85.2397C45.363 83.2695 45.6405 81.2874 45.8733 79.3005C46.0424 77.8624 45.9722 76.3645 46.3614 74.9931C46.6294 74.0408 46.5305 73.1133 46.706 72.1887C46.9675 70.8387 47.1972 69.4819 47.3918 68.1204C47.5673 66.8748 47.647 65.6152 47.832 64.3716C47.8894 63.9755 48.1574 63.6108 48.3743 63.1276C48.7252 63.5042 49.0474 63.7446 49.2324 64.063C49.8704 65.1489 50.4637 66.262 51.0698 67.3657C53.0699 70.9983 55.054 74.6386 57.0765 78.2601C57.7719 79.5088 58.5534 80.71 59.2967 81.9329C59.3924 81.9942 59.4849 82.0561 59.5806 82.1175C59.4817 82.0584 59.386 81.999 59.2903 81.9399C59.2616 81.3689 59.3254 80.7745 59.1883 80.2312C58.362 76.9665 57.4625 73.7204 56.6395 70.4551C55.8452 67.3098 55.1114 64.1493 54.3491 60.9951C54.2151 60.4397 54.3236 60.0022 54.9552 59.7971C60.9109 64.3581 66.8728 68.9243 72.8348 73.4908C71.7088 71.6256 70.4361 69.9268 69.1473 68.2395C66.2029 64.385 63.2522 60.5349 60.2983 56.6864C59.9889 56.282 59.906 55.902 60.4387 55.3916C62.1421 55.9001 63.9349 56.4203 65.7149 56.9681C69.1728 58.0316 72.7296 58.7412 76.1397 59.9977C77.4698 60.4879 78.9468 60.5764 80.3568 60.8472C80.5514 60.9638 80.7428 61.0804 80.9342 61.1966C80.9693 61.1161 81.0012 61.0353 81.0362 60.9549C80.8097 60.9194 80.5832 60.8839 80.3568 60.8482C80.21 60.6502 80.1048 60.3841 79.9101 60.2644C78.0855 59.1481 76.2482 58.0575 74.4171 56.9588C71.5047 55.2134 68.5922 53.4696 65.6798 51.7213C64.6016 51.073 63.5489 50.3742 62.4452 49.7769C61.9092 49.4888 61.871 49.189 62.1613 48.6007C64.2028 48.3305 66.3146 48.1005 68.4103 47.7629C71.4441 47.2737 74.4585 46.6553 77.5464 46.6311C77.7378 46.6295 77.9356 46.6486 78.1174 46.603C79.7634 46.1868 81.4286 45.9186 83.1288 45.8611C83.4319 45.8505 83.4319 45.8371 83.9359 45.2552C82.4621 45.0882 80.9629 44.9333 79.4668 44.7439C78.4141 44.6104 77.3647 44.4248 76.3119 44.2715C74.7648 44.046 73.2208 43.7966 71.6673 43.6171C70.1043 43.4367 68.5316 43.3463 66.9654 43.1828C66.2221 43.1055 65.4916 42.9256 64.7484 42.8359C64.0147 42.7474 63.3512 42.5261 62.4644 42.0311C65.6129 39.706 69.0165 38.3432 72.098 36.4477C75.221 34.5276 78.5353 32.9205 81.7667 31.1764C79.6964 31.406 77.7027 31.8397 75.7218 32.3207C74.0247 32.7324 72.3436 33.2025 70.653 33.6385C67.3322 34.4944 64.0083 35.3296 60.6939 36.2082C59.9092 36.4155 59.4945 36.1855 59.3063 35.5008C63.8934 29.5175 68.4295 23.5991 72.9657 17.6804C71.042 18.7954 69.2653 20.0505 67.5459 21.3826C63.9094 24.2005 60.3111 27.0698 56.6714 29.8845C56.2758 30.1908 55.8292 30.651 55.1306 30.4268C55.1306 29.8765 55.0222 29.3486 55.1497 28.8877C55.9217 26.1219 56.7383 23.3692 57.5582 20.6165C58.6236 17.0251 59.7082 13.4388 60.7737 9.84676C60.8438 9.6085 60.8119 9.33892 60.8247 9.08406C60.9363 8.89435 61.0512 8.70398 61.1628 8.51396C61.0862 8.48202 61.0129 8.45041 60.9395 8.4188C60.9012 8.64141 60.863 8.86367 60.8279 9.08628C59.2393 11.6359 57.6475 14.1855 56.0589 16.7354C55.3954 17.8037 54.7128 18.8618 54.0716 19.9432C52.4638 22.6474 50.8816 25.3682 49.2579 28.0631C49.0984 28.3266 48.7252 28.4591 48.2212 28.8124C48.0489 27.1819 48.0106 25.7945 47.7363 24.4547C47.2418 22.0562 46.8718 19.6468 46.6326 17.2119C46.5177 16.0232 46.505 14.8003 46.1956 13.6601C45.7298 11.9386 45.9244 10.1549 45.5033 8.4386C45.2864 7.55617 45.2003 6.64239 44.993 5.36073C44.4603 9.37724 44.1158 13.0073 43.465 16.5808C42.8047 20.1965 42.8588 23.9204 41.7456 27.9328C40.2655 26.387 39.5796 24.7447 38.7534 23.2018C37.889 21.5909 37.0404 19.971 36.1473 18.3773C35.2222 16.729 34.1695 15.1471 33.3209 13.4628C32.5266 11.8927 31.6908 10.3625 30.5265 8.9774C32.3097 16.2327 34.0897 23.4877 35.8665 30.7283C35.1424 31.3198 34.6096 30.7139 34.1439 30.4099C33.1423 29.7599 32.2299 28.9717 31.2762 28.2502C29.5664 26.9596 27.8342 25.6997 26.1435 24.3845C24.0988 22.7959 22.1082 21.1431 20.0603 19.5606C19.2692 18.9493 18.3888 18.4549 17.5466 17.9072C17.419 17.7788 17.2946 17.6504 17.167 17.5217C17.0426 17.3895 16.9181 17.2576 16.7937 17.1257ZM28.2202 3.03857C29.8917 4.08901 30.0449 5.62393 30.8838 6.68362C31.7292 7.75323 32.2331 9.09397 32.8966 10.3092C33.5921 11.5816 34.3003 12.847 35.0083 14.1136C35.6815 15.3254 36.3705 16.531 37.0372 17.7459C37.7071 18.9605 38.3483 20.1898 39.0213 21.4012C39.6944 22.6107 40.393 23.8061 41.2097 25.2395C41.3787 23.7224 41.4872 22.3958 41.685 21.0818C42.0072 18.9174 42.3804 16.7607 42.7472 14.6033C42.9035 13.6755 42.8525 12.7467 43.0981 11.7969C43.4745 10.3504 43.4203 8.79602 43.5894 7.29205C43.8318 5.17106 44.0902 3.05138 44.406 0.940902C44.4475 0.670091 44.8813 0.457994 45.363 0C46.9548 8.85283 47.4333 17.5645 49.1303 26.2449C51.3984 22.4551 53.6154 18.7219 55.8611 15.0028C58.0813 11.3216 60.2633 7.61493 62.6749 3.81561C63.332 4.67186 63.1789 5.28542 63.0098 5.87274C62.4771 7.73439 61.8965 9.58165 61.3734 11.4462C60.2792 15.3589 59.2298 19.2844 58.126 23.1939C57.6699 24.8115 57.1148 26.4023 56.5151 28.2934C56.9967 28.1085 57.2775 28.066 57.4752 27.9136C59.4785 26.3765 61.4659 24.822 63.4564 23.2712C65.5426 21.6443 67.6193 20.0023 69.7214 18.393C71.4728 17.0525 73.2559 15.7524 75.02 14.4301C75.5176 14.0571 76.0025 13.6684 76.5065 13.2762C77.0679 13.6266 77.0265 14.0261 76.7362 14.4276C75.7058 15.8593 74.6659 17.2857 73.6132 18.7021C72.1107 20.7251 70.6147 22.7544 69.0771 24.7505C67.5746 26.7006 66.0148 28.6057 64.4931 30.5437C63.4436 31.8845 62.4197 33.2469 61.2394 34.7911C64.2188 34.2019 66.9749 33.2929 69.8203 32.779C72.6339 32.2703 75.3805 31.3677 78.1652 30.6813C80.9916 29.9851 83.7668 29.0417 86.6154 28.5984C86.9727 29.1841 87.0014 29.5204 86.4463 29.8088C84.995 30.5645 83.5627 31.3616 82.124 32.1454C79.0234 33.8342 75.91 35.4963 72.8316 37.2251C70.3754 38.6051 67.9638 40.0675 65.4214 41.5568C68.0659 42.4699 70.8061 42.27 73.441 42.7174C76.1525 43.177 78.8862 43.5737 81.6168 43.9365C84.2964 44.2926 86.9887 44.5507 89.8055 44.8662C89.8469 45.0719 89.9075 45.3587 90 45.8128C89.0143 45.9834 88.102 46.1392 87.1928 46.2996C85.8403 46.5375 84.4909 46.7959 83.1352 47.0124C82.2069 47.1606 81.2787 47.1083 80.3281 47.3535C78.9468 47.7119 77.4443 47.5905 76.028 47.8473C74.2959 48.1606 72.5414 48.1481 70.8093 48.5208C68.7326 48.9673 66.5922 49.1091 64.5251 49.3765C64.4581 49.48 64.407 49.5243 64.4134 49.5608C64.4229 49.6198 64.4517 49.6981 64.4995 49.7265C71.8173 54.1508 79.135 58.571 86.4368 62.9794C86.3954 63.5479 86.2486 63.8657 85.6266 63.6849C84.5483 63.3713 83.4542 63.1222 82.376 62.8066C78.6023 61.7016 74.8637 60.4451 71.0485 59.509C68.1903 58.8074 65.3895 57.9508 62.5951 57.0514C62.4867 57.0166 62.3527 57.0715 62.0655 57.1022C63.3543 58.8431 64.5793 60.5307 65.8361 62.1953C67.3545 64.2071 68.8921 66.2067 70.4361 68.1983C72.0214 70.2423 73.6451 72.2573 75.2178 74.3125C75.859 75.1512 76.4076 76.0608 77.0137 76.9617C76.4619 77.5034 76.0791 77.3757 75.6229 77.0243C72.9784 74.9841 70.318 72.9641 67.6607 70.9411C64.5027 68.5375 61.3351 66.1454 58.1834 63.7309C57.4625 63.1781 56.9393 62.347 55.7686 62.0829C56.2088 63.9206 56.6299 65.604 57.0063 67.298C57.3859 69.0057 57.9952 70.6454 58.2408 72.4039C58.48 74.1222 59.1308 75.781 59.5711 77.4737C60.0113 79.1661 60.6077 80.8486 60.7768 82.571C60.9395 84.2442 62.1804 85.7456 61.6572 87.7548C60.9746 87.3454 60.6684 86.9503 60.394 86.4434C58.2855 82.5796 56.1386 78.7352 54.011 74.8816C52.5786 72.2883 51.1623 69.686 49.7204 67.0987C49.529 66.7554 49.2261 66.4756 48.8304 65.9915C48.5944 67.3638 48.2754 68.4545 48.2403 69.5538C48.1702 71.9581 47.4715 74.2646 47.3599 76.6766C47.226 79.611 46.6772 82.5288 46.269 85.4489C46.0616 86.9359 45.7872 88.4149 45.5033 89.8901C45.449 90.1715 45.2163 90.4184 44.8845 91C44.6771 90.618 44.4889 90.4142 44.4538 90.1862C44.2688 89.0096 44.1252 87.8267 43.9658 86.6463C43.8414 85.7143 43.7042 84.7843 43.5894 83.8507C43.4873 82.9795 43.6117 82.1178 43.2767 81.2274C42.9322 80.3105 42.945 79.2549 42.827 78.2575C42.5558 76.011 42.3198 73.7603 42.0327 71.5157C41.7328 69.1527 41.3916 66.795 41.0789 64.4933C36.6608 71.7837 32.2044 79.1447 27.7353 86.4984C27.6204 86.6897 27.3653 86.7967 27.1261 86.9791C26.5901 86.5355 26.6858 86.0468 26.8261 85.5722C27.8501 82.0954 28.9156 78.6305 29.9077 75.1439C30.8104 71.959 31.627 68.7496 32.5011 65.5571C32.7339 64.7197 33.0434 63.9053 33.3815 62.8938C31.9396 63.1087 31.2379 64.1614 30.3319 64.8053C27.8182 66.597 25.413 68.5401 22.9695 70.4314C21.4256 71.6278 19.8944 72.8418 18.3505 74.041C17.1064 75.0091 15.8559 75.9704 14.6023 76.9253C14.363 77.1071 13.5655 77.2016 12.8223 77.1358C17.9485 70.0469 23.3842 63.3345 28.7019 56.2252C26.5646 56.6704 24.6251 56.8885 22.8164 57.495C20.022 58.4324 17.1319 58.9421 14.2992 59.6981C12.6723 60.1324 11.0231 60.4905 9.38987 60.9034C7.57477 61.3614 5.77563 61.867 3.95418 62.2864C3.68623 62.348 3.3385 62.0484 2.74198 61.7952C6.38812 59.3787 10.1044 57.6455 13.6038 55.5436C17.1095 53.438 20.7684 51.5901 24.4592 49.5748C24.1944 49.3522 24.0317 49.0928 23.834 49.0647C22.5261 48.8795 21.2086 48.7693 19.9039 48.586C18.3568 48.3688 16.8193 48.0724 15.2689 47.8671C13.8973 47.685 12.5128 47.6135 11.1412 47.4324C9.594 47.2277 8.05646 46.9434 6.50934 46.7151C5.45344 46.5592 4.3944 46.4452 3.33527 46.3028C2.22521 46.154 1.11511 45.9939 0.00816935 45.8384C-0.0619618 45.0636 0.327243 44.8075 0.875905 44.7512C2.38155 44.5979 3.8904 44.5085 5.38966 44.3239C6.69115 44.1636 7.9799 43.8994 9.2782 43.6957C10.3915 43.5203 11.5048 43.3418 12.6245 43.2074C14.9308 42.9301 17.2436 42.7043 19.5467 42.4137C21.6585 42.1477 23.7606 41.8238 26.0574 41.4984C23.2694 39.8447 20.6217 38.279 17.9772 36.7039C16.2515 35.6742 14.5257 34.6382 12.8095 33.5919C10.3915 32.1179 7.9799 30.6319 5.56193 29.1518C5.02604 28.8235 4.43906 28.554 3.97653 28.1442C3.79149 27.9791 3.87443 27.509 3.80745 26.9632C7.97032 28.196 11.8685 29.5332 15.8591 30.4814C19.8433 31.4281 23.649 33.0783 27.9394 33.681C22.8355 27.0181 17.8943 20.5676 12.9658 14.1331C13.1317 13.4445 13.473 13.251 14.0377 13.6592C15.2594 14.5439 16.5003 15.4087 17.6901 16.3359C20.2293 18.3138 22.7271 20.346 25.2695 22.3184C27.8597 24.3254 30.4787 26.2915 33.0944 28.2643C33.4421 28.5246 33.8377 28.7172 34.3321 29.0142C33.8058 26.8504 33.3177 24.8077 32.8137 22.7678C31.6781 18.1595 30.5392 13.5522 29.3973 8.94609C29.142 7.91418 28.973 6.83854 28.552 5.87594C28.1915 5.04714 28.3319 4.29055 28.2202 3.03857Z" fill="#F4F7FF"></path></svg>