<svg xmlns="http://www.w3.org/2000/svg" width="234" height="78" viewBox="0 0 234 78" fill="none"><path d="M233.467 56.9092C234.256 59.2542 234.284 60.2835 232.761 61.1773C225.231 65.5981 217.558 69.825 210.359 74.7417C205.887 77.796 202.632 77.3974 198.303 74.4606C191.098 69.5727 183.371 65.4564 175.372 60.7242C165.887 66.3525 156.161 72.1257 146.262 78C140.989 74.927 135.945 72.0454 130.961 69.0627C126.966 66.6733 123.021 64.1974 119.104 61.6818C117.693 60.7756 116.497 60.7748 115.07 61.6647C108.159 65.9742 101.22 70.2407 94.2537 74.4614C92.3831 75.5942 90.3826 76.5106 88.1861 77.6606C77.8568 73.2071 68.9959 65.8651 58.634 60.7787C53.6568 63.7521 48.6836 66.727 43.7057 69.6957C39.7062 72.0805 35.6771 74.4185 31.7095 76.8562C30.122 77.8311 28.7018 77.6574 27.2146 76.748C19.1457 71.8119 11.0635 66.896 3.00545 61.9411C1.92272 61.2754 0.952034 60.4252 0 59.7136C0.653357 57.4659 1.67615 57.1506 3.33909 58.1704C8.2976 61.2132 13.2943 64.1943 18.2699 67.2113C22.1169 69.5439 25.9538 71.8944 29.8374 74.2629C37.4793 69.526 44.7238 64.6358 52.3447 60.4291C59.3675 56.5526 57.9894 55.9072 65.2478 60.4377C72.6541 65.0609 80.1926 69.4738 88.0469 74.2036C97.5781 68.4173 107.246 62.5484 117.079 56.5783C126.701 62.3818 136.391 68.2273 146.255 74.1764C155.984 68.3161 165.697 62.4659 175.472 56.5783C185.079 62.4238 194.518 68.1674 204.247 74.0868C214.09 69.055 223.161 62.2105 233.467 56.9092Z" fill="#E5951A"></path><path d="M204.473 49.6163C202.144 48.2989 199.597 46.9372 197.129 45.4454C190.78 41.607 184.472 37.7025 178.138 33.8408C176.276 32.7056 174.676 32.5235 172.533 33.8945C165.058 38.6765 157.376 43.1323 149.754 47.6823C148.634 48.3503 147.417 48.8556 146.076 49.5197C141.704 47.0033 137.27 44.5142 132.899 41.9193C128.271 39.1717 123.671 36.3735 119.123 33.4951C117.502 32.4689 116.3 32.764 114.737 33.717C106.412 38.7878 98.0044 43.7248 89.6212 48.6983C89.1281 48.9903 88.586 49.1997 87.861 49.5462C82.8722 46.6554 77.8288 43.7676 72.8205 40.8192C69.0621 38.6057 65.3053 36.3828 61.6325 34.0323C59.5356 32.6901 57.7335 32.7111 55.6 34.0479C47.8359 38.9155 39.9916 43.6548 32.156 48.4072C31.3067 48.9226 30.3182 49.2083 29.3599 49.6155C20.4058 44.2519 11.5474 38.9607 2.71308 33.629C1.85593 33.1113 0.963019 32.4596 0.44423 31.6429C0.0965355 31.094 0.378052 30.1441 0.378052 28.6539C11.1335 33.6438 19.8668 40.8114 29.9402 45.9064C39.6052 40.0281 49.2709 34.1491 58.9584 28.2568C68.7059 34.1912 78.259 40.0078 88.1309 46.0177C97.68 40.1527 107.319 34.2316 117.134 28.2031C126.762 34.0938 136.303 39.9316 146.249 46.0169C155.724 40.2282 165.376 34.3312 175.386 28.2156C184.815 33.9988 194.35 39.8459 204.243 45.9142C213.995 40.8012 223.23 34.2542 233.207 28.7224C234.008 31.6569 233.821 32.205 231.837 33.4678C229.506 34.9518 227.185 36.4537 224.801 37.8473C218.15 41.7347 211.471 45.57 204.473 49.6163Z" fill="#E5951A"></path><path d="M88.0414 17.6869C97.7266 11.7923 107.289 5.97323 117.1 0.00238196C126.787 5.91174 136.45 11.8064 146.238 17.778C155.834 11.9083 165.381 6.06822 175.302 0C184.898 5.81203 194.593 11.6825 204.438 17.6448C209.37 14.7166 214.187 11.7565 219.099 8.96995C223.834 6.28391 228.024 2.56853 233.391 0.783279C234.813 3.42423 233.103 4.42462 231.715 5.32238C229.152 6.98074 226.462 8.44134 223.829 9.99069C218.182 13.3152 212.542 16.6522 206.888 19.9627C206.018 20.4719 205.086 20.8736 204.259 21.2862C195.35 15.9608 186.612 10.7334 177.869 5.51464C176.111 4.46511 174.614 4.41065 172.642 5.62832C163.975 10.9826 155.145 16.0744 146.177 21.3773C137.607 16.2146 129.008 11.0581 120.439 5.85489C118.251 4.52665 116.524 4.39041 114.078 5.94756C106.1 11.0278 97.8479 15.6766 89.695 20.4805C89.1995 20.7724 88.6497 20.9717 88.0057 21.2691C83.6204 18.7614 79.1768 16.287 74.8008 13.6983C70.1682 10.9569 65.5527 8.1805 61.0282 5.26555C59.1747 4.07117 57.6658 4.7166 56.1405 5.60266C53.4991 7.138 50.9462 8.82435 48.3196 10.387C42.3118 13.9614 36.2823 17.4977 29.965 21.2247C28.7952 20.6618 27.3088 20.0763 25.9515 19.2729C18.3088 14.7446 10.6832 10.1877 3.09025 5.57615C2.00444 4.91676 1.05469 3.97698 0.203773 3.02244C-0.0163386 2.77486 0.257438 1.91142 0.527352 1.46611C0.687572 1.20056 1.36199 0.994271 1.66766 1.11416C3.02025 1.64359 4.40083 2.17458 5.63132 2.93215C12.203 6.97528 18.7265 11.0978 25.2811 15.1674C26.6422 16.0122 28.068 16.7518 29.6555 17.6487C34.0065 15.046 38.3846 12.4518 42.738 9.81629C47.2197 7.10373 51.7233 4.42311 56.1257 1.58595C58.2538 0.21489 59.9252 0.439139 62.0362 1.78529C70.1331 6.95033 78.3593 11.913 86.5433 16.941C87.0279 17.2385 87.5638 17.451 88.0414 17.6869Z" fill="#E5951A"></path></svg>