<svg xmlns="http://www.w3.org/2000/svg" width="45" height="126" viewBox="0 0 45 126" fill="none"><path d="M6.30374 91.6438C7.64965 90.2856 8.9676 88.9518 10.2901 87.6223C11.6145 86.2916 12.9442 84.9655 14.2712 83.6371C15.6437 82.263 17.009 80.881 18.3913 79.5167C19.7129 78.212 20.9756 76.8399 22.4937 75.5054C23.1525 76.1152 23.6778 76.5704 24.1682 77.0606C28.7035 81.5898 33.231 86.1272 37.7673 90.6554C38.1622 91.0496 38.6049 91.3957 38.6821 91.4632C40.3076 90.0415 41.7935 88.7423 43.4748 87.2719C39.955 83.7792 36.5445 80.3292 33.0887 76.9209C29.5899 73.4692 26.1571 69.9504 22.6098 66.3747C15.6085 73.3618 8.68328 80.2726 1.80286 87.1386C3.3333 88.6708 4.74667 90.0849 6.30374 91.6438ZM44.9462 87.2271C44.7768 87.5231 44.6914 87.78 44.5211 87.9528C42.7544 89.7493 40.9738 91.5323 39.1303 93.3871C37.4577 92.193 36.2421 90.6778 34.8595 89.3494C33.5053 88.0488 32.1986 86.699 30.8709 85.3706C29.4978 83.9968 28.1264 82.6206 26.7505 81.2488C25.4303 79.9323 24.1052 78.6205 22.7067 77.2314C16.9237 82.3871 11.692 87.902 6.26341 93.2322C5.90566 93.0543 5.58784 92.956 5.34551 92.7628C4.94251 92.4417 4.57585 92.0712 4.21513 91.7011C2.83867 90.2886 1.47076 88.868 0 87.3471C2.29803 84.5235 5.05299 82.2874 7.49387 79.7499C9.90485 77.2443 12.3623 74.783 14.8179 72.3201C17.3112 69.8203 19.8264 67.3428 22.4154 64.7721C22.8317 65.0602 23.2317 65.2578 23.5308 65.5565C30.4059 72.4185 37.2714 79.2903 44.1306 86.1682C44.4368 86.475 44.6657 86.859 44.9462 87.2271Z" fill="#E5951A"></path><path d="M22.679 34.2324C15.8083 41.108 8.87512 48.0462 1.91927 55.0069C3.28385 56.3064 4.79763 57.7481 6.32639 59.2039C11.6724 53.8849 17.1232 48.4608 22.6593 42.9522C25.4868 45.7643 28.1612 48.4333 30.8462 51.0915C33.5612 53.7801 36.1611 56.5905 39.0645 59.2087C40.5538 57.5884 42.1274 56.3546 43.2574 54.8181C36.2583 47.8167 29.3562 40.912 22.679 34.2324ZM44.7172 54.9272C42.8644 56.7861 40.9948 58.6623 39.0476 60.6164C37.625 60.2086 36.8118 58.888 35.7672 57.9145C33.7607 56.0447 31.8765 54.0432 29.9364 52.102C28.1331 50.2977 26.3194 48.5042 24.5188 46.6971C23.8908 46.0673 23.2879 45.4128 22.5611 44.6515C17.1679 50.0339 11.7814 55.4095 6.4445 60.7357C5.04272 59.9924 1.51805 56.5732 0.316389 54.9194C7.78195 47.4486 15.2288 39.9968 22.5201 32.7002C29.7874 39.9775 37.2318 47.4313 44.7172 54.9272Z" fill="#E5951A"></path><path d="M6.34028 124.212C11.7076 118.843 17.0825 113.468 22.5103 108.039C28.0335 113.563 33.4129 118.943 38.8318 124.363C40.4207 122.762 41.9615 121.324 43.2868 119.855C36.3278 112.884 29.5259 106.071 22.5306 99.0635C19.0209 102.345 15.6339 105.89 12.1567 109.34C8.6686 112.801 5.17683 116.259 1.64407 119.761C3.24895 121.282 4.74468 122.699 6.34028 124.212ZM45 119.784C42.897 121.915 40.9565 123.882 38.8664 126C33.4129 120.547 28.0366 115.171 22.5096 109.645C17.0717 115.085 11.6598 120.5 6.39637 125.765C4.31102 123.644 2.32841 121.627 0.259456 119.522C0.556816 119.2 0.971639 118.721 1.41849 118.273C7.91126 111.769 14.4077 105.269 20.9055 98.7699C21.9713 97.7036 23.0291 97.6925 24.0788 98.7367C30.6226 105.281 37.1644 111.828 43.7038 118.377C44.1075 118.782 44.4801 119.218 45 119.784Z" fill="#E5951A"></path><path d="M22.5255 1.54094C22.4016 1.56976 22.262 1.57177 22.1574 1.63346C21.9924 1.73041 21.8369 1.85346 21.7018 1.98939C15.0838 8.63141 8.46844 15.2755 1.85543 21.9226C1.81623 21.9619 1.80579 22.0378 1.79887 22.0992C1.79173 22.1608 1.80579 22.2249 1.8098 22.2781C3.28286 23.7303 4.75047 25.1766 6.32112 26.725C11.6717 21.3477 17.0493 15.9436 22.5181 10.4476C25.2717 13.2006 27.9634 15.8931 30.6568 18.5844C33.3766 21.3026 36.0978 24.0197 38.5954 26.5145C40.251 24.9719 41.7532 23.572 43.2482 22.1781C41.9137 20.403 23.7303 2.30498 22.5255 1.54094ZM22.4144 11.9482C16.9382 17.4387 11.5562 22.8347 6.3474 28.0568C4.31736 26.0555 2.30313 24.0699 0.420566 22.2141C7.73118 14.9002 15.1187 7.50942 22.6248 0C22.7369 0.0650677 23.1128 0.190834 23.3642 0.441333C30.417 7.4789 37.4577 14.5287 44.496 21.5809C44.6274 21.7124 44.7091 21.8941 44.9241 22.2181C43.0209 24.2712 40.967 26.2091 38.8457 28.3774C33.4146 22.9472 28.0396 17.5733 22.4144 11.9482Z" fill="#E5951A"></path></svg>